<svg width="728" height="671" viewBox="0 0 728 671" fill="none" xmlns="http://www.w3.org/2000/svg">
<g opacity="0.2">
<path d="M157.07 501.65L165.56 493.17" stroke="#9B9B9B" stroke-width="3" stroke-miterlimit="10"/>
<path d="M173.98 484.74L574.2 84.53" stroke="#9B9B9B" stroke-width="3" stroke-miterlimit="10"/>
<path d="M578.41 80.3101L586.9 71.8301" stroke="#9B9B9B" stroke-width="3" stroke-miterlimit="10"/>
<path d="M588.54 87.53L585.54 87.43L586.08 72.65L571.3 73.19L571.19 70.18L589.2 69.53L588.54 87.53Z" fill="#9B9B9B"/>
</g>
<path d="M282.41 279.11H210.41V334.6H282.41V279.11Z" fill="#FF5938"/>
<path d="M282.41 223.61H210.41V279.1H282.41V223.61Z" fill="#FFBD40"/>
<path d="M282.41 168.12H210.41V223.61H282.41V168.12Z" fill="#FFD27C"/>
<path d="M282.41 112.62H210.41V168.11H282.41V112.62Z" fill="#FFE9BD"/>
<path d="M282.4 334.6H210.4V390.09H282.4V334.6Z" fill="#DB0000"/>
<path d="M282.4 390.09H210.4V445.58H282.4V390.09Z" fill="#9E0000"/>
<path d="M282.4 445.59H210.4V501.08H282.4V445.59Z" fill="#770000"/>
<path d="M426.389 336.17H354.399V391.35H426.389V336.17Z" fill="#7FC296"/>
<path d="M426.389 280.99H354.399V336.17H426.389V280.99Z" fill="#99CEAB"/>
<path d="M426.389 225.81H354.399V280.99H426.389V225.81Z" fill="#BFE1CB"/>
<path d="M426.38 391.35H354.39V446.53H426.38V391.35Z" fill="#598869"/>
<path d="M426.38 446.53H354.39V501.71H426.38V446.53Z" fill="#334E3C"/>
<path d="M570.37 390.41H498.38V445.59H570.37V390.41Z" fill="#454545"/>
<path d="M570.37 445.59H498.38V500.77H570.37V445.59Z" fill="#181818"/>
<path d="M498.39 334.91H570.38V279.42H498.39V334.91Z" fill="#E9E9E9"/>
<path d="M498.39 390.4H570.38V334.91H498.39V390.4Z" fill="#9B9B9B"/>
<path d="M498.39 279.1H570.38V223.61H498.39V279.1Z" stroke="#181818" stroke-miterlimit="10"/>
<path d="M48.9398 337.574L48.5198 340.192H50.5638L50.9838 337.574H48.9398ZM51.5998 333.78H52.5378L52.0758 336.622H53.5038V337.574H51.9358L51.5018 340.192H53.0278V341.144H51.3758L50.8858 344.14H49.9338L50.4098 341.144H48.3798L47.8898 344.14H46.9518L47.4138 341.144H45.7898V340.192H47.5818L48.0018 337.574H46.2798V336.622H48.1698L48.6178 333.78H49.5558L49.0938 336.636H51.1518L51.5998 333.78ZM60.2814 335.32V336.384H56.3894V339.24H59.9734V340.29H56.3894V344.14H55.1014V335.32H60.2814ZM66.6525 335.32V336.384H62.7605V339.24H66.3445V340.29H62.7605V344.14H61.4725V335.32H66.6525ZM73.1255 335.292V336.314L69.8635 336.342L69.5975 338.666C69.7095 338.647 69.8355 338.633 69.9755 338.624C70.1155 338.605 70.2648 338.596 70.4235 338.596C70.7688 338.596 71.1188 338.643 71.4735 338.736C71.8375 338.829 72.1641 338.983 72.4535 339.198C72.7428 339.403 72.9808 339.679 73.1675 340.024C73.3541 340.36 73.4475 340.775 73.4475 341.27C73.4475 341.69 73.3728 342.082 73.2235 342.446C73.0741 342.81 72.8501 343.127 72.5515 343.398C72.2621 343.669 71.8981 343.883 71.4595 344.042C71.0301 344.191 70.5308 344.266 69.9615 344.266C69.6348 344.266 69.2988 344.229 68.9535 344.154C68.6081 344.079 68.3001 343.977 68.0295 343.846L68.3095 342.852C68.5335 342.964 68.7855 343.057 69.0655 343.132C69.3455 343.207 69.6348 343.244 69.9335 343.244C70.6428 343.244 71.1888 343.085 71.5715 342.768C71.9635 342.441 72.1595 341.956 72.1595 341.312C72.1595 341.004 72.1035 340.738 71.9915 340.514C71.8888 340.281 71.7395 340.089 71.5435 339.94C71.3568 339.791 71.1328 339.679 70.8715 339.604C70.6101 339.529 70.3255 339.492 70.0175 339.492C69.7655 339.492 69.5088 339.511 69.2475 339.548C68.9861 339.576 68.7201 339.618 68.4495 339.674L68.8835 335.32L73.1255 335.292ZM77.2639 344.266C76.8439 344.266 76.4845 344.233 76.1859 344.168C75.8965 344.112 75.6445 344.033 75.4299 343.93L75.7239 342.936C75.9199 343.02 76.1252 343.099 76.3399 343.174C76.5639 343.239 76.8579 343.272 77.2219 343.272C78.0432 343.272 78.6545 343.015 79.0559 342.502C79.4572 341.979 79.6719 341.223 79.6999 340.234C79.4665 340.505 79.1679 340.719 78.8039 340.878C78.4492 341.037 78.0759 341.116 77.6839 341.116C77.2919 341.116 76.9232 341.055 76.5779 340.934C76.2419 340.803 75.9479 340.617 75.6959 340.374C75.4532 340.122 75.2619 339.819 75.1219 339.464C74.9819 339.109 74.9119 338.703 74.9119 338.246C74.9119 337.789 74.9865 337.373 75.1359 337C75.2852 336.617 75.4952 336.295 75.7659 336.034C76.0365 335.763 76.3539 335.558 76.7179 335.418C77.0912 335.269 77.5019 335.194 77.9499 335.194C78.3512 335.194 78.7339 335.273 79.0979 335.432C79.4619 335.581 79.7839 335.824 80.0639 336.16C80.3439 336.496 80.5679 336.93 80.7359 337.462C80.9039 337.985 80.9879 338.619 80.9879 339.366C80.9879 340.271 80.8899 341.037 80.6939 341.662C80.5072 342.278 80.2459 342.782 79.9099 343.174C79.5832 343.557 79.1912 343.837 78.7339 344.014C78.2859 344.182 77.7959 344.266 77.2639 344.266ZM79.6999 338.652C79.6999 338.316 79.6532 337.999 79.5599 337.7C79.4759 337.401 79.3545 337.135 79.1959 336.902C79.0372 336.669 78.8412 336.487 78.6079 336.356C78.3745 336.216 78.1179 336.146 77.8379 336.146C77.2965 336.146 76.8765 336.333 76.5779 336.706C76.2885 337.07 76.1439 337.551 76.1439 338.148C76.1439 338.811 76.3025 339.31 76.6199 339.646C76.9372 339.973 77.3759 340.136 77.9359 340.136C78.3279 340.136 78.6592 340.052 78.9299 339.884C79.2005 339.707 79.4105 339.487 79.5599 339.226C79.6159 339.123 79.6532 339.03 79.6719 338.946C79.6905 338.853 79.6999 338.755 79.6999 338.652ZM82.2859 335.852C82.6499 335.609 83.0279 335.441 83.4199 335.348C83.8119 335.245 84.1853 335.194 84.5399 335.194C84.9319 335.194 85.2913 335.25 85.6179 335.362C85.9539 335.474 86.2386 335.633 86.4719 335.838C86.7053 336.034 86.8873 336.272 87.0179 336.552C87.1486 336.823 87.2139 337.121 87.2139 337.448C87.2139 337.999 87.0693 338.456 86.7799 338.82C86.4999 339.184 86.1546 339.441 85.7439 339.59C86.2573 339.702 86.6819 339.949 87.0179 340.332C87.3539 340.705 87.5219 341.158 87.5219 341.69C87.5219 342.166 87.4286 342.567 87.2419 342.894C87.0553 343.221 86.8126 343.487 86.5139 343.692C86.2153 343.888 85.8746 344.033 85.4919 344.126C85.1186 344.219 84.7359 344.266 84.3439 344.266C83.9519 344.266 83.5599 344.229 83.1679 344.154C82.7759 344.079 82.4306 343.972 82.1319 343.832L82.4119 342.88C82.5706 342.936 82.7199 342.992 82.8599 343.048C82.9999 343.095 83.1446 343.137 83.2939 343.174C83.4433 343.202 83.5973 343.225 83.7559 343.244C83.9239 343.263 84.1153 343.272 84.3299 343.272C84.5633 343.272 84.7919 343.244 85.0159 343.188C85.2493 343.132 85.4546 343.039 85.6319 342.908C85.8093 342.777 85.9539 342.614 86.0659 342.418C86.1779 342.213 86.2339 341.961 86.2339 341.662C86.2339 341.401 86.1826 341.172 86.0799 340.976C85.9866 340.78 85.8513 340.621 85.6739 340.5C85.5059 340.379 85.3053 340.29 85.0719 340.234C84.8386 340.169 84.5819 340.136 84.3019 340.136H83.2519V339.184H84.0639C84.6053 339.184 85.0533 339.053 85.4079 338.792C85.7719 338.531 85.9539 338.129 85.9539 337.588C85.9539 337.392 85.9119 337.21 85.8279 337.042C85.7533 336.865 85.6459 336.715 85.5059 336.594C85.3753 336.463 85.2166 336.361 85.0299 336.286C84.8526 336.211 84.6566 336.174 84.4419 336.174C84.1433 336.174 83.8633 336.211 83.6019 336.286C83.3406 336.361 83.0326 336.501 82.6779 336.706L82.2859 335.852ZM91.9632 335.194C92.4206 335.194 92.8172 335.255 93.1532 335.376C93.4986 335.497 93.7879 335.661 94.0212 335.866C94.2546 336.071 94.4272 336.305 94.5392 336.566C94.6606 336.827 94.7212 337.103 94.7212 337.392C94.7212 337.812 94.5812 338.209 94.3012 338.582C94.0306 338.955 93.6106 339.254 93.0412 339.478C93.6852 339.749 94.1612 340.061 94.4692 340.416C94.7866 340.761 94.9452 341.209 94.9452 341.76C94.9452 342.171 94.8706 342.53 94.7212 342.838C94.5719 343.146 94.3619 343.407 94.0912 343.622C93.8299 343.837 93.5172 344 93.1532 344.112C92.7892 344.215 92.3926 344.266 91.9632 344.266C91.5432 344.266 91.1466 344.21 90.7732 344.098C90.4092 343.986 90.0919 343.827 89.8212 343.622C89.5506 343.417 89.3359 343.169 89.1772 342.88C89.0186 342.581 88.9392 342.245 88.9392 341.872C88.9392 341.303 89.0839 340.845 89.3732 340.5C89.6719 340.155 90.1339 339.847 90.7592 339.576C90.2832 339.361 89.9099 339.081 89.6392 338.736C89.3686 338.381 89.2332 337.975 89.2332 337.518C89.2332 337.21 89.2892 336.916 89.4012 336.636C89.5132 336.356 89.6812 336.109 89.9052 335.894C90.1386 335.679 90.4232 335.511 90.7592 335.39C91.1046 335.259 91.5059 335.194 91.9632 335.194ZM90.3952 337.448C90.3952 337.663 90.4372 337.854 90.5212 338.022C90.6146 338.19 90.7312 338.339 90.8712 338.47C91.0206 338.591 91.1932 338.703 91.3892 338.806C91.5852 338.899 91.7906 338.983 92.0052 339.058C92.2199 338.974 92.4206 338.881 92.6072 338.778C92.7939 338.675 92.9572 338.559 93.0972 338.428C93.2372 338.288 93.3446 338.139 93.4192 337.98C93.5032 337.812 93.5452 337.625 93.5452 337.42C93.5452 337.224 93.5032 337.047 93.4192 336.888C93.3352 336.729 93.2186 336.594 93.0692 336.482C92.9292 336.361 92.7612 336.272 92.5652 336.216C92.3786 336.151 92.1779 336.118 91.9632 336.118C91.7019 336.118 91.4732 336.155 91.2772 336.23C91.0812 336.305 90.9179 336.403 90.7872 336.524C90.6566 336.645 90.5586 336.79 90.4932 336.958C90.4279 337.117 90.3952 337.28 90.3952 337.448ZM91.8512 340.024C91.3566 340.183 90.9552 340.402 90.6472 340.682C90.3392 340.953 90.1852 341.335 90.1852 341.83C90.1852 342.222 90.3299 342.567 90.6192 342.866C90.9179 343.165 91.3659 343.314 91.9632 343.314C92.2339 343.314 92.4766 343.277 92.6912 343.202C92.9152 343.118 93.1019 343.006 93.2512 342.866C93.4006 342.726 93.5126 342.567 93.5872 342.39C93.6712 342.213 93.7132 342.026 93.7132 341.83C93.7132 341.597 93.6666 341.387 93.5732 341.2C93.4799 341.004 93.3492 340.836 93.1812 340.696C93.0132 340.547 92.8126 340.416 92.5792 340.304C92.3552 340.192 92.1126 340.099 91.8512 340.024Z" fill="#FF5938"/>
<path d="M125.43 573.984L125.01 576.602H127.054L127.474 573.984H125.43ZM128.09 570.19H129.028L128.566 573.032H129.994V573.984H128.426L127.992 576.602H129.518V577.554H127.866L127.376 580.55H126.424L126.9 577.554H124.87L124.38 580.55H123.442L123.904 577.554H122.28V576.602H124.072L124.492 573.984H122.77V573.032H124.66L125.108 570.19H126.046L125.584 573.046H127.642L128.09 570.19ZM137.031 571.73V572.598L133.223 580.802L132.173 580.34L135.799 572.752H131.543V571.73H137.031ZM143.977 571.73V572.794H140.085V575.65H143.669V576.7H140.085V580.55H138.797V571.73H143.977ZM149.442 579.612C149.908 579.612 150.291 579.575 150.59 579.5C150.898 579.426 151.201 579.318 151.5 579.178L151.794 580.214C151.467 580.373 151.108 580.49 150.716 580.564C150.333 580.639 149.862 580.676 149.302 580.676C148.723 580.676 148.177 580.578 147.664 580.382C147.15 580.186 146.702 579.897 146.32 579.514C145.946 579.132 145.648 578.66 145.424 578.1C145.209 577.531 145.102 576.878 145.102 576.14C145.102 575.422 145.209 574.782 145.424 574.222C145.638 573.653 145.932 573.177 146.306 572.794C146.688 572.402 147.141 572.108 147.664 571.912C148.186 571.707 148.756 571.604 149.372 571.604C149.95 571.604 150.426 571.651 150.8 571.744C151.173 571.838 151.518 571.964 151.836 572.122L151.528 573.13C151.35 573.056 151.182 572.99 151.024 572.934C150.874 572.869 150.72 572.818 150.562 572.78C150.412 572.743 150.254 572.715 150.086 572.696C149.927 572.678 149.745 572.668 149.54 572.668C149.129 572.668 148.737 572.734 148.364 572.864C148 572.986 147.678 573.186 147.398 573.466C147.127 573.746 146.908 574.11 146.74 574.558C146.581 574.997 146.502 575.529 146.502 576.154C146.502 576.789 146.581 577.326 146.74 577.764C146.898 578.203 147.108 578.558 147.37 578.828C147.64 579.099 147.953 579.3 148.308 579.43C148.662 579.552 149.04 579.612 149.442 579.612ZM155.428 572.612C155.129 572.612 154.845 572.664 154.574 572.766C154.303 572.869 154.005 573.046 153.678 573.298L153.132 572.472C153.552 572.118 153.949 571.884 154.322 571.772C154.705 571.66 155.073 571.604 155.428 571.604C155.913 571.604 156.329 571.674 156.674 571.814C157.029 571.945 157.323 572.127 157.556 572.36C157.789 572.594 157.962 572.869 158.074 573.186C158.186 573.504 158.242 573.849 158.242 574.222C158.242 574.558 158.172 574.904 158.032 575.258C157.892 575.604 157.691 575.963 157.43 576.336C157.178 576.7 156.87 577.083 156.506 577.484C156.142 577.876 155.731 578.292 155.274 578.73L154.448 579.528H158.452V580.55H153.146L152.922 579.668L154.084 578.506C154.597 577.993 155.036 577.536 155.4 577.134C155.773 576.733 156.077 576.364 156.31 576.028C156.543 575.692 156.711 575.384 156.814 575.104C156.926 574.824 156.982 574.544 156.982 574.264C156.982 573.788 156.851 573.396 156.59 573.088C156.338 572.771 155.951 572.612 155.428 572.612ZM161.944 580.676C161.524 580.676 161.164 580.644 160.866 580.578C160.576 580.522 160.324 580.443 160.11 580.34L160.404 579.346C160.6 579.43 160.805 579.51 161.02 579.584C161.244 579.65 161.538 579.682 161.902 579.682C162.723 579.682 163.334 579.426 163.736 578.912C164.137 578.39 164.352 577.634 164.38 576.644C164.146 576.915 163.848 577.13 163.484 577.288C163.129 577.447 162.756 577.526 162.364 577.526C161.972 577.526 161.603 577.466 161.258 577.344C160.922 577.214 160.628 577.027 160.376 576.784C160.133 576.532 159.942 576.229 159.802 575.874C159.662 575.52 159.592 575.114 159.592 574.656C159.592 574.199 159.666 573.784 159.816 573.41C159.965 573.028 160.175 572.706 160.446 572.444C160.716 572.174 161.034 571.968 161.398 571.828C161.771 571.679 162.182 571.604 162.63 571.604C163.031 571.604 163.414 571.684 163.778 571.842C164.142 571.992 164.464 572.234 164.744 572.57C165.024 572.906 165.248 573.34 165.416 573.872C165.584 574.395 165.668 575.03 165.668 575.776C165.668 576.682 165.57 577.447 165.374 578.072C165.187 578.688 164.926 579.192 164.59 579.584C164.263 579.967 163.871 580.247 163.414 580.424C162.966 580.592 162.476 580.676 161.944 580.676ZM164.38 575.062C164.38 574.726 164.333 574.409 164.24 574.11C164.156 573.812 164.034 573.546 163.876 573.312C163.717 573.079 163.521 572.897 163.288 572.766C163.054 572.626 162.798 572.556 162.518 572.556C161.976 572.556 161.556 572.743 161.258 573.116C160.968 573.48 160.824 573.961 160.824 574.558C160.824 575.221 160.982 575.72 161.3 576.056C161.617 576.383 162.056 576.546 162.616 576.546C163.008 576.546 163.339 576.462 163.61 576.294C163.88 576.117 164.09 575.898 164.24 575.636C164.296 575.534 164.333 575.44 164.352 575.356C164.37 575.263 164.38 575.165 164.38 575.062ZM170.702 571.604C171.337 571.604 171.901 571.698 172.396 571.884L172.102 572.878C171.906 572.794 171.696 572.729 171.472 572.682C171.248 572.626 171.005 572.598 170.744 572.598C170.333 572.598 169.974 572.678 169.666 572.836C169.358 572.986 169.097 573.196 168.882 573.466C168.677 573.737 168.513 574.064 168.392 574.446C168.28 574.829 168.219 575.249 168.21 575.706C168.471 575.38 168.784 575.142 169.148 574.992C169.521 574.834 169.904 574.754 170.296 574.754C170.688 574.754 171.057 574.82 171.402 574.95C171.747 575.072 172.046 575.258 172.298 575.51C172.559 575.753 172.765 576.052 172.914 576.406C173.063 576.761 173.138 577.167 173.138 577.624C173.138 578.091 173.059 578.511 172.9 578.884C172.751 579.258 172.536 579.58 172.256 579.85C171.985 580.112 171.663 580.317 171.29 580.466C170.917 580.606 170.506 580.676 170.058 580.676C169.657 580.676 169.269 580.602 168.896 580.452C168.523 580.294 168.187 580.046 167.888 579.71C167.599 579.374 167.365 578.945 167.188 578.422C167.011 577.89 166.922 577.251 166.922 576.504C166.922 575.599 167.025 574.838 167.23 574.222C167.445 573.597 167.725 573.093 168.07 572.71C168.425 572.318 168.826 572.038 169.274 571.87C169.731 571.693 170.207 571.604 170.702 571.604ZM168.21 577.33C168.21 577.666 168.252 577.979 168.336 578.268C168.429 578.558 168.56 578.81 168.728 579.024C168.896 579.239 169.097 579.412 169.33 579.542C169.563 579.664 169.82 579.724 170.1 579.724C170.371 579.724 170.613 579.673 170.828 579.57C171.052 579.468 171.243 579.323 171.402 579.136C171.561 578.95 171.682 578.73 171.766 578.478C171.859 578.226 171.906 577.951 171.906 577.652C171.906 576.99 171.738 576.504 171.402 576.196C171.066 575.888 170.618 575.734 170.058 575.734C169.638 575.734 169.283 575.832 168.994 576.028C168.714 576.224 168.499 576.453 168.35 576.714C168.294 576.817 168.257 576.92 168.238 577.022C168.219 577.125 168.21 577.228 168.21 577.33Z" fill="#7FC296"/>
<path d="M293.82 657.074L293.4 659.692H295.444L295.864 657.074H293.82ZM296.48 653.28H297.418L296.956 656.122H298.384V657.074H296.816L296.382 659.692H297.908V660.644H296.256L295.766 663.64H294.814L295.29 660.644H293.26L292.77 663.64H291.832L292.294 660.644H290.67V659.692H292.462L292.882 657.074H291.16V656.122H293.05L293.498 653.28H294.436L293.974 656.136H296.032L296.48 653.28ZM301.746 663.766C301.326 663.766 300.966 663.733 300.668 663.668C300.378 663.612 300.126 663.533 299.912 663.43L300.206 662.436C300.402 662.52 300.607 662.599 300.822 662.674C301.046 662.739 301.34 662.772 301.704 662.772C302.525 662.772 303.136 662.515 303.538 662.002C303.939 661.479 304.154 660.723 304.182 659.734C303.948 660.005 303.65 660.219 303.286 660.378C302.931 660.537 302.558 660.616 302.166 660.616C301.774 660.616 301.405 660.555 301.06 660.434C300.724 660.303 300.43 660.117 300.178 659.874C299.935 659.622 299.744 659.319 299.604 658.964C299.464 658.609 299.394 658.203 299.394 657.746C299.394 657.289 299.468 656.873 299.618 656.5C299.767 656.117 299.977 655.795 300.248 655.534C300.518 655.263 300.836 655.058 301.2 654.918C301.573 654.769 301.984 654.694 302.432 654.694C302.833 654.694 303.216 654.773 303.58 654.932C303.944 655.081 304.266 655.324 304.546 655.66C304.826 655.996 305.05 656.43 305.218 656.962C305.386 657.485 305.47 658.119 305.47 658.866C305.47 659.771 305.372 660.537 305.176 661.162C304.989 661.778 304.728 662.282 304.392 662.674C304.065 663.057 303.673 663.337 303.216 663.514C302.768 663.682 302.278 663.766 301.746 663.766ZM304.182 658.152C304.182 657.816 304.135 657.499 304.042 657.2C303.958 656.901 303.836 656.635 303.678 656.402C303.519 656.169 303.323 655.987 303.09 655.856C302.856 655.716 302.6 655.646 302.32 655.646C301.778 655.646 301.358 655.833 301.06 656.206C300.77 656.57 300.626 657.051 300.626 657.648C300.626 658.311 300.784 658.81 301.102 659.146C301.419 659.473 301.858 659.636 302.418 659.636C302.81 659.636 303.141 659.552 303.412 659.384C303.682 659.207 303.892 658.987 304.042 658.726C304.098 658.623 304.135 658.53 304.154 658.446C304.172 658.353 304.182 658.255 304.182 658.152ZM309.86 654.82C310.738 654.82 311.419 655.011 311.904 655.394C312.399 655.767 312.646 656.318 312.646 657.046C312.646 657.587 312.492 658.012 312.184 658.32C311.886 658.619 311.508 658.829 311.05 658.95C311.312 658.997 311.554 659.081 311.778 659.202C312.002 659.314 312.198 659.463 312.366 659.65C312.534 659.837 312.665 660.061 312.758 660.322C312.861 660.574 312.912 660.859 312.912 661.176C312.912 661.54 312.833 661.876 312.674 662.184C312.516 662.483 312.296 662.739 312.016 662.954C311.736 663.169 311.405 663.337 311.022 663.458C310.64 663.579 310.22 663.64 309.762 663.64H307.214V654.82H309.86ZM308.502 658.502H309.552C309.786 658.502 310.01 658.483 310.224 658.446C310.439 658.409 310.626 658.339 310.784 658.236C310.952 658.133 311.083 657.998 311.176 657.83C311.279 657.653 311.33 657.424 311.33 657.144C311.33 656.696 311.176 656.369 310.868 656.164C310.57 655.959 310.168 655.856 309.664 655.856H308.502V658.502ZM308.502 662.604H309.622C309.884 662.604 310.131 662.581 310.364 662.534C310.598 662.478 310.803 662.389 310.98 662.268C311.158 662.147 311.298 661.988 311.4 661.792C311.512 661.587 311.568 661.339 311.568 661.05C311.568 660.761 311.503 660.523 311.372 660.336C311.251 660.14 311.088 659.981 310.882 659.86C310.677 659.739 310.444 659.655 310.182 659.608C309.921 659.552 309.66 659.524 309.398 659.524H308.502V662.604ZM316.498 663.766C316.078 663.766 315.718 663.733 315.42 663.668C315.13 663.612 314.878 663.533 314.664 663.43L314.958 662.436C315.154 662.52 315.359 662.599 315.574 662.674C315.798 662.739 316.092 662.772 316.456 662.772C317.277 662.772 317.888 662.515 318.29 662.002C318.691 661.479 318.906 660.723 318.934 659.734C318.7 660.005 318.402 660.219 318.038 660.378C317.683 660.537 317.31 660.616 316.918 660.616C316.526 660.616 316.157 660.555 315.812 660.434C315.476 660.303 315.182 660.117 314.93 659.874C314.687 659.622 314.496 659.319 314.356 658.964C314.216 658.609 314.146 658.203 314.146 657.746C314.146 657.289 314.22 656.873 314.37 656.5C314.519 656.117 314.729 655.795 315 655.534C315.27 655.263 315.588 655.058 315.952 654.918C316.325 654.769 316.736 654.694 317.184 654.694C317.585 654.694 317.968 654.773 318.332 654.932C318.696 655.081 319.018 655.324 319.298 655.66C319.578 655.996 319.802 656.43 319.97 656.962C320.138 657.485 320.222 658.119 320.222 658.866C320.222 659.771 320.124 660.537 319.928 661.162C319.741 661.778 319.48 662.282 319.144 662.674C318.817 663.057 318.425 663.337 317.968 663.514C317.52 663.682 317.03 663.766 316.498 663.766ZM318.934 658.152C318.934 657.816 318.887 657.499 318.794 657.2C318.71 656.901 318.588 656.635 318.43 656.402C318.271 656.169 318.075 655.987 317.842 655.856C317.608 655.716 317.352 655.646 317.072 655.646C316.53 655.646 316.11 655.833 315.812 656.206C315.522 656.57 315.378 657.051 315.378 657.648C315.378 658.311 315.536 658.81 315.854 659.146C316.171 659.473 316.61 659.636 317.17 659.636C317.562 659.636 317.893 659.552 318.164 659.384C318.434 659.207 318.644 658.987 318.794 658.726C318.85 658.623 318.887 658.53 318.906 658.446C318.924 658.353 318.934 658.255 318.934 658.152ZM324.612 654.82C325.49 654.82 326.171 655.011 326.656 655.394C327.151 655.767 327.398 656.318 327.398 657.046C327.398 657.587 327.244 658.012 326.936 658.32C326.638 658.619 326.26 658.829 325.802 658.95C326.064 658.997 326.306 659.081 326.53 659.202C326.754 659.314 326.95 659.463 327.118 659.65C327.286 659.837 327.417 660.061 327.51 660.322C327.613 660.574 327.664 660.859 327.664 661.176C327.664 661.54 327.585 661.876 327.426 662.184C327.268 662.483 327.048 662.739 326.768 662.954C326.488 663.169 326.157 663.337 325.774 663.458C325.392 663.579 324.972 663.64 324.514 663.64H321.966V654.82H324.612ZM323.254 658.502H324.304C324.538 658.502 324.762 658.483 324.976 658.446C325.191 658.409 325.378 658.339 325.536 658.236C325.704 658.133 325.835 657.998 325.928 657.83C326.031 657.653 326.082 657.424 326.082 657.144C326.082 656.696 325.928 656.369 325.62 656.164C325.322 655.959 324.92 655.856 324.416 655.856H323.254V658.502ZM323.254 662.604H324.374C324.636 662.604 324.883 662.581 325.116 662.534C325.35 662.478 325.555 662.389 325.732 662.268C325.91 662.147 326.05 661.988 326.152 661.792C326.264 661.587 326.32 661.339 326.32 661.05C326.32 660.761 326.255 660.523 326.124 660.336C326.003 660.14 325.84 659.981 325.634 659.86C325.429 659.739 325.196 659.655 324.934 659.608C324.673 659.552 324.412 659.524 324.15 659.524H323.254V662.604ZM331.25 663.766C330.83 663.766 330.47 663.733 330.172 663.668C329.882 663.612 329.63 663.533 329.416 663.43L329.71 662.436C329.906 662.52 330.111 662.599 330.326 662.674C330.55 662.739 330.844 662.772 331.208 662.772C332.029 662.772 332.64 662.515 333.042 662.002C333.443 661.479 333.658 660.723 333.686 659.734C333.452 660.005 333.154 660.219 332.79 660.378C332.435 660.537 332.062 660.616 331.67 660.616C331.278 660.616 330.909 660.555 330.564 660.434C330.228 660.303 329.934 660.117 329.682 659.874C329.439 659.622 329.248 659.319 329.108 658.964C328.968 658.609 328.898 658.203 328.898 657.746C328.898 657.289 328.972 656.873 329.122 656.5C329.271 656.117 329.481 655.795 329.752 655.534C330.022 655.263 330.34 655.058 330.704 654.918C331.077 654.769 331.488 654.694 331.936 654.694C332.337 654.694 332.72 654.773 333.084 654.932C333.448 655.081 333.77 655.324 334.05 655.66C334.33 655.996 334.554 656.43 334.722 656.962C334.89 657.485 334.974 658.119 334.974 658.866C334.974 659.771 334.876 660.537 334.68 661.162C334.493 661.778 334.232 662.282 333.896 662.674C333.569 663.057 333.177 663.337 332.72 663.514C332.272 663.682 331.782 663.766 331.25 663.766ZM333.686 658.152C333.686 657.816 333.639 657.499 333.546 657.2C333.462 656.901 333.34 656.635 333.182 656.402C333.023 656.169 332.827 655.987 332.594 655.856C332.36 655.716 332.104 655.646 331.824 655.646C331.282 655.646 330.862 655.833 330.564 656.206C330.274 656.57 330.13 657.051 330.13 657.648C330.13 658.311 330.288 658.81 330.606 659.146C330.923 659.473 331.362 659.636 331.922 659.636C332.314 659.636 332.645 659.552 332.916 659.384C333.186 659.207 333.396 658.987 333.546 658.726C333.602 658.623 333.639 658.53 333.658 658.446C333.676 658.353 333.686 658.255 333.686 658.152ZM339.364 654.82C340.241 654.82 340.923 655.011 341.408 655.394C341.903 655.767 342.15 656.318 342.15 657.046C342.15 657.587 341.996 658.012 341.688 658.32C341.389 658.619 341.011 658.829 340.554 658.95C340.815 658.997 341.058 659.081 341.282 659.202C341.506 659.314 341.702 659.463 341.87 659.65C342.038 659.837 342.169 660.061 342.262 660.322C342.365 660.574 342.416 660.859 342.416 661.176C342.416 661.54 342.337 661.876 342.178 662.184C342.019 662.483 341.8 662.739 341.52 662.954C341.24 663.169 340.909 663.337 340.526 663.458C340.143 663.579 339.723 663.64 339.266 663.64H336.718V654.82H339.364ZM338.006 658.502H339.056C339.289 658.502 339.513 658.483 339.728 658.446C339.943 658.409 340.129 658.339 340.288 658.236C340.456 658.133 340.587 657.998 340.68 657.83C340.783 657.653 340.834 657.424 340.834 657.144C340.834 656.696 340.68 656.369 340.372 656.164C340.073 655.959 339.672 655.856 339.168 655.856H338.006V658.502ZM338.006 662.604H339.126C339.387 662.604 339.635 662.581 339.868 662.534C340.101 662.478 340.307 662.389 340.484 662.268C340.661 662.147 340.801 661.988 340.904 661.792C341.016 661.587 341.072 661.339 341.072 661.05C341.072 660.761 341.007 660.523 340.876 660.336C340.755 660.14 340.591 659.981 340.386 659.86C340.181 659.739 339.947 659.655 339.686 659.608C339.425 659.552 339.163 659.524 338.902 659.524H338.006V662.604Z" fill="#9B9B9B"/>
<path d="M6.912 298.696C9.392 298.696 11.296 299.136 12.624 300.016C13.952 300.88 14.616 302.304 14.616 304.288C14.616 306.288 13.944 307.736 12.6 308.632C11.256 309.512 9.336 309.952 6.84 309.952H5.664V315.52H1.92V299.128C2.736 298.968 3.6 298.856 4.512 298.792C5.424 298.728 6.224 298.696 6.912 298.696ZM7.152 301.888C6.88 301.888 6.608 301.896 6.336 301.912C6.08 301.928 5.856 301.944 5.664 301.96V306.76H6.84C8.136 306.76 9.112 306.584 9.768 306.232C10.424 305.88 10.752 305.224 10.752 304.264C10.752 303.8 10.664 303.416 10.488 303.112C10.328 302.808 10.088 302.568 9.768 302.392C9.464 302.2 9.088 302.072 8.64 302.008C8.192 301.928 7.696 301.888 7.152 301.888ZM22.2373 298.696C24.7333 298.696 26.6453 299.144 27.9733 300.04C29.3013 300.92 29.9653 302.296 29.9653 304.168C29.9653 305.336 29.6933 306.288 29.1493 307.024C28.6213 307.744 27.8533 308.312 26.8453 308.728C27.1813 309.144 27.5333 309.624 27.9013 310.168C28.2693 310.696 28.6293 311.256 28.9813 311.848C29.3493 312.424 29.7013 313.032 30.0373 313.672C30.3733 314.296 30.6853 314.912 30.9733 315.52H26.7733C26.4693 314.976 26.1573 314.424 25.8373 313.864C25.5333 313.304 25.2133 312.76 24.8773 312.232C24.5573 311.704 24.2373 311.208 23.9173 310.744C23.5973 310.264 23.2773 309.832 22.9573 309.448H21.1093V315.52H17.3653V299.128C18.1813 298.968 19.0213 298.856 19.8853 298.792C20.7653 298.728 21.5493 298.696 22.2373 298.696ZM22.4533 301.888C22.1813 301.888 21.9333 301.896 21.7093 301.912C21.5013 301.928 21.3013 301.944 21.1093 301.96V306.472H22.1653C23.5733 306.472 24.5813 306.296 25.1893 305.944C25.7973 305.592 26.1013 304.992 26.1013 304.144C26.1013 303.328 25.7893 302.752 25.1653 302.416C24.5573 302.064 23.6533 301.888 22.4533 301.888ZM33.3731 298.888H37.1171V315.52H33.3731V298.888ZM45.3829 298.888C45.6709 299.416 45.9989 300.072 46.3669 300.856C46.7509 301.624 47.1429 302.464 47.5429 303.376C47.9589 304.272 48.3669 305.192 48.7669 306.136C49.1669 307.08 49.5429 307.968 49.8949 308.8C50.2469 307.968 50.6229 307.08 51.0229 306.136C51.4229 305.192 51.8229 304.272 52.2229 303.376C52.6389 302.464 53.0309 301.624 53.3989 300.856C53.7829 300.072 54.1189 299.416 54.4069 298.888H57.8149C57.9749 299.992 58.1189 301.232 58.2469 302.608C58.3909 303.968 58.5109 305.392 58.6069 306.88C58.7189 308.352 58.8149 309.832 58.8949 311.32C58.9909 312.808 59.0709 314.208 59.1349 315.52H55.4869C55.4389 313.904 55.3749 312.144 55.2949 310.24C55.2149 308.336 55.0949 306.416 54.9349 304.48C54.6469 305.152 54.3269 305.896 53.9749 306.712C53.6229 307.528 53.2709 308.344 52.9189 309.16C52.5829 309.976 52.2549 310.76 51.9349 311.512C51.6149 312.248 51.3429 312.88 51.1189 313.408H48.5029C48.2789 312.88 48.0069 312.248 47.6869 311.512C47.3669 310.76 47.0309 309.976 46.6789 309.16C46.3429 308.344 45.9989 307.528 45.6469 306.712C45.2949 305.896 44.9749 305.152 44.6869 304.48C44.5269 306.416 44.4069 308.336 44.3269 310.24C44.2469 312.144 44.1829 313.904 44.1349 315.52H40.4869C40.5509 314.208 40.6229 312.808 40.7029 311.32C40.7989 309.832 40.8949 308.352 40.9909 306.88C41.1029 305.392 41.2229 303.968 41.3509 302.608C41.4949 301.232 41.6469 299.992 41.8069 298.888H45.3829ZM73.6419 315.52C73.4659 314.944 73.2659 314.352 73.0419 313.744C72.8339 313.136 72.6259 312.528 72.4179 311.92H65.9379C65.7299 312.528 65.5139 313.136 65.2899 313.744C65.0819 314.352 64.8899 314.944 64.7139 315.52H60.8259C61.4499 313.728 62.0419 312.072 62.6019 310.552C63.1619 309.032 63.7059 307.6 64.2339 306.256C64.7779 304.912 65.3059 303.64 65.8179 302.44C66.3459 301.224 66.8899 300.04 67.4499 298.888H71.0259C71.5699 300.04 72.1059 301.224 72.6339 302.44C73.1619 303.64 73.6899 304.912 74.2179 306.256C74.7619 307.6 75.3139 309.032 75.8739 310.552C76.4339 312.072 77.0259 313.728 77.6499 315.52H73.6419ZM69.1539 302.656C69.0739 302.896 68.9539 303.224 68.7939 303.64C68.6339 304.056 68.4499 304.536 68.2419 305.08C68.0339 305.624 67.8019 306.224 67.5459 306.88C67.3059 307.536 67.0579 308.224 66.8019 308.944H71.5299C71.2739 308.224 71.0259 307.536 70.7859 306.88C70.5459 306.224 70.3139 305.624 70.0899 305.08C69.8819 304.536 69.6979 304.056 69.5379 303.64C69.3779 303.224 69.2499 302.896 69.1539 302.656ZM84.6748 298.696C87.1708 298.696 89.0828 299.144 90.4108 300.04C91.7388 300.92 92.4028 302.296 92.4028 304.168C92.4028 305.336 92.1308 306.288 91.5868 307.024C91.0588 307.744 90.2908 308.312 89.2828 308.728C89.6188 309.144 89.9708 309.624 90.3388 310.168C90.7068 310.696 91.0668 311.256 91.4188 311.848C91.7868 312.424 92.1388 313.032 92.4748 313.672C92.8108 314.296 93.1228 314.912 93.4108 315.52H89.2108C88.9068 314.976 88.5948 314.424 88.2748 313.864C87.9708 313.304 87.6508 312.76 87.3148 312.232C86.9948 311.704 86.6748 311.208 86.3548 310.744C86.0348 310.264 85.7148 309.832 85.3948 309.448H83.5468V315.52H79.8028V299.128C80.6188 298.968 81.4588 298.856 82.3228 298.792C83.2028 298.728 83.9868 298.696 84.6748 298.696ZM84.8908 301.888C84.6188 301.888 84.3708 301.896 84.1468 301.912C83.9388 301.928 83.7388 301.944 83.5468 301.96V306.472H84.6028C86.0108 306.472 87.0188 306.296 87.6268 305.944C88.2348 305.592 88.5388 304.992 88.5388 304.144C88.5388 303.328 88.2268 302.752 87.6028 302.416C86.9948 302.064 86.0908 301.888 84.8908 301.888ZM101.11 305.728C101.782 304.592 102.422 303.456 103.03 302.32C103.638 301.184 104.198 300.04 104.71 298.888H108.838C107.926 300.68 106.982 302.416 106.006 304.096C105.03 305.776 103.998 307.464 102.91 309.16V315.52H99.1658V309.208C98.0778 307.512 97.0378 305.816 96.0458 304.12C95.0698 302.424 94.1258 300.68 93.2138 298.888H97.5578C98.0698 300.04 98.6218 301.184 99.2138 302.32C99.8058 303.456 100.438 304.592 101.11 305.728Z" fill="#FF5938"/>
<path d="M52.2661 546.064C52.7941 546.064 53.2261 546.024 53.5621 545.944C53.9141 545.848 54.1941 545.728 54.4021 545.584C54.6101 545.424 54.7541 545.24 54.8341 545.032C54.9141 544.824 54.9541 544.592 54.9541 544.336C54.9541 543.792 54.6981 543.344 54.1861 542.992C53.6741 542.624 52.7941 542.232 51.5461 541.816C51.0021 541.624 50.4581 541.408 49.9141 541.168C49.3701 540.912 48.8821 540.6 48.4501 540.232C48.0181 539.848 47.6661 539.392 47.3941 538.864C47.1221 538.32 46.9861 537.664 46.9861 536.896C46.9861 536.128 47.1301 535.44 47.4181 534.832C47.7061 534.208 48.1141 533.68 48.6421 533.248C49.1701 532.816 49.8101 532.488 50.5621 532.264C51.3141 532.024 52.1621 531.904 53.1061 531.904C54.2261 531.904 55.1941 532.024 56.0101 532.264C56.8261 532.504 57.4981 532.768 58.0261 533.056L56.9461 536.008C56.4821 535.768 55.9621 535.56 55.3861 535.384C54.8261 535.192 54.1461 535.096 53.3461 535.096C52.4501 535.096 51.8021 535.224 51.4021 535.48C51.0181 535.72 50.8261 536.096 50.8261 536.608C50.8261 536.912 50.8981 537.168 51.0421 537.376C51.1861 537.584 51.3861 537.776 51.6421 537.952C51.9141 538.112 52.2181 538.264 52.5541 538.408C52.9061 538.536 53.2901 538.672 53.7061 538.816C54.5701 539.136 55.3221 539.456 55.9621 539.776C56.6021 540.08 57.1301 540.44 57.5461 540.856C57.9781 541.272 58.2981 541.76 58.5061 542.32C58.7141 542.88 58.8181 543.56 58.8181 544.36C58.8181 545.912 58.2741 547.12 57.1861 547.984C56.0981 548.832 54.4581 549.256 52.2661 549.256C51.5301 549.256 50.8661 549.208 50.2741 549.112C49.6821 549.032 49.1541 548.928 48.6901 548.8C48.2421 548.672 47.8501 548.536 47.5141 548.392C47.1941 548.248 46.9221 548.112 46.6981 547.984L47.7541 545.008C48.2501 545.28 48.8581 545.528 49.5781 545.752C50.3141 545.96 51.2101 546.064 52.2661 546.064ZM61.6988 548.92V532.288H72.9308V535.432H65.4428V538.696H72.0908V541.768H65.4428V545.776H73.4828V548.92H61.6988ZM83.8375 549.256C81.1335 549.256 79.0695 548.504 77.6455 547C76.2375 545.496 75.5335 543.36 75.5335 540.592C75.5335 539.216 75.7495 537.992 76.1815 536.92C76.6135 535.832 77.2055 534.92 77.9575 534.184C78.7095 533.432 79.6055 532.864 80.6455 532.48C81.6855 532.096 82.8135 531.904 84.0295 531.904C84.7335 531.904 85.3735 531.96 85.9495 532.072C86.5255 532.168 87.0295 532.288 87.4615 532.432C87.8935 532.56 88.2535 532.696 88.5415 532.84C88.8295 532.984 89.0375 533.096 89.1655 533.176L88.0855 536.2C87.5735 535.928 86.9735 535.696 86.2855 535.504C85.6135 535.312 84.8455 535.216 83.9815 535.216C83.4055 535.216 82.8375 535.312 82.2775 535.504C81.7335 535.696 81.2455 536.008 80.8135 536.44C80.3975 536.856 80.0615 537.4 79.8055 538.072C79.5495 538.744 79.4215 539.56 79.4215 540.52C79.4215 541.288 79.5015 542.008 79.6615 542.68C79.8375 543.336 80.1095 543.904 80.4775 544.384C80.8615 544.864 81.3575 545.248 81.9655 545.536C82.5735 545.808 83.3095 545.944 84.1735 545.944C84.7175 545.944 85.2055 545.912 85.6375 545.848C86.0695 545.784 86.4535 545.712 86.7895 545.632C87.1255 545.536 87.4215 545.432 87.6775 545.32C87.9335 545.208 88.1655 545.104 88.3735 545.008L89.4055 548.008C88.8775 548.328 88.1335 548.616 87.1735 548.872C86.2135 549.128 85.1015 549.256 83.8375 549.256ZM94.3506 540.592C94.3506 541.408 94.4466 542.144 94.6386 542.8C94.8466 543.456 95.1346 544.024 95.5026 544.504C95.8866 544.968 96.3506 545.328 96.8946 545.584C97.4386 545.84 98.0626 545.968 98.7666 545.968C99.4546 545.968 100.071 545.84 100.615 545.584C101.175 545.328 101.639 544.968 102.007 544.504C102.391 544.024 102.679 543.456 102.871 542.8C103.079 542.144 103.183 541.408 103.183 540.592C103.183 539.776 103.079 539.04 102.871 538.384C102.679 537.712 102.391 537.144 102.007 536.68C101.639 536.2 101.175 535.832 100.615 535.576C100.071 535.32 99.4546 535.192 98.7666 535.192C98.0626 535.192 97.4386 535.328 96.8946 535.6C96.3506 535.856 95.8866 536.224 95.5026 536.704C95.1346 537.168 94.8466 537.736 94.6386 538.408C94.4466 539.064 94.3506 539.792 94.3506 540.592ZM107.047 540.592C107.047 542.016 106.831 543.272 106.399 544.36C105.983 545.432 105.407 546.336 104.671 547.072C103.935 547.792 103.055 548.336 102.031 548.704C101.023 549.072 99.9346 549.256 98.7666 549.256C97.6306 549.256 96.5586 549.072 95.5506 548.704C94.5426 548.336 93.6626 547.792 92.9106 547.072C92.1586 546.336 91.5666 545.432 91.1346 544.36C90.7026 543.272 90.4866 542.016 90.4866 540.592C90.4866 539.168 90.7106 537.92 91.1586 536.848C91.6066 535.76 92.2066 534.848 92.9586 534.112C93.7266 533.376 94.6066 532.824 95.5986 532.456C96.6066 532.088 97.6626 531.904 98.7666 531.904C99.9026 531.904 100.975 532.088 101.983 532.456C102.991 532.824 103.871 533.376 104.623 534.112C105.375 534.848 105.967 535.76 106.399 536.848C106.831 537.92 107.047 539.168 107.047 540.592ZM121.328 548.92C120.256 547.016 119.096 545.136 117.848 543.28C116.6 541.424 115.272 539.672 113.864 538.024V548.92H110.168V532.288H113.216C113.744 532.816 114.328 533.464 114.968 534.232C115.608 535 116.256 535.824 116.912 536.704C117.584 537.568 118.248 538.472 118.904 539.416C119.56 540.344 120.176 541.24 120.752 542.104V532.288H124.472V548.92H121.328ZM132.052 545.872C132.228 545.888 132.428 545.904 132.652 545.92C132.892 545.92 133.172 545.92 133.492 545.92C135.364 545.92 136.748 545.448 137.644 544.504C138.556 543.56 139.012 542.256 139.012 540.592C139.012 538.848 138.58 537.528 137.716 536.632C136.852 535.736 135.484 535.288 133.612 535.288C133.356 535.288 133.092 535.296 132.82 535.312C132.548 535.312 132.292 535.328 132.052 535.36V545.872ZM142.876 540.592C142.876 542.032 142.652 543.288 142.204 544.36C141.756 545.432 141.116 546.32 140.284 547.024C139.468 547.728 138.468 548.256 137.284 548.608C136.1 548.96 134.772 549.136 133.3 549.136C132.628 549.136 131.844 549.104 130.948 549.04C130.052 548.992 129.172 548.88 128.308 548.704V532.504C129.172 532.344 130.068 532.24 130.996 532.192C131.94 532.128 132.748 532.096 133.42 532.096C134.844 532.096 136.132 532.256 137.284 532.576C138.452 532.896 139.452 533.4 140.284 534.088C141.116 534.776 141.756 535.656 142.204 536.728C142.652 537.8 142.876 539.088 142.876 540.592ZM156.53 548.92C156.354 548.344 156.154 547.752 155.93 547.144C155.722 546.536 155.514 545.928 155.306 545.32H148.826C148.618 545.928 148.402 546.536 148.178 547.144C147.97 547.752 147.778 548.344 147.602 548.92H143.714C144.338 547.128 144.93 545.472 145.49 543.952C146.05 542.432 146.594 541 147.122 539.656C147.666 538.312 148.194 537.04 148.706 535.84C149.234 534.624 149.778 533.44 150.338 532.288H153.914C154.458 533.44 154.994 534.624 155.522 535.84C156.05 537.04 156.578 538.312 157.106 539.656C157.65 541 158.202 542.432 158.762 543.952C159.322 545.472 159.914 547.128 160.538 548.92H156.53ZM152.042 536.056C151.962 536.296 151.842 536.624 151.682 537.04C151.522 537.456 151.338 537.936 151.13 538.48C150.922 539.024 150.69 539.624 150.434 540.28C150.194 540.936 149.946 541.624 149.69 542.344H154.418C154.162 541.624 153.914 540.936 153.674 540.28C153.434 539.624 153.202 539.024 152.978 538.48C152.77 537.936 152.586 537.456 152.426 537.04C152.266 536.624 152.138 536.296 152.042 536.056ZM167.563 532.096C170.059 532.096 171.971 532.544 173.299 533.44C174.627 534.32 175.291 535.696 175.291 537.568C175.291 538.736 175.019 539.688 174.475 540.424C173.947 541.144 173.179 541.712 172.171 542.128C172.507 542.544 172.859 543.024 173.227 543.568C173.595 544.096 173.955 544.656 174.307 545.248C174.675 545.824 175.027 546.432 175.363 547.072C175.699 547.696 176.011 548.312 176.299 548.92H172.099C171.795 548.376 171.483 547.824 171.163 547.264C170.859 546.704 170.539 546.16 170.203 545.632C169.883 545.104 169.563 544.608 169.243 544.144C168.923 543.664 168.603 543.232 168.283 542.848H166.435V548.92H162.691V532.528C163.507 532.368 164.347 532.256 165.211 532.192C166.091 532.128 166.875 532.096 167.563 532.096ZM167.779 535.288C167.507 535.288 167.259 535.296 167.035 535.312C166.827 535.328 166.627 535.344 166.435 535.36V539.872H167.491C168.899 539.872 169.907 539.696 170.515 539.344C171.123 538.992 171.427 538.392 171.427 537.544C171.427 536.728 171.115 536.152 170.491 535.816C169.883 535.464 168.979 535.288 167.779 535.288ZM183.998 539.128C184.67 537.992 185.31 536.856 185.918 535.72C186.526 534.584 187.086 533.44 187.598 532.288H191.726C190.814 534.08 189.87 535.816 188.894 537.496C187.918 539.176 186.886 540.864 185.798 542.56V548.92H182.054V542.608C180.966 540.912 179.926 539.216 178.934 537.52C177.958 535.824 177.014 534.08 176.102 532.288H180.446C180.958 533.44 181.51 534.584 182.102 535.72C182.694 536.856 183.326 537.992 183.998 539.128Z" fill="#7FC296"/>
<path d="M303.364 631.856C302.452 631.856 301.54 631.824 300.628 631.76C299.732 631.712 298.796 631.584 297.82 631.376V615.248C298.588 615.104 299.428 615 300.34 614.936C301.252 614.856 302.1 614.816 302.884 614.816C303.94 614.816 304.908 614.896 305.788 615.056C306.684 615.2 307.452 615.456 308.092 615.824C308.732 616.192 309.228 616.68 309.58 617.288C309.948 617.88 310.132 618.616 310.132 619.496C310.132 620.824 309.492 621.872 308.212 622.64C309.268 623.04 309.988 623.584 310.372 624.272C310.756 624.96 310.948 625.736 310.948 626.6C310.948 628.344 310.308 629.656 309.028 630.536C307.764 631.416 305.876 631.856 303.364 631.856ZM301.468 624.392V628.688C301.74 628.72 302.036 628.744 302.356 628.76C302.676 628.776 303.028 628.784 303.412 628.784C304.532 628.784 305.436 628.624 306.124 628.304C306.812 627.984 307.156 627.392 307.156 626.528C307.156 625.76 306.868 625.216 306.292 624.896C305.716 624.56 304.892 624.392 303.82 624.392H301.468ZM301.468 621.536H303.292C304.444 621.536 305.268 621.392 305.764 621.104C306.26 620.8 306.508 620.32 306.508 619.664C306.508 618.992 306.252 618.52 305.74 618.248C305.228 617.976 304.476 617.84 303.484 617.84C303.164 617.84 302.82 617.848 302.452 617.864C302.084 617.864 301.756 617.88 301.468 617.912V621.536ZM324.847 631.64C324.671 631.064 324.471 630.472 324.247 629.864C324.039 629.256 323.831 628.648 323.623 628.04H317.143C316.935 628.648 316.719 629.256 316.495 629.864C316.287 630.472 316.095 631.064 315.919 631.64H312.031C312.655 629.848 313.247 628.192 313.807 626.672C314.367 625.152 314.911 623.72 315.439 622.376C315.983 621.032 316.511 619.76 317.023 618.56C317.551 617.344 318.095 616.16 318.655 615.008H322.231C322.775 616.16 323.311 617.344 323.839 618.56C324.367 619.76 324.895 621.032 325.423 622.376C325.967 623.72 326.519 625.152 327.079 626.672C327.639 628.192 328.231 629.848 328.855 631.64H324.847ZM320.359 618.776C320.279 619.016 320.159 619.344 319.999 619.76C319.839 620.176 319.655 620.656 319.447 621.2C319.239 621.744 319.007 622.344 318.751 623C318.511 623.656 318.263 624.344 318.007 625.064H322.735C322.479 624.344 322.231 623.656 321.991 623C321.751 622.344 321.519 621.744 321.295 621.2C321.087 620.656 320.903 620.176 320.743 619.76C320.583 619.344 320.455 619.016 320.359 618.776ZM335.989 628.784C336.517 628.784 336.949 628.744 337.285 628.664C337.637 628.568 337.917 628.448 338.125 628.304C338.333 628.144 338.477 627.96 338.557 627.752C338.637 627.544 338.677 627.312 338.677 627.056C338.677 626.512 338.421 626.064 337.909 625.712C337.397 625.344 336.517 624.952 335.269 624.536C334.725 624.344 334.181 624.128 333.637 623.888C333.093 623.632 332.605 623.32 332.173 622.952C331.741 622.568 331.389 622.112 331.117 621.584C330.845 621.04 330.709 620.384 330.709 619.616C330.709 618.848 330.853 618.16 331.141 617.552C331.429 616.928 331.837 616.4 332.365 615.968C332.893 615.536 333.533 615.208 334.285 614.984C335.037 614.744 335.885 614.624 336.829 614.624C337.949 614.624 338.917 614.744 339.733 614.984C340.549 615.224 341.221 615.488 341.749 615.776L340.669 618.728C340.205 618.488 339.685 618.28 339.109 618.104C338.549 617.912 337.869 617.816 337.069 617.816C336.173 617.816 335.525 617.944 335.125 618.2C334.741 618.44 334.549 618.816 334.549 619.328C334.549 619.632 334.621 619.888 334.765 620.096C334.909 620.304 335.109 620.496 335.365 620.672C335.637 620.832 335.941 620.984 336.277 621.128C336.629 621.256 337.013 621.392 337.429 621.536C338.293 621.856 339.045 622.176 339.685 622.496C340.325 622.8 340.853 623.16 341.269 623.576C341.701 623.992 342.021 624.48 342.229 625.04C342.437 625.6 342.541 626.28 342.541 627.08C342.541 628.632 341.997 629.84 340.909 630.704C339.821 631.552 338.181 631.976 335.989 631.976C335.253 631.976 334.589 631.928 333.997 631.832C333.405 631.752 332.877 631.648 332.413 631.52C331.965 631.392 331.573 631.256 331.237 631.112C330.917 630.968 330.645 630.832 330.421 630.704L331.477 627.728C331.973 628 332.581 628.248 333.301 628.472C334.037 628.68 334.933 628.784 335.989 628.784ZM345.421 631.64V615.008H356.653V618.152H349.165V621.416H355.813V624.488H349.165V628.496H357.205V631.64H345.421Z" fill="#9B9B9B"/>
<path d="M246.4 308.58H128.48" stroke="#FF5938" stroke-width="3" stroke-miterlimit="10"/>
<path d="M390.39 363.76H317.92V549.92H210.4" stroke="#7FC296" stroke-width="3" stroke-miterlimit="10"/>
<path d="M534.38 363.76H461.91V632.64H390.39" stroke="#9B9B9B" stroke-width="3" stroke-miterlimit="10"/>
<path opacity="0.2" d="M691.71 501.65H157.07V54.6001" stroke="#9B9B9B" stroke-width="5" stroke-miterlimit="10"/>
<path d="M717.434 494.824L721.178 489.064H726.722L720.242 498.172C721.682 499.972 722.99 501.724 724.166 503.428C725.342 505.132 726.278 506.656 726.974 508H721.214C721.022 507.64 720.782 507.196 720.494 506.668C720.206 506.116 719.882 505.552 719.522 504.976C719.162 504.376 718.778 503.788 718.37 503.212C717.986 502.612 717.602 502.072 717.218 501.592C716.858 502.048 716.486 502.552 716.102 503.104C715.742 503.656 715.394 504.22 715.058 504.796C714.722 505.348 714.386 505.9 714.05 506.452C713.738 507.004 713.462 507.52 713.222 508H707.75C708.038 507.4 708.434 506.692 708.938 505.876C709.442 505.06 709.982 504.22 710.558 503.356C711.158 502.468 711.782 501.592 712.43 500.728C713.078 499.84 713.714 499.012 714.338 498.244C713.258 496.732 712.178 495.208 711.098 493.672C710.018 492.112 708.95 490.576 707.894 489.064H713.69L717.434 494.824Z" fill="#454545"/>
<path d="M167.562 15.064C166.482 18.712 165.354 22.132 164.178 25.324C163.002 28.516 161.718 31.612 160.326 34.612C159.822 35.692 159.318 36.604 158.814 37.348C158.31 38.116 157.758 38.74 157.158 39.22C156.558 39.724 155.874 40.084 155.106 40.3C154.362 40.54 153.486 40.66 152.478 40.66C151.638 40.66 150.858 40.576 150.138 40.408C149.442 40.264 148.866 40.096 148.41 39.904L149.346 35.62C149.898 35.812 150.39 35.944 150.822 36.016C151.254 36.088 151.71 36.124 152.19 36.124C153.15 36.124 153.882 35.86 154.386 35.332C154.914 34.828 155.358 34.12 155.718 33.208C154.494 30.808 153.27 28.12 152.046 25.144C150.822 22.144 149.67 18.784 148.59 15.064H154.278C154.518 16 154.794 17.02 155.106 18.124C155.442 19.204 155.79 20.308 156.15 21.436C156.51 22.54 156.87 23.62 157.23 24.676C157.614 25.732 157.974 26.692 158.31 27.556C158.622 26.692 158.946 25.732 159.282 24.676C159.618 23.62 159.942 22.54 160.254 21.436C160.59 20.308 160.902 19.204 161.19 18.124C161.502 17.02 161.778 16 162.018 15.064H167.562Z" fill="#454545"/>
</svg>
