<?xml version="1.0" encoding="UTF-8"?>
<svg id="Final_versions" data-name="Final versions" xmlns="http://www.w3.org/2000/svg" viewBox="0 0 1920 1080">
  <defs>
    <style>
      .cls-1 {
        fill: #181818;
      }

      .cls-2 {
        fill: #ff5938;
      }
    </style>
  </defs>
  <g id="vertical">
    <g>
      <g>
        <path class="cls-1" d="m548.13,795.78c-2.84.85-6.12,1.67-9.81,2.45-3.7.78-7.57,1.45-11.62,2.02-4.05.57-8.18,1.03-12.37,1.39-4.19.35-8.21.53-12.05.53-9.24,0-17.49-1.35-24.74-4.05-7.25-2.7-13.37-6.58-18.34-11.63-4.98-5.05-8.78-11.17-11.41-18.35-2.63-7.19-3.95-15.26-3.95-24.23s1.14-17.32,3.41-24.65c2.28-7.33,5.55-13.55,9.81-18.68,4.26-5.12,9.49-9.03,15.68-11.74,6.19-2.7,13.26-4.06,21.23-4.06,4.41,0,8.35.43,11.84,1.28,3.48.85,7,2.06,10.56,3.62v-50.63l31.78-5.12v161.84Zm-71.97-53.35c0,9.82,2.21,17.71,6.63,23.68,4.42,5.98,10.97,8.96,19.67,8.96,2.85,0,5.48-.11,7.91-.32,2.42-.21,4.42-.46,5.99-.75v-57.82c-2-1.28-4.6-2.35-7.8-3.2s-6.45-1.28-9.73-1.28c-15.11,0-22.66,10.24-22.66,30.72Z"/>
        <path class="cls-1" d="m572.69,744.14c0-9.95,1.53-18.66,4.59-26.12,3.06-7.46,7.08-13.68,12.06-18.66,4.98-4.98,10.71-8.74,17.18-11.3,6.47-2.56,13.13-3.84,19.95-3.84,15.94,0,28.53,4.87,37.77,14.61,9.25,9.74,13.87,24.07,13.87,42.98,0,1.85-.07,3.88-.21,6.08-.14,2.21-.29,4.16-.43,5.86h-72.08c.71,6.54,3.77,11.72,9.18,15.56,5.41,3.84,12.67,5.75,21.78,5.75,5.84,0,11.56-.53,17.19-1.6,5.62-1.07,10.21-2.38,13.77-3.95l4.26,25.8c-1.71.85-3.99,1.71-6.83,2.56-2.85.85-6.02,1.6-9.5,2.24-3.49.64-7.23,1.17-11.21,1.6s-7.97.64-11.96.64c-10.11,0-18.9-1.49-26.38-4.48-7.47-2.99-13.67-7.07-18.58-12.26-4.91-5.19-8.55-11.34-10.89-18.44-2.35-7.11-3.52-14.79-3.52-23.03Zm74.77-12.07c-.14-2.72-.6-5.37-1.39-7.94-.78-2.58-1.99-4.87-3.63-6.87-1.64-2-3.7-3.65-6.19-4.94-2.49-1.29-5.59-1.93-9.29-1.93s-6.62.61-9.18,1.83c-2.56,1.22-4.7,2.83-6.4,4.83-1.71,2-3.03,4.33-3.95,6.98s-1.6,5.33-2.03,8.05h42.06Z"/>
        <path class="cls-1" d="m743.04,684.22c9.38,0,17.21,1.07,23.46,3.2,6.26,2.14,11.27,5.19,15.04,9.18,3.77,3.98,6.43,8.82,8,14.51,1.57,5.69,2.35,12.02,2.35,18.99v66.15c-4.55,1-10.88,2.17-18.99,3.52-8.11,1.35-17.92,2.02-29.44,2.02-7.26,0-13.83-.64-19.73-1.92-5.9-1.28-10.99-3.38-15.26-6.3-4.27-2.91-7.54-6.72-9.81-11.42-2.28-4.7-3.41-10.46-3.41-17.29s1.31-12.09,3.95-16.65c2.63-4.55,6.15-8.18,10.56-10.89,4.41-2.7,9.46-4.66,15.16-5.87,5.69-1.21,11.6-1.82,17.72-1.82,4.12,0,7.79.18,10.99.53,3.2.36,5.8.82,7.79,1.38v-3c0-5.42-1.64-9.78-4.91-13.06-3.27-3.28-8.97-4.93-17.07-4.93-5.41,0-10.75.39-16.01,1.17-5.27.78-9.82,1.89-13.66,3.31l-4.05-25.5c1.85-.57,4.16-1.17,6.93-1.81,2.77-.64,5.79-1.21,9.07-1.71,3.27-.5,6.72-.92,10.35-1.28,3.62-.36,7.29-.53,10.99-.53Zm2.58,93.09c3.13,0,6.12-.07,8.96-.21s5.12-.36,6.83-.64v-24.22c-1.28-.28-3.2-.57-5.77-.85-2.56-.28-4.91-.43-7.04-.43-2.99,0-5.8.18-8.43.54-2.63.36-4.95,1.04-6.94,2.04-1.99,1-3.56,2.36-4.7,4.07-1.14,1.71-1.71,3.86-1.71,6.43,0,5,1.67,8.47,5.01,10.4,3.34,1.93,7.94,2.89,13.77,2.89Z"/>
        <path class="cls-1" d="m865.58,801.43c-9.26-.14-16.77-1.14-22.54-2.98-5.77-1.85-10.33-4.44-13.68-7.78-3.35-3.34-5.63-7.39-6.84-12.15-1.21-4.76-1.82-10.12-1.82-16.09v-123.37l31.78-5.12v122.14c0,2.84.21,5.4.64,7.68.43,2.27,1.25,4.19,2.46,5.75,1.22,1.56,2.96,2.84,5.25,3.83,2.28,1,5.36,1.64,9.22,1.92l-4.48,26.17Z"/>
        <path class="cls-1" d="m888.13,687.21v112.16h31.78v-112.16h-31.78Z"/>
        <path class="cls-1" d="m922.9,654.78c0,5.83-1.89,10.43-5.65,13.77-3.77,3.35-8.21,5.01-13.33,5.01s-9.57-1.67-13.34-5.01c-3.77-3.34-5.65-7.94-5.65-13.77s1.88-10.43,5.65-13.77c3.77-3.35,8.21-5.02,13.34-5.02s9.56,1.67,13.33,5.02c3.76,3.34,5.65,7.93,5.65,13.77Z"/>
        <path class="cls-1" d="m944.37,743.29c0-8.1,1.32-15.75,3.96-22.93,2.64-7.18,6.45-13.43,11.44-18.77,4.99-5.33,11.05-9.56,18.18-12.69,7.13-3.13,15.26-4.69,24.39-4.69,5.99,0,11.48.53,16.47,1.6,4.99,1.07,9.84,2.6,14.55,4.59l-6.61,25.37c-3.01-1.14-6.3-2.13-9.88-2.99-3.58-.85-7.59-1.28-12.02-1.28-9.45,0-16.5,2.91-21.15,8.74-4.65,5.83-6.98,13.51-6.98,23.03,0,10.09,2.18,17.92,6.54,23.46,4.36,5.55,11.97,8.32,22.83,8.32,3.86,0,8-.35,12.43-1.07,4.43-.71,8.51-1.85,12.22-3.41l4.48,26.01c-3.71,1.57-8.34,2.91-13.89,4.05-5.56,1.14-11.69,1.71-18.38,1.71-10.26,0-19.1-1.53-26.51-4.58-7.41-3.06-13.51-7.21-18.28-12.47-4.77-5.26-8.27-11.48-10.47-18.66-2.21-7.18-3.31-14.96-3.31-23.35Z"/>
        <path class="cls-1" d="m1091.24,654.78c0,5.84-1.88,10.43-5.65,13.77-3.77,3.34-8.21,5.01-13.33,5.01s-9.57-1.67-13.33-5.01c-3.77-3.34-5.65-7.94-5.65-13.77s1.88-10.42,5.65-13.77c3.77-3.34,8.21-5.02,13.33-5.02s9.56,1.67,13.33,5.02c3.77,3.34,5.65,7.93,5.65,13.77Zm-2.99,144.59h-31.78v-112.16h31.78v112.16Z"/>
        <path class="cls-1" d="m1223.19,743.08c0,8.81-1.28,16.89-3.85,24.2-2.56,7.32-6.27,13.58-11.11,18.77-4.84,5.19-10.65,9.21-17.41,12.05-6.77,2.84-14.35,4.26-22.76,4.26s-15.78-1.42-22.55-4.26c-6.77-2.84-12.57-6.86-17.42-12.05-4.84-5.19-8.62-11.44-11.32-18.77-2.71-7.32-4.06-15.39-4.06-24.2s1.39-16.85,4.17-24.1c2.78-7.25,6.62-13.44,11.54-18.55,4.91-5.12,10.75-9.1,17.52-11.94,6.77-2.84,14.14-4.26,22.12-4.26s15.56,1.42,22.33,4.26c6.76,2.84,12.57,6.83,17.41,11.94,4.84,5.12,8.62,11.3,11.33,18.55,2.7,7.25,4.06,15.28,4.06,24.1Zm-32.34,0c0-9.81-1.97-17.52-5.91-23.14-3.94-5.62-9.57-8.43-16.88-8.43s-12.97,2.81-16.99,8.43c-4.01,5.62-6.02,13.33-6.02,23.14s2.01,17.59,6.02,23.35c4.01,5.76,9.67,8.64,16.99,8.64s12.93-2.88,16.88-8.64c3.94-5.76,5.91-13.54,5.91-23.35Z"/>
        <path class="cls-1" d="m1343.36,795.59c-5.4,1.57-12.37,3.02-20.9,4.37-8.53,1.35-17.49,2.02-26.87,2.02s-17.45-1.28-23.78-3.84c-6.33-2.56-11.34-6.15-15.04-10.77-3.7-4.62-6.33-10.13-7.89-16.53-1.57-6.4-2.35-13.44-2.35-21.12v-62.51h31.78v58.66c0,10.24,1.35,17.63,4.05,22.18,2.7,4.55,7.75,6.83,15.14,6.83,2.28,0,4.69-.11,7.25-.32s4.83-.46,6.83-.75v-86.6h31.78v108.38Z"/>
        <path class="cls-1" d="m1405.38,776.57c5.82,0,9.94-.57,12.36-1.71,2.41-1.14,3.62-3.34,3.62-6.61,0-2.56-1.56-4.8-4.67-6.71-3.11-1.92-7.87-4.08-14.26-6.5-4.97-1.84-9.48-3.76-13.53-5.75-4.05-1.99-7.5-4.36-10.35-7.14-2.85-2.77-5.06-6.08-6.62-9.92-1.57-3.84-2.35-8.46-2.35-13.87,0-10.53,3.91-18.85,11.73-24.96,7.82-6.12,18.55-9.18,32.2-9.18,6.82,0,13.36.6,19.62,1.81,6.25,1.21,11.23,2.53,14.93,3.95l-5.55,24.75c-3.69-1.28-7.7-2.42-12.03-3.41-4.33-.99-9.19-1.49-14.58-1.49-9.94,0-14.9,2.77-14.9,8.32,0,1.28.21,2.42.64,3.41.42,1,1.27,1.96,2.55,2.88,1.27.92,3.01,1.92,5.21,2.98,2.2,1.06,5.01,2.23,8.42,3.5,6.96,2.55,12.71,5.06,17.26,7.54,4.54,2.48,8.13,5.18,10.76,8.09,2.63,2.92,4.47,6.15,5.53,9.71,1.06,3.56,1.6,7.68,1.6,12.38,0,11.1-4.16,19.49-12.47,25.18-8.32,5.69-20.08,8.54-35.29,8.54-9.95,0-18.23-.85-24.84-2.56-6.61-1.71-11.19-3.13-13.75-4.26l5.33-25.8c5.4,2.13,10.94,3.8,16.62,5.01,5.68,1.21,11.29,1.81,16.83,1.81Z"/>
      </g>
      <g>
        <path class="cls-2" d="m940.84,406.9c3.2,0,6.36.42,9.5,1.25,3.13.83,5.67,1.88,7.62,3.13v56.57c-1.53.28-3.48.52-5.85.73-2.37.21-4.94.31-7.72.31-8.49,0-14.89-2.92-19.2-8.77-4.32-5.85-6.47-13.57-6.47-23.17,0-20.04,7.37-30.06,22.13-30.06Z"/>
        <path class="cls-2" d="m1119.17,403.7l-23.24-98.78c-3.75-15.93-16.19-28.37-32.12-32.12l-98.78-23.24c-14.55-3.42-29.83.92-40.39,11.49l-135.54,135.54c-16.85,16.85-16.85,44.17,0,61.02l122.02,122.02c16.85,16.85,44.17,16.85,61.02,0l135.54-135.54c10.57-10.57,14.91-25.85,11.49-40.39Zm-51.38-102.77c4.75,4.75,4.75,12.46,0,17.21-4.75,4.75-12.46,4.75-17.21,0-4.75-4.75-4.75-12.46,0-17.21,4.75-4.75,12.46-4.75,17.21,0Zm-88.34,190.61c-3.62.77-7.41,1.43-11.38,1.98-3.97.55-8,1.01-12.11,1.36-4.1.35-8.03.52-11.79.52-9.05,0-17.12-1.32-24.22-3.97-7.1-2.64-13.08-6.43-17.95-11.38-4.87-4.94-8.6-10.92-11.17-17.95-2.58-7.03-3.86-14.92-3.86-23.69,0-8.9,1.11-16.94,3.34-24.11,2.23-7.17,5.43-13.25,9.6-18.27,4.18-5.01,9.29-8.84,15.34-11.48,6.05-2.64,12.98-3.97,20.77-3.97,4.32,0,8.17.42,11.59,1.25,3.41.83,6.85,2.02,10.33,3.55v-49.68s31.1-5.01,31.1-5.01v158.43c-2.79.84-5.98,1.64-9.6,2.4Z"/>
      </g>
    </g>
  </g>
</svg>