<svg width="858" height="759" viewBox="0 0 858 759" fill="none" xmlns="http://www.w3.org/2000/svg">
<path d="M275.465 479C271.752 466.847 267.532 454.357 262.806 441.529C258.418 428.701 254.029 415.873 249.64 403.044H112.921C108.532 415.873 103.975 428.701 99.2485 441.529C94.86 454.357 90.809 466.847 87.0956 479H5.0637C18.2293 441.191 30.7198 406.252 42.5351 374.181C54.3504 342.111 65.8281 311.898 76.9682 283.541C88.446 255.184 99.5861 228.347 110.389 203.028C121.529 177.372 133.007 152.391 144.822 128.086H220.271C231.749 152.391 243.058 177.372 254.198 203.028C265.338 228.347 276.478 255.184 287.618 283.541C299.096 311.898 310.742 342.111 322.558 374.181C334.373 406.252 346.863 441.191 360.029 479H275.465ZM180.774 207.586C179.086 212.649 176.554 219.57 173.179 228.347C169.803 237.124 165.921 247.251 161.532 258.729C157.143 270.207 152.249 282.866 146.847 296.707C141.784 310.548 136.551 325.064 131.15 340.255H230.905C225.503 325.064 220.271 310.548 215.207 296.707C210.144 282.866 205.249 270.207 200.523 258.729C196.134 247.251 192.252 237.124 188.876 228.347C185.5 219.57 182.8 212.649 180.774 207.586ZM496.729 426.338C504.156 426.338 511.245 426.169 517.997 425.831C524.748 425.494 530.15 424.987 534.201 424.312V367.092C531.162 366.417 526.605 365.742 520.529 365.067C514.452 364.392 508.882 364.054 503.818 364.054C496.729 364.054 489.978 364.56 483.564 365.573C477.487 366.248 472.086 367.767 467.36 370.13C462.634 372.494 458.92 375.701 456.22 379.751C453.519 383.802 452.169 388.866 452.169 394.943C452.169 406.758 456.051 415.029 463.815 419.755C471.917 424.143 482.888 426.338 496.729 426.338ZM490.653 205.56C512.933 205.56 531.5 208.092 546.353 213.156C561.207 218.219 573.022 225.477 581.799 234.93C590.914 244.382 597.328 255.86 601.041 269.363C604.755 282.866 606.612 297.888 606.612 314.43V471.404C595.809 473.768 580.787 476.468 561.545 479.506C542.303 482.882 519.009 484.57 491.666 484.57C474.449 484.57 458.751 483.051 444.573 480.013C430.732 476.975 418.748 472.08 408.621 465.328C398.493 458.239 390.729 449.124 385.328 437.984C379.927 426.844 377.226 413.172 377.226 396.968C377.226 381.439 380.264 368.274 386.341 357.471C392.755 346.669 401.194 338.06 411.659 331.646C422.124 325.232 434.108 320.675 447.611 317.974C461.115 314.936 475.124 313.417 489.64 313.417C499.43 313.417 508.038 313.923 515.465 314.936C523.229 315.611 529.474 316.624 534.201 317.974V310.885C534.201 298.057 530.318 287.761 522.554 279.997C514.79 272.232 501.287 268.35 482.044 268.35C469.216 268.35 456.557 269.363 444.067 271.388C431.576 273.076 420.774 275.608 411.659 278.984L402.038 218.219C406.427 216.869 411.828 215.519 418.242 214.168C424.993 212.481 432.251 211.13 440.016 210.118C447.78 208.767 455.882 207.754 464.322 207.079C473.099 206.067 481.876 205.56 490.653 205.56Z" fill="#9B9B9B"/>
<path d="M575.665 512.278H648.541L632.559 469.128C629.576 461.67 626.486 453.253 623.29 443.877C620.094 434.288 616.684 423.847 613.062 412.554H612.422C610.718 418.094 609.013 423.314 607.308 428.215C605.604 433.116 603.899 437.804 602.194 442.279C600.703 446.754 599.105 451.229 597.4 455.704C595.908 459.965 594.204 464.44 592.286 469.128L575.665 512.278ZM602.514 386.983H623.929L701.919 588.35H677.627L655.573 530.817H569.272L547.218 588.35H523.246L602.514 386.983ZM727.811 451.548C737.826 446.221 746.989 442.386 755.3 440.042C763.823 437.485 773.199 436.206 783.427 436.206C791.098 436.206 798.13 437.165 804.523 439.083C811.128 440.788 816.775 443.771 821.463 448.033C826.364 452.294 830.093 457.941 832.65 464.973C835.42 471.792 836.805 480.315 836.805 490.543V588.35H819.545L816.029 570.131H815.39C808.997 577.589 801.646 583.023 793.336 586.432C785.238 589.629 776.289 591.227 766.487 591.227C759.455 591.227 752.849 590.268 746.67 588.35C740.703 586.219 735.483 583.236 731.008 579.4C726.746 575.565 723.337 570.984 720.78 565.656C718.436 560.329 717.264 554.363 717.264 547.757C717.264 539.873 718.862 532.948 722.058 526.981C725.254 521.015 729.729 516.007 735.483 511.959C741.449 507.91 748.481 504.927 756.578 503.009C764.888 500.878 774.051 499.813 784.066 499.813H814.431V488.626C814.431 475.84 811.448 466.997 805.482 462.096C799.515 456.982 791.631 454.425 781.829 454.425C775.862 454.425 769.044 455.384 761.373 457.302C753.915 459.006 745.604 462.416 736.441 467.53L727.811 451.548ZM814.431 516.114L789.5 516.433C771.814 516.86 759.242 519.949 751.784 525.703C744.326 531.456 740.597 538.488 740.597 546.798C740.597 556.813 743.686 563.845 749.866 567.894C756.045 571.942 763.397 573.967 771.92 573.967C779.378 573.967 786.943 572.262 794.614 568.853C802.285 565.23 808.891 559.37 814.431 551.273V516.114Z" fill="#FF5938"/>
</svg>
