<?xml version="1.0" encoding="UTF-8"?>
<svg id="Layer_1" data-name="Layer 1" xmlns="http://www.w3.org/2000/svg" viewBox="0 0 460.93 450.43">
  <defs>
    <style>
      .cls-1 {
        fill: #902e7b;
      }

      .cls-2 {
        fill: #fff;
      }

      .cls-3 {
        stroke: #902e7b;
      }

      .cls-3, .cls-4, .cls-5 {
        fill: none;
        stroke-linecap: round;
        stroke-linejoin: round;
        stroke-width: 5px;
      }

      .cls-4 {
        stroke: #fff;
      }

      .cls-5 {
        stroke: #4d1942;
      }
    </style>
  </defs>
  <g>
    <g>
      <line class="cls-5" x1="46.39" y1="56.88" x2="407.39" y2="56.88"/>
      <line class="cls-5" x1="46.39" y1="403.18" x2="213.14" y2="403.18"/>
      <line class="cls-5" x1="48.95" y1="102.34" x2="408.62" y2="102.34"/>
      <line class="cls-3" x1="316.12" y1="80.04" x2="344.21" y2="80.04"/>
      <line class="cls-3" x1="266.96" y1="80.04" x2="295.06" y2="80.04"/>
      <line class="cls-5" x1="46.39" y1="398.02" x2="46.39" y2="224.17"/>
      <line class="cls-3" x1="365.27" y1="80.04" x2="393.36" y2="80.04"/>
      <line class="cls-5" x1="408.86" y1="191.57" x2="408.86" y2="58.94"/>
      <line class="cls-5" x1="402.66" y1="419.2" x2="363.9" y2="371.19"/>
      <g>
        <circle class="cls-1" cx="332.59" cy="338.97" r="44.8"/>
        <path class="cls-4" d="M317.63,361c-10.85-5.43-15.24-18.64-9.81-29.49"/>
      </g>
    </g>
    <path class="cls-4" d="M236.38,172.01c22.82,1.86,42.68,18.45,47.64,42"/>
  </g>
  <g>
    <rect class="cls-1" x="65.79" y="125.26" width="141.51" height="68.25" rx="23.4" ry="23.4"/>
    <g>
      <path class="cls-2" d="M110.03,148.54c-1.3,0-2.46.25-3.46.76-1,.51-1.85,1.23-2.53,2.19-.68.95-1.2,2.1-1.55,3.45-.35,1.35-.53,2.86-.53,4.55,0,2.27.28,4.21.85,5.81.56,1.6,1.44,2.83,2.63,3.67,1.19.84,2.72,1.26,4.59,1.26,1.3,0,2.61-.15,3.92-.44,1.31-.29,2.74-.71,4.27-1.25v5.71c-1.42.59-2.82,1.01-4.2,1.26-1.38.26-2.92.38-4.64.38-3.31,0-6.03-.68-8.16-2.05-2.13-1.37-3.71-3.29-4.74-5.76-1.03-2.47-1.54-5.35-1.54-8.65,0-2.43.33-4.66.99-6.68.66-2.02,1.63-3.77,2.9-5.25,1.27-1.48,2.85-2.62,4.72-3.43,1.88-.81,4.03-1.21,6.46-1.21,1.6,0,3.2.2,4.8.6,1.6.4,3.14.96,4.6,1.66l-2.2,5.54c-1.2-.57-2.41-1.07-3.63-1.49-1.22-.42-2.41-.64-3.58-.64Z"/>
      <path class="cls-2" d="M137.46,175.45h-6.81v-26.46h-8.72v-5.67h24.26v5.67h-8.72v26.46Z"/>
      <path class="cls-2" d="M170.79,175.45l-2.33-7.65h-11.71l-2.33,7.65h-7.34l11.34-32.26h8.33l11.38,32.26h-7.34ZM166.84,162.09l-2.33-7.47c-.15-.5-.34-1.14-.58-1.92-.24-.78-.48-1.58-.73-2.4-.24-.81-.44-1.52-.58-2.12-.15.6-.35,1.34-.6,2.23-.26.89-.5,1.73-.74,2.52-.23.79-.4,1.35-.51,1.69l-2.31,7.47h8.37Z"/>
    </g>
  </g>
</svg>