<?xml version="1.0" encoding="UTF-8"?>
<svg id="Layer_1" data-name="Layer 1" xmlns="http://www.w3.org/2000/svg" viewBox="0 0 460.93 450.43">
  <defs>
    <style>
      .cls-1 {
        fill: #902e7b;
      }

      .cls-2 {
        fill: #4d1942;
      }

      .cls-3 {
        stroke: #4d1942;
        stroke-linejoin: round;
      }

      .cls-3, .cls-4 {
        fill: none;
        stroke-linecap: round;
        stroke-width: 5px;
      }

      .cls-4 {
        stroke: #902e7b;
        stroke-miterlimit: 10;
      }
    </style>
  </defs>
  <g>
    <path class="cls-2" d="m411.78,34.42s-4.56-3.44-7.87-5.2c-.71-.38-1.81-1.14-3.83-.87s-3.62,1.99-3.62,1.99c0,0-2.22,2.34-2.14,6.17.08,3.83,2.6,5.56,2.6,5.56,0,0,7.35,4.87,11.68,6.74,4.33,1.86,7.21,2.89,8.26,3.11,1.05.22,1.48.31,1.48.31l2.31-.06s5.56-.05,5.13-2.25,3.5-5.56-.37-8.22-13.63-7.28-13.63-7.28Z"/>
    <path class="cls-2" d="m357.41,384.02c-1.77.02-3.2,1.43-3.27,3.19-.08,2.26-.22,5.07-.44,6.09,0,0-.32.22-.51.77-.19.55-1.19,1.89-2.7,3.93-1.53,2.06-.58,4.37-.41,4.64.08.13.72,1.36,2.3,2.04,0,0,1.03.78,1.89,1.02.69.2,1.27.38,1.46.44.05.02.09.03.15.04.3.06,1.44.28,1.91.39.55.13,3.11.22,4.13.1,1.03-.11,2.75-.77,2.75-.77,0,0,1.37-.44,3.06-1.99,1.48-1.36,1.66-3.08,1.68-3.48,0-.06,0-.11,0-.17-.02-.31-.15-1.37-.76-2.41-.72-1.24-1.23-1.47-1.73-2.4-.51-.93-.62-.8-.82-1.79,0,0-.05-.18-.15-.32-.17-.21-.23-.48-.25-.75-.05-.62-.15-3.25-.24-5.45-.07-1.8-1.56-3.21-3.36-3.19l-4.69.06Z"/>
    <path class="cls-1" d="m362.11,380.21c1.46-.09,2.6-1.3,2.6-2.76l.59-257.92s-.31-3.97,1.72-6.55,3.88-2.3,3.88-2.3c0,0,.76-.04,2.75,1.73.22.2,5.97,6.89,14.13,6.33,0,0,8.23-.41,13.01-7.5,4.78-7.09,9.39-18.68,9.39-18.68l6.73-15.92,3.01-6.74,4.64-9.13,2.19-4.39s1.28.54,1.68-.26c.4-.79,5.76-11.99,5.76-11.99,0,0,.59-.87-.15-1.58-.74-.71-1.94-1.53-1.94-1.53l-1.43-.97.71-1.63s.26-.81-.51-1.79-1.2-1.54-2.55-2.65c-1.35-1.11-5.46-4.03-5.46-4.03,0,0-2.39-1.88-5.66-.66-3.27,1.22-4.23,5.05-4.23,5.05,0,0-1.49,4.53,1.11,7.06s12.71,8.67,9.19,10.16l-2.65,1.81-7.65,15.46-5.51,10.77-10.15,20.36s-2.74,5.2-4.74,5.71c0,0-.22.27-.97,0-.75-.27-3.06-1.84-3.06-1.84,0,0-2.79-2.33-6.58-4.18-6.45-3.15-9.77-3.28-14.82-2,0,0-10.32,3.14-12.36,14.64l-.42,7.47.49,257.95c0,1.59,1.33,2.71,2.92,2.61l4.33-.12Z"/>
  </g>
  <g>
    <path class="cls-2" d="m221.1,317.36c8.11-3.57,15.99-6.95,21.59-9.18,23.3-9.26,43.84-9.12,38.41-26.03-6.39-19.92-34.32-77.37-34.32-77.37l-7.5-13.97c-1.97-3.67.48-8.16,4.64-8.48l2.26-.17c2.21-.17,4.32.94,5.43,2.85,9.56,16.51,53.77,92.99,56.04,99.18,2.64,7.21,22.19,38.3-6.5,34.75-28.69-3.56-44.23.33-56.56,4.4-3.82,1.26-10.58,3.67-18.07,6.39l-5.42-12.37Z"/>
    <path class="cls-2" d="m209.75,133.11l-8.56-17.87s-4.85-15.66,11.62-16.54,20.44-1.85,21.4-1.9,5.05,1.86,5.29,3.62-3.67,4.17-8.13,4.68-24.32,1.06-19.3,9.5c2.37,3.98,5.34,8.93,7.83,13.05,2.25,3.72-.28,8.49-4.62,8.73h0c-2.33.13-4.51-1.16-5.52-3.27Z"/>
    <path class="cls-1" d="m132.77,130.41l-8.36-19.6s-4.43-16.85,13.11-17.02c17.53-.17,21.79-1.02,22.81-1.02s5.28,2.21,5.45,4.09-4.09,4.26-8.85,4.6-25.87,0-20.94,9.19c2.42,4.5,5.49,10.15,8,14.74,2.08,3.82-.65,8.47-5,8.52h-.84c-2.33.04-4.46-1.35-5.37-3.49Z"/>
    <path class="cls-1" d="m169.3,183.95c2.21-.07,4.27,1.13,5.3,3.09,9.17,17.56,52.87,101.41,55,108.11,2.47,7.77,21.79,41.7-8.51,36.6s-46.98-1.7-60.26,2.04c-13.28,3.74-52.3,16.46-52.3,16.46,0,0-1.08-4.11-1.59-5.7s-2.49-5.88-2.49-5.88c0,0,36.22-14.52,55.07-21.07,25.17-8.75,46.98-7.65,42-25.86-5.86-21.44-32.85-83.74-32.85-83.74l-7.56-15.68c-1.81-3.75.84-8.13,5.01-8.27l3.19-.1Z"/>
    <path class="cls-1" d="m68.96,336.43c10.75,0,19.49,10.46,19.49,23.32s-8.74,23.32-19.49,23.32-19.49-10.46-19.49-23.32,8.74-23.32,19.49-23.32m0-16c-19.6,0-35.49,17.6-35.49,39.32s15.89,39.32,35.49,39.32,35.49-17.6,35.49-39.32-15.89-39.32-35.49-39.32h0Z"/>
    <path class="cls-1" d="m202.45,349.62c10.75,0,19.49,10.46,19.49,23.32s-8.74,23.32-19.49,23.32-19.49-10.46-19.49-23.32,8.74-23.32,19.49-23.32m0-16c-19.6,0-35.49,17.6-35.49,39.32s15.89,39.32,35.49,39.32,35.49-17.6,35.49-39.32-15.89-39.32-35.49-39.32h0Z"/>
    <path class="cls-2" d="m284.49,338.36c10.75,0,19.49,10.46,19.49,23.32s-8.74,23.32-19.49,23.32-19.49-10.46-19.49-23.32,8.74-23.32,19.49-23.32m0-16c-19.6,0-35.49,17.6-35.49,39.32s15.89,39.32,35.49,39.32,35.49-17.6,35.49-39.32-15.89-39.32-35.49-39.32h0Z"/>
    <line class="cls-3" x1="241.34" y1="178.89" x2="219.9" y2="139.4"/>
    <line class="cls-4" x1="163.39" y1="178.38" x2="144.16" y2="139.4"/>
    <line class="cls-4" x1="221.43" y1="159.57" x2="165.51" y2="159.15"/>
  </g>
</svg>