<?xml version="1.0" encoding="UTF-8"?>
<svg id="Layer_1" data-name="Layer 1" xmlns="http://www.w3.org/2000/svg" viewBox="0 0 460.93 450.43">
  <defs>
    <style>
      .cls-1 {
        fill: #902e7b;
      }

      .cls-2 {
        fill: #4d1942;
      }
    </style>
  </defs>
  <g>
    <path class="cls-1" d="M230.78,68.17c28.35,0,56.41,7.52,81.14,21.74,37.76,21.72,64.81,56.84,76.15,98.9s5.63,86.02-16.08,123.78c-14.56,25.32-35.62,46.27-60.9,60.57-24.55,13.89-52.43,21.24-80.63,21.24s-56.42-7.52-81.15-21.74c-37.76-21.72-64.81-56.84-76.15-98.9-11.35-42.06-5.64-86.02,16.08-123.78,14.56-25.32,35.62-46.27,60.9-60.57,24.55-13.89,52.43-21.24,80.64-21.24h0M230.78,63.17c-58.19,0-114.78,30.26-145.87,84.32-46.28,80.47-18.56,183.23,61.91,229.51,26.41,15.19,55.21,22.4,83.64,22.4,58.19,0,114.78-30.26,145.87-84.32,46.28-80.47,18.56-183.23-61.91-229.51-26.41-15.19-55.21-22.41-83.64-22.4h0Z"/>
    <path class="cls-1" d="M230.78,67.17c28.35,0,56.41,7.52,81.14,21.74,37.76,21.72,64.81,56.84,76.15,98.9s5.63,86.02-16.08,123.78c-14.56,25.32-35.62,46.27-60.9,60.57-24.55,13.89-52.43,21.24-80.63,21.24s-56.42-7.52-81.15-21.74c-37.76-21.72-64.81-56.84-76.15-98.9-11.35-42.06-5.64-86.02,16.08-123.78,14.56-25.32,35.62-46.27,60.9-60.57,24.55-13.89,52.43-21.24,80.64-21.24h0M230.78,62.17c-58.19,0-114.78,30.26-145.87,84.32-46.28,80.47-18.56,183.23,61.91,229.51,26.41,15.19,55.21,22.4,83.64,22.4,58.19,0,114.78-30.26,145.87-84.32,46.28-80.47,18.56-183.23-61.91-229.51-26.41-15.19-55.21-22.41-83.64-22.4h0Z"/>
    <path class="cls-1" d="M230.78,66.17c28.35,0,56.41,7.52,81.14,21.74,37.76,21.72,64.81,56.84,76.15,98.9s5.63,86.02-16.08,123.78c-14.56,25.32-35.62,46.27-60.9,60.57-24.55,13.89-52.43,21.24-80.63,21.24s-56.42-7.52-81.15-21.74c-37.76-21.72-64.81-56.84-76.15-98.9-11.35-42.06-5.64-86.02,16.08-123.78,14.56-25.32,35.62-46.27,60.9-60.57,24.55-13.89,52.43-21.24,80.64-21.24h0M230.78,61.17c-58.19,0-114.78,30.26-145.87,84.32-46.28,80.47-18.56,183.23,61.91,229.51,26.41,15.19,55.21,22.4,83.64,22.4,58.19,0,114.78-30.26,145.87-84.32,46.28-80.47,18.56-183.23-61.91-229.51-26.41-15.19-55.21-22.41-83.64-22.4h0Z"/>
    <path class="cls-1" d="M230.78,65.17c28.35,0,56.41,7.52,81.14,21.74,37.76,21.72,64.81,56.84,76.15,98.9s5.63,86.02-16.08,123.78c-14.56,25.32-35.62,46.27-60.9,60.57-24.55,13.89-52.43,21.24-80.63,21.24s-56.42-7.52-81.15-21.74c-37.76-21.72-64.81-56.84-76.15-98.9-11.35-42.06-5.64-86.02,16.08-123.78,14.56-25.32,35.62-46.27,60.9-60.57,24.55-13.89,52.43-21.24,80.64-21.24h0M230.78,60.17c-58.19,0-114.78,30.26-145.87,84.32-46.28,80.47-18.56,183.23,61.91,229.51,26.41,15.19,55.21,22.4,83.64,22.4,58.19,0,114.78-30.26,145.87-84.32,46.28-80.47,18.56-183.23-61.91-229.51-26.41-15.19-55.21-22.41-83.64-22.4h0Z"/>
  </g>
  <path class="cls-2" d="M229.38,259.12l-23.86,65.93c-1.19,3.34-3.66,6.06-6.88,7.54-6.67,3.13-14.6.26-17.73-6.41-1.51-3.21-1.67-6.89-.45-10.23l16.64-46.07c1.32-3.47,2.36-7.03,3.12-10.66.67-3.69,1.15-7.41,1.44-11.14.64-6.74,1.09-14.05,1.44-21.06s.59-13.81.77-19.43c.24-7.01-1.65-7.46-7.28-8.8l-1.17-.27-47.99-9.04c-3.49-.61-6.58-2.59-8.61-5.49-4.16-6.07-2.61-14.37,3.46-18.53,2.92-2,6.52-2.76,10-2.1l51.56,9.68c2.05.19,4.05.43,6.16.67,6.34.87,12.74,1.34,19.14,1.41,7.97-.16,15.93-.75,23.83-1.79,2.4-.27,4.67-.56,6.93-.77l48.65-9.12c3.45-.72,7.05-.04,10,1.89,6.1,4.13,7.7,12.41,3.57,18.51-.03.05-.07.1-.1.15-2,2.92-5.08,4.92-8.56,5.57l-46.49,8.74c-1.55.35-2.93.59-4.16.77-4.85.83-7.25,1.25-6.96,8.16.21,5.04.83,11.06,1.63,17.36.93,7.38,2.16,15.22,3.44,22.39.83,4.72,1.6,8.5,2.67,12.13s2.11,7.33,3.71,11.78l16.29,45.06c2.52,6.92-1.04,14.57-7.96,17.09-3.33,1.22-7.01,1.05-10.23-.45-3.21-1.49-5.69-4.21-6.88-7.54l-23.94-65.8-2.67-4.88-2.67,4.75h.13ZM230.42,116.44c13-.01,23.55,10.52,23.56,23.52.01,13-10.52,23.55-23.52,23.56-13,.01-23.55-10.52-23.56-23.52,0-6.25,2.47-12.24,6.88-16.66,4.4-4.43,10.39-6.91,16.64-6.9Z"/>
</svg>