<?xml version="1.0" encoding="UTF-8"?>
<svg id="Layer_3" data-name="Layer 3" xmlns="http://www.w3.org/2000/svg" viewBox="0 0 160 160">
  <defs>
    <style>
      .cls-1 {
        fill: #324265;
      }

      .cls-2 {
        fill: #f3743e;
      }
    </style>
  </defs>
  <g>
    <path class="cls-1" d="M72.38,16.29c-35.19,0-63.71,28.53-63.71,63.72s28.52,63.71,63.71,63.71c9.96,0,19.39-2.28,27.78-6.36-9.52-4.73-16.07-14.56-16.07-25.92,0-15.97,12.95-28.93,28.93-28.93,8.4,0,15.97,3.58,21.24,9.31t.02.02c.23.17.44.32.63.47.78-3.98,1.19-8.09,1.19-12.3,0-35.19-28.53-63.72-63.72-63.72ZM28.75,65.62c.96,0,1.75.74,1.83,1.7.85,11.45,10.01,20.59,21.46,21.41.96.07,1.7.87,1.7,1.83,0,1.06-.91,1.91-1.97,1.83-13.27-.96-23.86-11.53-24.85-24.79-.08-1.06.76-1.98,1.83-1.98ZM52.01,100.24c-.08.01-.17.02-.26.01-.55-.03-1.09-.08-1.63-.14-16.21-1.7-29.09-14.58-30.8-30.79-.06-.54-.11-1.08-.14-1.63,0-.08,0-.17.01-.25.1-1.01.94-1.81,1.98-1.81s1.92.81,1.98,1.85c.92,15.49,13.32,27.88,28.8,28.81,1.05.06,1.86.93,1.86,1.97s-.8,1.88-1.8,1.98ZM51.91,85.13c-9.29-.92-16.68-8.31-17.6-17.61-.11-1.05.74-1.96,1.8-1.96h.01c.93,0,1.69.72,1.78,1.65.77,7.56,6.77,13.56,14.33,14.33.92.1,1.64.86,1.64,1.79,0,1.05-.91,1.9-1.96,1.8ZM82.46,84.11c.38,6.06,5.62,9.06.95,10.78-1.59.58-4.33-5.99-4.66-10.39-1.1-14.77,27.73-25.06,28.13-37.83.21-6.68-5.24-12.19-11.92-11.85-1.06.05-6.37,2.29-6.61,2.72-.56.97,2.41,6.75,1.27,8.68l-19.1,17.21c-2.28,2.3.42,6.57-.36,8.45-.24.58-7.57,7.69-8.18,7.85-.99.26-6.25-2.59-7.29-3.06-1.53-.68-10.24-10.29-10.72-12.07-.26-.95-2.29-5.35-2.13-6.08.19-.86,7.39-7.48,8.16-7.7,2.33-.67,4.08.81,6.03.79,4.98-.06,17-15.62,22.25-18.49,2.01-.51,4.83,2.02,7.7,1.63,2.75-.36,6.02-3.4,10.56-3.21,7.64.3,14.03,7.66,13.86,15.12-.33,14.64-28.74,24.71-27.94,37.45Z"/>
    <path class="cls-1" d="M85.43,44.75c-.38,1.25-5.49,5.93-6.88,7.26-1.28,1.23-10.24,9.33-10.94,9.21l-6.75-7.45c0-1.19,16.29-15.85,17.42-16.19,5.19-1.56,8.76,1.83,7.15,7.17Z"/>
    <path class="cls-1" d="M60.87,75.43c-4.2-.97-15.13-12.55-14.11-16.47.26-.97,2.68-3.92,3.5-4.3,7.69-3.54,25.42,16.74,10.61,20.77Z"/>
  </g>
  <path class="cls-2" d="M150.65,130.45l-14.08-9.3-.69-.47c1.47-3.62,2.1-7.66,1.66-11.89-.42-4.02-1.83-7.76-3.97-10.97-4.08-6.14-10.85-10.36-18.54-10.97-15.22-1.21-27.83,11.42-26.59,26.65.81,9.84,7.53,18.12,16.55,21.24,1.88.66,3.87,1.09,5.92,1.26,7.52.62,14.4-2.12,19.3-6.89l1.18.78,13.67,9.03c.68.45,1.61.26,2.06-.42l3.96-5.99c.45-.68.26-1.61-.43-2.06ZM115.01,127.36c-.55.06-1.1.09-1.66.09-8.59,0-15.55-6.96-15.55-15.55s6.96-15.54,15.55-15.54c7.85,0,14.35,5.83,15.39,13.4.1.7.15,1.41.15,2.14,0,8.03-6.08,14.63-13.88,15.46Z"/>
</svg>