<?xml version="1.0" encoding="utf-8"?>
<!-- Generator: Adobe Illustrator 28.0.0, SVG Export Plug-In . SVG Version: 6.00 Build 0)  -->
<svg version="1.1" id="Layer_1" xmlns="http://www.w3.org/2000/svg" xmlns:xlink="http://www.w3.org/1999/xlink" x="0px" y="0px"
	 viewBox="0 0 264.3 264.3" style="enable-background:new 0 0 264.3 264.3;" xml:space="preserve">
<style type="text/css">
	.st0{fill:#FF8084;}
</style>
<path class="st0" d="M264.3,264.3h-57c-28.4,0-61.5-24.3-84.4-62L0,0h57c28.4,0,61.5,24.3,84.4,62L264.3,264.3z"/>
<path class="st0" d="M37.1,248.9v15.4H20.8c-3.2,0-6.4-0.8-9.3-2.5c-1.9-1.1-3.6-2.4-4.9-3.8c-2.5-2.6-4.3-5.6-5.2-9.3
	c-0.9-3.6-1.4-7.7-1.4-12.3v-84.6H15V226c0,7.6,1.8,13.4,5.5,17.2S29.7,248.9,37.1,248.9z"/>
<path class="st0" d="M227.2,15.4V0h16.4c3.2,0,6.4,0.8,9.3,2.5c1.9,1.1,3.6,2.4,4.9,3.8c2.5,2.6,4.3,5.6,5.2,9.3
	c0.9,3.6,1.4,7.7,1.4,12.3v84.6h-14.9V38.3c0-7.6-1.8-13.4-5.5-17.2S234.6,15.4,227.2,15.4L227.2,15.4z"/>
</svg>
