<?xml version="1.0" encoding="UTF-8"?>
<svg id="Logo_color" data-name="Logo &amp;amp; color" xmlns="http://www.w3.org/2000/svg" viewBox="0 0 1072.91 284">
  <rect x="-1444.58" y="-616.49" width="4098.22" height="1528.23" fill="#1f3051" stroke-width="0"/>
  <g>
    <g>
      <path d="M264.3,264.54h-56.97c-28.45,0-61.5-24.27-84.42-61.99L0,.24h56.97c28.45,0,61.5,24.27,84.42,61.99l122.91,202.3Z" fill="#ecf0f6" stroke-width="0"/>
      <path d="M14.94,226.27v-114.78S0,111.49,0,111.49v142.45H0c0,5.85,4.6,10.6,10.28,10.6h26.85v-15.4h0c-14.83,0-22.19-7.59-22.19-22.87Z" fill="#ecf0f6" stroke-width="0"/>
      <path d="M249.35,38.51v114.78s14.94,0,14.94,0V10.84h0c0-5.85-4.6-10.6-10.28-10.6h-26.85v15.4h0c14.83,0,22.19,7.59,22.19,22.87Z" fill="#ecf0f6" stroke-width="0"/>
    </g>
    <g>
      <g>
        <path d="M447.58,95.17c-13.49-19.7-32.79-47.85-38.57-56.29v73.86h-25.05V0h4.34c13.34,0,25.82,6.58,33.35,17.6,12.79,18.72,31.42,46.01,34.04,49.93V0h25.22v112.74h0c-13.33,0-25.8-6.57-33.33-17.57Z" fill="#ecf0f6" stroke-width="0"/>
        <path d="M536.06,31.93c7.16,0,13.12.75,17.89,2.25,4.77,1.5,8.59,3.65,11.47,6.45,2.87,2.8,4.91,6.2,6.1,10.19,1.19,4,1.79,8.45,1.79,13.34v46.47c-3.47.7-8.3,1.53-14.48,2.47-6.18.95-13.67,1.42-22.45,1.42-5.53,0-10.55-.45-15.05-1.35-4.5-.9-8.38-2.37-11.63-4.42-3.25-2.05-5.75-4.72-7.48-8.02-1.74-3.3-2.6-7.35-2.6-12.14s1-8.49,3.01-11.69c2.01-3.2,4.69-5.75,8.05-7.64,3.36-1.9,7.21-3.27,11.55-4.12,4.34-.85,8.84-1.27,13.5-1.27,3.14,0,5.94.13,8.38.38,2.44.25,4.42.58,5.94.97v-2.1c0-3.8-1.25-6.84-3.74-9.14-2.5-2.3-6.83-3.45-13.01-3.45-4.12,0-8.19.28-12.2.82-4.01.55-7.48,1.33-10.41,2.32l-3.09-17.99c1.41-.4,3.17-.82,5.29-1.27,2.11-.45,4.42-.85,6.91-1.2,2.49-.35,5.12-.65,7.89-.9,2.77-.25,5.56-.37,8.38-.37ZM538.02,97.29c2.38,0,4.66-.05,6.83-.15,2.17-.1,3.9-.25,5.21-.45v-16.94c-.98-.2-2.44-.4-4.39-.6-1.95-.2-3.74-.3-5.37-.3-2.28,0-4.42.13-6.43.38-2.01.25-3.77.73-5.29,1.42-1.52.7-2.71,1.65-3.58,2.85-.87,1.2-1.3,2.7-1.3,4.5,0,3.5,1.27,5.92,3.82,7.27,2.55,1.35,6.04,2.02,10.49,2.02Z" fill="#ecf0f6" stroke-width="0"/>
        <path d="M595.28,112.88V.16L619.52,0v34.33c1.63-.5,3.71-.97,6.26-1.42,2.55-.45,5.02-.67,7.4-.67,6.94,0,12.71.88,17.33,2.62,4.61,1.75,8.3,4.22,11.06,7.42,2.77,3.2,4.72,7,5.86,11.39,1.14,4.4,1.71,9.29,1.71,14.69v44.52h-24.24v-41.82c0-7.2-1-12.29-3.01-15.29-2.01-3-5.72-4.5-11.14-4.5-2.17,0-4.2.18-6.1.52-1.9.35-3.61.73-5.12,1.12v59.96h-24.24Z" fill="#ecf0f6" stroke-width="0"/>
        <path d="M725.26,114.37c-7.05-.11-12.77-.87-17.16-2.28-4.39-1.41-7.86-3.39-10.41-5.94-2.55-2.55-4.29-5.64-5.21-9.27-.92-3.63-1.38-7.73-1.38-12.28V0S715.33,0,715.33,0v79.71c0,2.17.16,4.12.49,5.86.33,1.74.95,3.2,1.87,4.39.92,1.2,2.25,2.17,3.99,2.93,1.73.76,4.07,1.25,7,1.46l-3.42,20.01Z" fill="#ecf0f6" stroke-width="0"/>
        <path d="M775.69,31.93c7.16,0,13.12.75,17.89,2.25,4.77,1.5,8.59,3.65,11.47,6.45,2.87,2.8,4.91,6.2,6.1,10.19,1.19,4,1.79,8.45,1.79,13.34v46.47c-3.47.7-8.3,1.53-14.48,2.47-6.18.95-13.67,1.42-22.45,1.42-5.53,0-10.55-.45-15.05-1.35-4.5-.9-8.38-2.37-11.63-4.42-3.25-2.05-5.75-4.72-7.48-8.02-1.74-3.3-2.6-7.35-2.6-12.14s1-8.49,3.01-11.69c2.01-3.2,4.69-5.75,8.05-7.64,3.36-1.9,7.21-3.27,11.55-4.12,4.34-.85,8.84-1.27,13.5-1.27,3.14,0,5.94.13,8.38.38,2.44.25,4.42.58,5.94.97v-2.1c0-3.8-1.25-6.84-3.74-9.14-2.5-2.3-6.83-3.45-13.01-3.45-4.12,0-8.19.28-12.2.82-4.01.55-7.48,1.33-10.41,2.32l-3.09-17.99c1.41-.4,3.17-.82,5.29-1.27,2.11-.45,4.42-.85,6.91-1.2,2.49-.35,5.12-.65,7.89-.9,2.77-.25,5.56-.37,8.38-.37ZM777.64,97.29c2.38,0,4.66-.05,6.83-.15,2.17-.1,3.9-.25,5.21-.45v-16.94c-.98-.2-2.44-.4-4.39-.6-1.95-.2-3.74-.3-5.37-.3-2.28,0-4.42.13-6.43.38-2.01.25-3.77.73-5.29,1.42-1.52.7-2.71,1.65-3.58,2.85-.87,1.2-1.3,2.7-1.3,4.5,0,3.5,1.27,5.92,3.82,7.27,2.55,1.35,6.04,2.02,10.49,2.02Z" fill="#ecf0f6" stroke-width="0"/>
        <path d="M903.28,95.17c-13.49-19.7-32.79-47.85-38.57-56.29v73.86h-25.05V0h4.34c13.34,0,25.82,6.58,33.35,17.6,12.79,18.72,31.42,46.01,34.04,49.93V0h25.22v112.74h0c-13.33,0-25.8-6.57-33.33-17.57Z" fill="#ecf0f6" stroke-width="0"/>
        <path d="M982.13,12.34c0,3.72-1.2,6.64-3.6,8.77-2.4,2.13-5.23,3.19-8.49,3.19s-6.09-1.06-8.49-3.19c-2.4-2.13-3.6-5.05-3.6-8.77s1.2-6.64,3.6-8.77c2.4-2.13,5.23-3.19,8.49-3.19s6.09,1.07,8.49,3.19c2.4,2.13,3.6,5.05,3.6,8.77ZM982.13,112.74h-24.24V31.85s24.24,0,24.24,0v80.89Z" fill="#ecf0f6" stroke-width="0"/>
        <path d="M1035.65,31.93c7.16,0,13.12.75,17.89,2.25,4.77,1.5,8.59,3.65,11.47,6.45,2.87,2.8,4.91,6.2,6.1,10.19,1.19,4,1.79,8.45,1.79,13.34v46.47c-3.47.7-8.3,1.53-14.48,2.47-6.18.95-13.67,1.42-22.45,1.42-5.53,0-10.55-.45-15.05-1.35-4.5-.9-8.38-2.37-11.63-4.42-3.25-2.05-5.75-4.72-7.48-8.02-1.74-3.3-2.6-7.35-2.6-12.14s1-8.49,3.01-11.69c2.01-3.2,4.69-5.75,8.05-7.64,3.36-1.9,7.21-3.27,11.55-4.12,4.34-.85,8.84-1.27,13.5-1.27,3.14,0,5.94.13,8.38.38,2.44.25,4.42.58,5.94.97v-2.1c0-3.8-1.25-6.84-3.74-9.14-2.5-2.3-6.83-3.45-13.01-3.45-4.12,0-8.19.28-12.2.82-4.01.55-7.48,1.33-10.41,2.32l-3.09-17.99c1.41-.4,3.17-.82,5.29-1.27,2.11-.45,4.42-.85,6.91-1.2,2.49-.35,5.12-.65,7.89-.9,2.77-.25,5.56-.37,8.38-.37ZM1037.6,97.29c2.38,0,4.66-.05,6.83-.15,2.17-.1,3.9-.25,5.21-.45v-16.94c-.98-.2-2.44-.4-4.39-.6-1.95-.2-3.74-.3-5.37-.3-2.28,0-4.42.13-6.43.38-2.01.25-3.77.73-5.29,1.42-1.52.7-2.71,1.65-3.58,2.85-.87,1.2-1.3,2.7-1.3,4.5,0,3.5,1.27,5.92,3.82,7.27,2.55,1.35,6.04,2.02,10.49,2.02Z" fill="#ecf0f6" stroke-width="0"/>
      </g>
      <g>
        <path d="M427.76,170.9h11.1s0,88.88,0,88.88c-2.55.72-5.81,1.43-9.78,2.15-3.98.72-8.55,1.07-13.72,1.07-4.77,0-9.07-.76-12.88-2.27-3.82-1.51-7.08-3.66-9.78-6.44-2.7-2.78-4.79-6.18-6.26-10.2-1.47-4.01-2.21-8.53-2.21-13.54s.61-9.14,1.85-13.12c1.23-3.98,3.04-7.4,5.43-10.26,2.39-2.86,5.31-5.09,8.77-6.68,3.46-1.59,7.42-2.39,11.87-2.39,3.58,0,6.74.48,9.48,1.43s4.79,1.87,6.14,2.74v-31.38ZM427.76,212.66c-1.35-1.11-3.3-2.19-5.85-3.22-2.55-1.03-5.33-1.55-8.35-1.55-3.18,0-5.91.58-8.17,1.73-2.27,1.15-4.12,2.74-5.55,4.77-1.43,2.03-2.47,4.43-3.1,7.22-.64,2.79-.95,5.77-.95,8.95,0,7.24,1.79,12.82,5.37,16.76,3.58,3.94,8.35,5.91,14.32,5.91,3.02,0,5.55-.14,7.58-.42,2.03-.28,3.6-.58,4.71-.89v-39.25Z" fill="#ecf0f6" stroke-width="0"/>
        <path d="M522.48,230.67c0-5.49.79-10.28,2.39-14.38,1.59-4.1,3.7-7.5,6.32-10.2,2.62-2.7,5.65-4.73,9.07-6.08,3.42-1.35,6.92-2.03,10.5-2.03,8.35,0,14.75,2.61,19.21,7.81,4.45,5.21,6.68,13.14,6.68,23.8v1.85c0,.76-.04,1.45-.12,2.09h-42.47c.48,6.44,2.34,11.33,5.61,14.67,3.26,3.34,8.35,5.01,15.27,5.01,3.9,0,7.18-.34,9.84-1.01,2.66-.67,4.67-1.33,6.02-1.97l1.55,9.3c-1.35.72-3.72,1.47-7.1,2.27-3.38.79-7.22,1.19-11.51,1.19-5.41,0-10.08-.82-14.02-2.45-3.94-1.63-7.18-3.88-9.72-6.74-2.55-2.86-4.43-6.26-5.67-10.2-1.23-3.94-1.85-8.25-1.85-12.94ZM565.07,224.59c.08-5.01-1.17-9.13-3.76-12.35-2.59-3.22-6.14-4.83-10.68-4.83-2.55,0-4.79.5-6.74,1.49-1.95,1-3.6,2.29-4.95,3.88-1.35,1.59-2.41,3.42-3.16,5.49-.76,2.07-1.25,4.18-1.49,6.32h30.78Z" fill="#ecf0f6" stroke-width="0"/>
        <path d="M675.07,253.58c4.53,0,7.89-.6,10.08-1.79,2.19-1.19,3.28-3.1,3.28-5.73s-1.07-4.85-3.22-6.44c-2.15-1.59-5.69-3.38-10.62-5.37-2.39-.95-4.67-1.93-6.86-2.92-2.19-.99-4.08-2.17-5.67-3.52-1.59-1.35-2.86-2.98-3.82-4.89-.95-1.91-1.43-4.25-1.43-7.04,0-5.49,2.03-9.84,6.08-13.06,4.06-3.22,9.58-4.83,16.58-4.83,1.75,0,3.5.1,5.25.3,1.75.2,3.38.44,4.89.72,1.51.28,2.84.58,4,.9,1.15.32,2.05.6,2.68.83l-2.03,9.54c-1.19-.64-3.06-1.29-5.61-1.97-2.55-.67-5.61-1.01-9.19-1.01-3.1,0-5.81.62-8.11,1.85-2.31,1.23-3.46,3.16-3.46,5.79,0,1.35.26,2.55.78,3.58.52,1.03,1.31,1.97,2.39,2.8,1.07.83,2.4,1.61,4,2.33,1.59.72,3.5,1.47,5.73,2.27,2.94,1.11,5.57,2.21,7.87,3.28,2.31,1.07,4.27,2.33,5.91,3.76,1.63,1.43,2.88,3.16,3.76,5.19.87,2.03,1.31,4.51,1.31,7.46,0,5.73-2.13,10.06-6.38,13-4.26,2.94-10.32,4.41-18.19,4.41-5.49,0-9.78-.46-12.88-1.37s-5.21-1.61-6.32-2.09l2.03-9.54c1.27.48,3.3,1.19,6.08,2.15,2.78.96,6.48,1.43,11.09,1.43Z" fill="#ecf0f6" stroke-width="0"/>
        <path d="M787.33,188.32c-1.99,0-3.68-.66-5.07-1.97-1.39-1.31-2.09-3.08-2.09-5.31s.7-4,2.09-5.31c1.39-1.31,3.08-1.97,5.07-1.97s3.68.66,5.07,1.97c1.39,1.31,2.09,3.08,2.09,5.31s-.7,4-2.09,5.31c-1.39,1.31-3.08,1.97-5.07,1.97ZM792.93,261.57h-11.09v-62.04h11.09v62.04Z" fill="#ecf0f6" stroke-width="0"/>
        <path d="M918.91,255.37c-.95.64-2.8,1.45-5.55,2.45-2.74,1-5.95,1.49-9.6,1.49s-7.26-.6-10.56-1.79c-3.3-1.19-6.18-3.04-8.65-5.55-2.47-2.5-4.41-5.63-5.85-9.37-1.43-3.74-2.15-8.19-2.15-13.36,0-4.53.67-8.69,2.03-12.47,1.35-3.78,3.32-7.04,5.91-9.78,2.58-2.74,5.74-4.89,9.48-6.44,3.74-1.55,7.95-2.33,12.65-2.33,5.17,0,9.68.38,13.54,1.13,3.86.76,7.1,1.45,9.72,2.09v55.35c0,9.54-2.47,16.46-7.4,20.76-4.93,4.29-12.41,6.44-22.43,6.44-3.9,0-7.58-.32-11.04-.95-3.46-.64-6.46-1.39-9.01-2.27l2.03-9.66c2.23.87,4.95,1.65,8.17,2.33,3.22.67,6.58,1.01,10.08,1.01,6.6,0,11.35-1.31,14.26-3.94,2.9-2.62,4.35-6.8,4.35-12.53v-2.62ZM918.79,209.32c-1.11-.32-2.61-.62-4.47-.89-1.87-.28-4.4-.42-7.58-.42-5.96,0-10.56,1.95-13.78,5.84-3.22,3.9-4.83,9.07-4.83,15.51,0,3.58.46,6.64,1.37,9.19.91,2.55,2.15,4.65,3.7,6.32,1.55,1.67,3.34,2.9,5.37,3.7,2.03.8,4.12,1.19,6.26,1.19,2.94,0,5.65-.42,8.11-1.25,2.46-.83,4.41-1.81,5.85-2.92v-36.27Z" fill="#ecf0f6" stroke-width="0"/>
        <path d="M1016.98,201.32c2.54-.63,5.92-1.31,10.14-2.03,4.21-.72,9.07-1.07,14.55-1.07,4.93,0,9.03.7,12.29,2.09,3.26,1.39,5.86,3.34,7.81,5.85,1.95,2.5,3.32,5.51,4.12,9.01.79,3.5,1.19,7.36,1.19,11.57v34.83h-11.09v-32.45c0-3.82-.26-7.08-.78-9.78-.52-2.7-1.37-4.89-2.56-6.56-1.19-1.67-2.78-2.88-4.77-3.64-1.99-.75-4.46-1.13-7.4-1.13-1.19,0-2.43.04-3.7.12-1.27.08-2.49.18-3.64.3-1.15.12-2.19.26-3.1.42-.92.16-1.57.28-1.97.36v52.37h-11.09v-60.25Z" fill="#ecf0f6" stroke-width="0"/>
      </g>
    </g>
  </g>
</svg>