<?xml version="1.0" encoding="UTF-8"?>
<svg id="Layer_1" data-name="Layer 1" xmlns="http://www.w3.org/2000/svg" viewBox="0 0 530.37 574.11">
  <defs>
    <style>
      .cls-1 {
        fill: #203969;
        stroke-width: 0px;
      }
    </style>
  </defs>
  <g>
    <g>
      <path class="cls-1" d="m48.98,428.74c-10.39-15.17-25.24-36.84-29.69-43.33v56.86H0v-86.79h3.34c10.27,0,19.88,5.07,25.68,13.55,9.85,14.41,24.19,35.42,26.21,38.44v-51.99h19.41v86.79h0c-10.26,0-19.86-5.06-25.66-13.53Z"/>
      <path class="cls-1" d="m117.09,380.06c5.51,0,10.1.58,13.78,1.73,3.67,1.15,6.62,2.81,8.83,4.96,2.21,2.15,3.78,4.77,4.7,7.85.92,3.08,1.38,6.5,1.38,10.27v35.77c-2.67.54-6.39,1.17-11.15,1.9s-10.52,1.1-17.28,1.1c-4.26,0-8.12-.35-11.58-1.04-3.47-.69-6.45-1.83-8.95-3.4-2.5-1.58-4.43-3.63-5.76-6.17-1.34-2.54-2-5.65-2-9.35s.77-6.54,2.32-9c1.54-2.46,3.61-4.42,6.2-5.89,2.59-1.46,5.55-2.52,8.89-3.17,3.34-.65,6.8-.98,10.39-.98,2.42,0,4.57.1,6.45.29,1.88.19,3.4.44,4.57.75v-1.62c0-2.92-.96-5.27-2.88-7.04-1.92-1.77-5.26-2.65-10.02-2.65-3.17,0-6.3.21-9.39.63-3.09.42-5.76,1.02-8.01,1.79l-2.38-13.85c1.08-.31,2.44-.63,4.07-.98,1.63-.35,3.4-.65,5.32-.92,1.92-.27,3.94-.5,6.07-.69,2.13-.19,4.28-.29,6.45-.29Zm1.5,50.31c1.84,0,3.59-.04,5.26-.11,1.67-.08,3.01-.19,4.01-.35v-13.04c-.75-.15-1.88-.31-3.38-.46-1.5-.15-2.88-.23-4.13-.23-1.75,0-3.4.1-4.95.29-1.55.19-2.9.56-4.07,1.1-1.17.54-2.09,1.27-2.76,2.19-.67.92-1,2.08-1,3.46,0,2.69.98,4.56,2.94,5.6,1.96,1.04,4.65,1.56,8.08,1.56Z"/>
      <path class="cls-1" d="m162.68,442.37v-86.78l18.66-.12v26.43c1.25-.38,2.86-.75,4.82-1.1,1.96-.35,3.86-.52,5.7-.52,5.34,0,9.79.67,13.34,2.02,3.55,1.35,6.39,3.25,8.52,5.71,2.13,2.46,3.63,5.39,4.51,8.77.88,3.39,1.32,7.15,1.32,11.31v34.27h-18.66v-32.19c0-5.54-.77-9.46-2.32-11.77-1.55-2.31-4.4-3.46-8.58-3.46-1.67,0-3.24.14-4.7.4-1.46.27-2.78.56-3.94.87v46.16h-18.66Z"/>
      <path class="cls-1" d="m262.74,443.52c-5.43-.08-9.83-.67-13.21-1.75-3.38-1.08-6.05-2.61-8.02-4.57-1.96-1.96-3.3-4.34-4.01-7.14-.71-2.8-1.06-5.95-1.06-9.46v-65.12s18.66,0,18.66,0v61.37c0,1.67.13,3.17.38,4.51.25,1.34.73,2.46,1.44,3.38.71.92,1.73,1.67,3.07,2.25,1.33.58,3.13.96,5.39,1.13l-2.63,15.4Z"/>
      <path class="cls-1" d="m301.56,380.06c5.51,0,10.1.58,13.78,1.73,3.67,1.15,6.62,2.81,8.83,4.96,2.21,2.15,3.78,4.77,4.7,7.85.92,3.08,1.38,6.5,1.38,10.27v35.77c-2.67.54-6.39,1.17-11.15,1.9s-10.52,1.1-17.28,1.1c-4.26,0-8.12-.35-11.58-1.04-3.47-.69-6.45-1.83-8.95-3.4-2.5-1.58-4.43-3.63-5.76-6.17-1.34-2.54-2-5.65-2-9.35s.77-6.54,2.32-9c1.54-2.46,3.61-4.42,6.2-5.89,2.59-1.46,5.55-2.52,8.89-3.17,3.34-.65,6.8-.98,10.39-.98,2.42,0,4.57.1,6.45.29,1.88.19,3.4.44,4.57.75v-1.62c0-2.92-.96-5.27-2.88-7.04-1.92-1.77-5.26-2.65-10.02-2.65-3.17,0-6.3.21-9.39.63-3.09.42-5.76,1.02-8.01,1.79l-2.38-13.85c1.08-.31,2.44-.63,4.07-.98,1.63-.35,3.4-.65,5.32-.92,1.92-.27,3.94-.5,6.07-.69,2.13-.19,4.28-.29,6.45-.29Zm1.5,50.31c1.84,0,3.59-.04,5.26-.11,1.67-.08,3.01-.19,4.01-.35v-13.04c-.75-.15-1.88-.31-3.38-.46-1.5-.15-2.88-.23-4.13-.23-1.75,0-3.4.1-4.95.29-1.55.19-2.9.56-4.07,1.1-1.17.54-2.09,1.27-2.76,2.19-.67.92-1,2.08-1,3.46,0,2.69.98,4.56,2.94,5.6,1.96,1.04,4.65,1.56,8.08,1.56Z"/>
      <path class="cls-1" d="m399.79,428.74c-10.39-15.17-25.24-36.84-29.69-43.33v56.86h-19.29v-86.79h3.34c10.27,0,19.88,5.07,25.68,13.55,9.85,14.41,24.19,35.42,26.21,38.44v-51.99h19.41v86.79h0c-10.26,0-19.86-5.06-25.66-13.53Z"/>
      <path class="cls-1" d="m460.49,364.98c0,2.86-.93,5.11-2.77,6.75-1.85,1.64-4.03,2.46-6.54,2.46s-4.69-.82-6.54-2.46c-1.85-1.64-2.77-3.89-2.77-6.75s.92-5.11,2.77-6.75c1.85-1.64,4.03-2.46,6.54-2.46s4.69.82,6.54,2.46c1.85,1.64,2.77,3.89,2.77,6.75Zm0,77.29h-18.66v-62.27s18.66,0,18.66,0v62.27Z"/>
      <path class="cls-1" d="m501.69,380.06c5.51,0,10.1.58,13.78,1.73,3.67,1.15,6.62,2.81,8.83,4.96,2.21,2.15,3.78,4.77,4.7,7.85.92,3.08,1.38,6.5,1.38,10.27v35.77c-2.67.54-6.39,1.17-11.15,1.9s-10.52,1.1-17.28,1.1c-4.26,0-8.12-.35-11.58-1.04-3.47-.69-6.45-1.83-8.95-3.4-2.5-1.58-4.43-3.63-5.76-6.17-1.34-2.54-2-5.65-2-9.35s.77-6.54,2.32-9c1.54-2.46,3.61-4.42,6.2-5.89,2.59-1.46,5.55-2.52,8.89-3.17,3.34-.65,6.8-.98,10.39-.98,2.42,0,4.57.1,6.45.29,1.88.19,3.4.44,4.57.75v-1.62c0-2.92-.96-5.27-2.88-7.04-1.92-1.77-5.26-2.65-10.02-2.65-3.17,0-6.3.21-9.39.63-3.09.42-5.76,1.02-8.01,1.79l-2.38-13.85c1.08-.31,2.44-.63,4.07-.98,1.63-.35,3.4-.65,5.32-.92,1.92-.27,3.94-.5,6.07-.69,2.13-.19,4.28-.29,6.45-.29Zm1.5,50.31c1.84,0,3.59-.04,5.26-.11,1.67-.08,3.01-.19,4.01-.35v-13.04c-.75-.15-1.88-.31-3.38-.46-1.5-.15-2.88-.23-4.13-.23-1.75,0-3.4.1-4.95.29-1.55.19-2.9.56-4.07,1.1-1.17.54-2.09,1.27-2.76,2.19-.67.92-1,2.08-1,3.46,0,2.69.98,4.56,2.94,5.6,1.96,1.04,4.65,1.56,8.08,1.56Z"/>
    </g>
    <g>
      <path class="cls-1" d="m33.72,487.04h8.54s0,68.42,0,68.42c-1.96.55-4.47,1.1-7.53,1.65-3.06.55-6.58.83-10.56.83-3.67,0-6.98-.58-9.92-1.74-2.94-1.16-5.45-2.82-7.53-4.96-2.08-2.14-3.69-4.76-4.82-7.85-1.13-3.09-1.7-6.57-1.7-10.42s.47-7.04,1.42-10.1c.95-3.06,2.34-5.69,4.18-7.9,1.84-2.2,4.09-3.92,6.75-5.14,2.66-1.22,5.71-1.84,9.14-1.84,2.76,0,5.19.37,7.3,1.1,2.11.73,3.69,1.44,4.73,2.11v-24.15Zm0,32.14c-1.04-.86-2.54-1.68-4.5-2.48-1.96-.79-4.1-1.19-6.43-1.19-2.45,0-4.55.45-6.29,1.33-1.74.89-3.17,2.11-4.27,3.67-1.1,1.56-1.9,3.41-2.39,5.56-.49,2.14-.73,4.44-.73,6.89,0,5.57,1.38,9.87,4.13,12.9,2.76,3.03,6.43,4.55,11.02,4.55,2.33,0,4.27-.11,5.83-.32,1.56-.21,2.77-.44,3.63-.69v-30.21Z"/>
      <path class="cls-1" d="m106.64,533.05c0-4.22.61-7.91,1.84-11.07,1.22-3.15,2.85-5.77,4.87-7.85,2.02-2.08,4.35-3.64,6.98-4.68,2.63-1.04,5.33-1.56,8.08-1.56,6.43,0,11.36,2.01,14.79,6.02,3.43,4.01,5.14,10.12,5.14,18.32v1.42c0,.58-.03,1.12-.09,1.61h-32.69c.37,4.96,1.81,8.72,4.32,11.3,2.51,2.57,6.43,3.86,11.76,3.86,3,0,5.52-.26,7.58-.78,2.05-.52,3.6-1.02,4.64-1.51l1.19,7.16c-1.04.55-2.86,1.13-5.46,1.74-2.6.61-5.56.92-8.86.92-4.16,0-7.76-.63-10.79-1.88-3.03-1.25-5.53-2.99-7.48-5.19-1.96-2.2-3.41-4.82-4.36-7.85-.95-3.03-1.42-6.35-1.42-9.96Zm32.79-4.68c.06-3.86-.9-7.03-2.89-9.51-1.99-2.48-4.73-3.72-8.22-3.72-1.96,0-3.69.38-5.19,1.15-1.5.77-2.77,1.76-3.81,2.98-1.04,1.23-1.85,2.63-2.43,4.22-.58,1.59-.96,3.21-1.15,4.87h23.69Z"/>
      <path class="cls-1" d="m224.1,550.69c3.49,0,6.08-.46,7.76-1.38,1.68-.92,2.53-2.39,2.53-4.41s-.83-3.73-2.48-4.96c-1.65-1.22-4.38-2.6-8.17-4.13-1.84-.73-3.6-1.48-5.28-2.25-1.68-.76-3.14-1.67-4.36-2.71-1.23-1.04-2.2-2.3-2.94-3.76-.73-1.47-1.1-3.27-1.1-5.42,0-4.22,1.56-7.58,4.68-10.06,3.12-2.48,7.38-3.72,12.77-3.72,1.35,0,2.69.08,4.04.23,1.35.15,2.6.34,3.77.55,1.16.22,2.19.45,3.08.69.89.25,1.58.46,2.07.64l-1.56,7.35c-.92-.49-2.36-.99-4.32-1.52-1.96-.52-4.32-.78-7.07-.78-2.39,0-4.47.47-6.25,1.42-1.78.95-2.66,2.43-2.66,4.45,0,1.04.2,1.96.6,2.76.4.8,1.01,1.51,1.84,2.16.83.64,1.85,1.24,3.08,1.79,1.22.55,2.69,1.13,4.41,1.74,2.26.86,4.28,1.7,6.06,2.53,1.78.83,3.29,1.79,4.55,2.89,1.25,1.1,2.22,2.43,2.89,3.99.67,1.56,1.01,3.48,1.01,5.74,0,4.41-1.64,7.75-4.91,10.01-3.28,2.27-7.94,3.4-14.01,3.4-4.22,0-7.53-.35-9.92-1.06s-4.01-1.24-4.87-1.61l1.56-7.35c.98.37,2.54.92,4.68,1.65,2.14.74,4.99,1.1,8.54,1.1Z"/>
      <path class="cls-1" d="m310.52,500.45c-1.53,0-2.83-.51-3.9-1.52-1.07-1.01-1.61-2.37-1.61-4.09s.54-3.08,1.61-4.09c1.07-1.01,2.37-1.52,3.9-1.52s2.83.51,3.9,1.52c1.07,1.01,1.61,2.37,1.61,4.09s-.54,3.08-1.61,4.09c-1.07,1.01-2.37,1.52-3.9,1.52Zm4.32,56.39h-8.54v-47.76h8.54v47.76Z"/>
      <path class="cls-1" d="m411.82,552.07c-.73.49-2.16,1.12-4.27,1.88-2.11.77-4.58,1.15-7.39,1.15s-5.59-.46-8.13-1.38c-2.54-.92-4.76-2.34-6.66-4.27-1.9-1.93-3.4-4.33-4.5-7.21-1.1-2.88-1.65-6.31-1.65-10.29,0-3.49.52-6.69,1.56-9.6,1.04-2.91,2.56-5.42,4.55-7.53,1.99-2.11,4.42-3.76,7.3-4.96,2.88-1.19,6.12-1.79,9.74-1.79,3.98,0,7.45.29,10.42.87,2.97.58,5.46,1.12,7.48,1.61v42.61c0,7.35-1.9,12.67-5.69,15.98-3.8,3.31-9.55,4.96-17.27,4.96-3,0-5.83-.25-8.5-.73-2.66-.49-4.97-1.07-6.93-1.74l1.56-7.44c1.71.67,3.81,1.27,6.29,1.79,2.48.52,5.07.78,7.76.78,5.08,0,8.74-1.01,10.97-3.03,2.23-2.02,3.35-5.23,3.35-9.64v-2.02Zm-.09-35.45c-.86-.24-2.01-.47-3.44-.69-1.44-.21-3.38-.32-5.83-.32-4.59,0-8.13,1.5-10.61,4.5-2.48,3-3.72,6.98-3.72,11.94,0,2.76.35,5.11,1.06,7.07.7,1.96,1.65,3.58,2.85,4.87,1.19,1.29,2.57,2.24,4.13,2.85,1.56.61,3.17.92,4.82.92,2.26,0,4.35-.32,6.25-.96,1.9-.64,3.4-1.39,4.5-2.25v-27.92Z"/>
      <path class="cls-1" d="m487.31,510.46c1.96-.49,4.56-1.01,7.81-1.56,3.24-.55,6.98-.83,11.2-.83,3.8,0,6.95.54,9.46,1.61,2.51,1.07,4.51,2.57,6.02,4.5,1.5,1.93,2.56,4.24,3.17,6.93.61,2.7.92,5.66.92,8.91v26.82h-8.54v-24.98c0-2.94-.2-5.45-.6-7.53-.4-2.08-1.06-3.77-1.97-5.05-.92-1.29-2.14-2.22-3.67-2.8-1.53-.58-3.43-.87-5.69-.87-.92,0-1.87.03-2.85.09-.98.06-1.91.14-2.8.23-.89.09-1.68.2-2.39.32-.7.12-1.21.22-1.52.28v40.32h-8.54v-46.38Z"/>
    </g>
  </g>
  <g>
    <path class="cls-1" d="m397.34,264.3h-56.97c-28.45,0-61.5-24.27-84.42-61.99L133.04,0h56.97C218.45,0,251.5,24.27,274.42,62l122.91,202.3Z"/>
    <path class="cls-1" d="m170.16,248.89v15.41h-16.35c-3.24,0-6.45-.83-9.26-2.46-1.91-1.11-3.56-2.39-4.93-3.75-2.55-2.55-4.28-5.64-5.2-9.27-.93-3.64-1.39-7.73-1.39-12.29v-84.59h14.95v74.09c0,7.64,1.84,13.36,5.53,17.16s9.24,5.7,16.65,5.7Z"/>
    <path class="cls-1" d="m360.2,15.41V0h16.35c3.24,0,6.45.83,9.26,2.46,1.91,1.11,3.56,2.39,4.93,3.75,2.55,2.55,4.28,5.64,5.2,9.27.93,3.64,1.39,7.73,1.39,12.29v84.59h-14.95V38.27c0-7.64-1.84-13.36-5.53-17.16s-9.24-5.7-16.65-5.7Z"/>
  </g>
</svg>