<svg width="220" height="59" viewBox="0 0 220 59" fill="none" xmlns="http://www.w3.org/2000/svg">
<g clip-path="url(#clip0_352_82)">
<path d="M54.1947 54.7088H42.513C36.6793 54.7088 29.9024 49.6896 25.2027 41.8888L0 0.0498047H11.6817C17.5154 0.0498047 24.2923 5.069 28.992 12.8697L54.1947 54.7067V54.7088Z" fill="#ECF0F6"/>
<path d="M7.6135 51.5216V54.7085H4.26094C3.59657 54.7085 2.93836 54.5368 2.36217 54.1997C1.97053 53.9702 1.6322 53.7054 1.35128 53.4242C0.828401 52.8968 0.473665 52.2578 0.285019 51.5071C0.0943229 50.7543 0 49.9085 0 48.9654V31.4717H3.06549V46.794C3.06549 48.374 3.44279 49.5569 4.19942 50.3428C4.95605 51.1286 6.09408 51.5216 7.6135 51.5216Z" fill="#ECF0F6"/>
<path d="M46.5811 3.23645V0.0495605H49.9336C50.598 0.0495605 51.2562 0.22121 51.8324 0.558304C52.224 0.78786 52.5624 1.05257 52.8433 1.33383C53.3662 1.86119 53.7209 2.50022 53.9095 3.25092C54.1002 4.0037 54.1946 4.84954 54.1946 5.79258V23.2863H51.1291V7.96404C51.1291 6.38404 50.7518 5.20111 49.9951 4.41525C49.2385 3.62938 48.1005 3.23645 46.5811 3.23645Z" fill="#ECF0F6"/>
<path d="M91.7787 19.6818C89.0125 15.6077 85.0551 9.78608 83.8699 8.04064V23.3154H78.7334V0H79.6233C82.3587 0 84.9177 1.36079 86.4617 3.63979C89.0843 7.51121 92.9044 13.155 93.4416 13.9656V0H98.613V23.3154C95.8797 23.3154 93.3227 21.9566 91.7787 19.6818Z" fill="#ECF0F6"/>
<path d="M109.922 6.60327C111.39 6.60327 112.612 6.75838 113.591 7.06859C114.569 7.3788 115.352 7.82343 115.942 8.40249C116.531 8.98155 116.949 9.68469 117.193 10.5098C117.437 11.3371 117.56 12.2574 117.56 13.2686V22.8789C116.849 23.0237 115.858 23.1954 114.591 23.3898C113.324 23.5862 111.788 23.6834 109.988 23.6834C108.854 23.6834 107.825 23.5904 106.902 23.4042C105.979 23.2181 105.184 22.9141 104.517 22.4901C103.851 22.0662 103.338 21.514 102.983 20.8316C102.627 20.1491 102.45 19.3115 102.45 18.3209C102.45 17.3303 102.655 16.5651 103.067 15.9034C103.48 15.2416 104.029 14.7142 104.718 14.3234C105.407 13.9304 106.196 13.6471 107.086 13.4713C107.976 13.2955 108.899 13.2087 109.855 13.2087C110.498 13.2087 111.073 13.2356 111.573 13.2873C112.073 13.339 112.479 13.4072 112.791 13.4879V13.0536C112.791 12.2677 112.535 11.639 112.024 11.1634C111.511 10.6877 110.623 10.4499 109.356 10.4499C108.511 10.4499 107.677 10.5078 106.855 10.6195C106.032 10.7332 105.321 10.8945 104.72 11.0992L104.086 7.3788C104.376 7.29607 104.737 7.20921 105.171 7.11615C105.604 7.02309 106.078 6.94037 106.588 6.86798C107.099 6.7956 107.638 6.73356 108.206 6.68186C108.774 6.63016 109.346 6.60534 109.924 6.60534L109.922 6.60327ZM110.322 20.1181C110.81 20.1181 111.278 20.1077 111.723 20.0871C112.167 20.0664 112.522 20.0354 112.791 19.994V16.4907C112.59 16.4493 112.291 16.408 111.891 16.3666C111.491 16.3252 111.124 16.3046 110.79 16.3046C110.322 16.3046 109.883 16.3314 109.471 16.3831C109.059 16.4349 108.698 16.5341 108.386 16.6768C108.075 16.8216 107.831 17.018 107.652 17.2662C107.474 17.5144 107.386 17.8246 107.386 18.1968C107.386 18.9207 107.646 19.4211 108.169 19.7003C108.692 19.9795 109.408 20.1181 110.32 20.1181H110.322Z" fill="#ECF0F6"/>
<path d="M122.062 23.3443V0.033089L127.033 0V7.09967C127.367 6.99626 127.794 6.89906 128.317 6.806C128.839 6.71294 129.346 6.66744 129.834 6.66744C131.257 6.66744 132.44 6.84943 133.387 7.20927C134.333 7.57118 135.089 8.082 135.655 8.74378C136.223 9.40556 136.623 10.1914 136.857 11.0993C137.091 12.0093 137.207 13.0205 137.207 14.1373V23.3443H132.237V14.6957C132.237 13.2067 132.032 12.154 131.62 11.5336C131.208 10.9132 130.447 10.603 129.336 10.603C128.891 10.603 128.474 10.6402 128.085 10.7105C127.695 10.7829 127.345 10.8615 127.035 10.9421V23.3422H122.065L122.062 23.3443Z" fill="#ECF0F6"/>
<path d="M148.715 23.6525C147.27 23.6297 146.097 23.4725 145.197 23.1809C144.297 22.8893 143.585 22.4799 143.062 21.9525C142.539 21.4251 142.183 20.7861 141.994 20.0354C141.805 19.2847 141.711 18.4368 141.711 17.4958V0H146.681V16.4845C146.681 16.9333 146.714 17.3366 146.782 17.6964C146.849 18.0563 146.977 18.3582 147.165 18.6043C147.354 18.8525 147.627 19.0531 147.983 19.2103C148.338 19.3674 148.818 19.4688 149.419 19.5122L148.717 23.6504L148.715 23.6525Z" fill="#ECF0F6"/>
<path d="M159.056 6.60327C160.524 6.60327 161.746 6.75838 162.724 7.06859C163.702 7.3788 164.486 7.82343 165.076 8.40249C165.665 8.98155 166.083 9.68469 166.327 10.5098C166.571 11.3371 166.694 12.2574 166.694 13.2686V22.8789C165.983 23.0237 164.992 23.1954 163.725 23.3898C162.458 23.5862 160.922 23.6834 159.122 23.6834C157.988 23.6834 156.958 23.5904 156.036 23.4042C155.113 23.2181 154.317 22.9141 153.651 22.4901C152.984 22.0662 152.472 21.514 152.117 20.8316C151.76 20.1491 151.584 19.3115 151.584 18.3209C151.584 17.3303 151.789 16.5651 152.201 15.9034C152.613 15.2416 153.163 14.7142 153.852 14.3234C154.541 13.9304 155.33 13.6471 156.22 13.4713C157.11 13.2955 158.033 13.2087 158.988 13.2087C159.632 13.2087 160.206 13.2356 160.707 13.2873C161.207 13.339 161.613 13.4072 161.925 13.4879V13.0536C161.925 12.2677 161.668 11.639 161.158 11.1634C160.645 10.6877 159.757 10.4499 158.49 10.4499C157.645 10.4499 156.811 10.5078 155.988 10.6195C155.166 10.7332 154.455 10.8945 153.854 11.0992L153.22 7.3788C153.509 7.29607 153.87 7.20921 154.305 7.11615C154.738 7.02309 155.211 6.94037 155.722 6.86798C156.232 6.7956 156.772 6.73356 157.34 6.68186C157.908 6.63016 158.48 6.60534 159.058 6.60534L159.056 6.60327ZM159.456 20.1181C159.944 20.1181 160.411 20.1077 160.856 20.0871C161.301 20.0664 161.656 20.0354 161.925 19.994V16.4907C161.724 16.4493 161.424 16.408 161.024 16.3666C160.625 16.3252 160.258 16.3046 159.923 16.3046C159.456 16.3046 159.017 16.3314 158.605 16.3831C158.193 16.4349 157.832 16.5341 157.52 16.6768C157.209 16.8216 156.964 17.018 156.786 17.2662C156.608 17.5144 156.52 17.8246 156.52 18.1968C156.52 18.9207 156.78 19.4211 157.303 19.7003C157.826 19.9795 158.541 20.1181 159.454 20.1181H159.456Z" fill="#ECF0F6"/>
<path d="M185.218 19.6818C182.452 15.6077 178.495 9.78608 177.309 8.04064V23.3154H172.173V0H173.063C175.798 0 178.357 1.36079 179.901 3.63979C182.524 7.51121 186.344 13.155 186.881 13.9656V0H192.052V23.3154C189.319 23.3154 186.762 21.9566 185.218 19.6818Z" fill="#ECF0F6"/>
<path d="M201.385 2.55202C201.385 3.32134 201.139 3.92521 200.647 4.36571C200.155 4.80621 199.575 5.02542 198.906 5.02542C198.238 5.02542 197.658 4.80621 197.166 4.36571C196.673 3.92521 196.427 3.32134 196.427 2.55202C196.427 1.7827 196.673 1.17882 197.166 0.738326C197.658 0.297828 198.238 0.0786133 198.906 0.0786133C199.575 0.0786133 200.155 0.299896 200.647 0.738326C201.139 1.17882 201.385 1.7827 201.385 2.55202ZM201.385 23.3154H196.415V6.58681H201.385V23.3154Z" fill="#ECF0F6"/>
<path d="M212.363 6.60327C213.831 6.60327 215.053 6.75838 216.031 7.06859C217.009 7.3788 217.792 7.82343 218.383 8.40249C218.971 8.98155 219.39 9.68469 219.634 10.5098C219.878 11.3371 220.001 12.2574 220.001 13.2686V22.8789C219.289 23.0237 218.299 23.1954 217.032 23.3898C215.764 23.5862 214.229 23.6834 212.428 23.6834C211.294 23.6834 210.265 23.5904 209.342 23.4042C208.42 23.2181 207.624 22.9141 206.958 22.4901C206.291 22.0662 205.778 21.514 205.424 20.8316C205.067 20.1491 204.891 19.3115 204.891 18.3209C204.891 17.3303 205.096 16.5651 205.508 15.9034C205.92 15.2416 206.47 14.7142 207.158 14.3234C207.847 13.9304 208.637 13.6471 209.527 13.4713C210.417 13.2955 211.339 13.2087 212.295 13.2087C212.939 13.2087 213.513 13.2356 214.013 13.2873C214.514 13.339 214.92 13.4072 215.231 13.4879V13.0536C215.231 12.2677 214.975 11.639 214.464 11.1634C213.952 10.6877 213.064 10.4499 211.797 10.4499C210.952 10.4499 210.117 10.5078 209.295 10.6195C208.473 10.7332 207.761 10.8945 207.161 11.0992L206.527 7.3788C206.816 7.29607 207.177 7.20921 207.612 7.11615C208.044 7.02309 208.518 6.94037 209.029 6.86798C209.539 6.7956 210.078 6.73356 210.646 6.68186C211.214 6.63016 211.786 6.60534 212.365 6.60534L212.363 6.60327ZM212.762 20.1181C213.251 20.1181 213.718 20.1077 214.163 20.0871C214.608 20.0664 214.963 20.0354 215.231 19.994V16.4907C215.03 16.4493 214.731 16.408 214.331 16.3666C213.931 16.3252 213.564 16.3046 213.23 16.3046C212.762 16.3046 212.324 16.3314 211.912 16.3831C211.499 16.4349 211.139 16.5341 210.827 16.6768C210.515 16.8216 210.271 17.018 210.093 17.2662C209.914 17.5144 209.826 17.8246 209.826 18.1968C209.826 18.9207 210.087 19.4211 210.609 19.7003C211.132 19.9795 211.848 20.1181 212.76 20.1181H212.762Z" fill="#ECF0F6"/>
<path d="M87.7129 35.3431H89.989V53.7241C89.4661 53.873 88.7976 54.0198 87.9836 54.1687C87.1675 54.3176 86.2304 54.39 85.1703 54.39C84.1922 54.39 83.3105 54.2328 82.5293 53.9206C81.746 53.6083 81.0775 53.1636 80.5239 52.5887C79.9702 52.0138 79.5417 51.3107 79.2403 50.4793C78.9388 49.65 78.7871 48.7152 78.7871 47.6791C78.7871 46.643 78.9122 45.7889 79.1664 44.9658C79.4187 44.1427 79.7898 43.4355 80.2799 42.844C80.7699 42.2525 81.3687 41.7914 82.0782 41.4625C82.7876 41.1337 83.5996 40.9683 84.5121 40.9683C85.2462 40.9683 85.8941 41.0675 86.456 41.264C87.0178 41.4605 87.4382 41.6507 87.715 41.8307V35.3411L87.7129 35.3431ZM87.7129 43.9773C87.4361 43.7477 87.0363 43.5244 86.5134 43.3114C85.9905 43.0984 85.4205 42.9908 84.8012 42.9908C84.1492 42.9908 83.5894 43.1108 83.126 43.3486C82.6605 43.5864 82.2812 43.9153 81.9879 44.3351C81.6947 44.7549 81.4815 45.2512 81.3523 45.8282C81.221 46.4052 81.1575 47.0215 81.1575 47.6791C81.1575 49.1764 81.5245 50.3304 82.2586 51.1452C82.9927 51.96 83.9708 52.3674 85.1949 52.3674C85.8142 52.3674 86.3329 52.3385 86.7492 52.2806C87.1654 52.2227 87.4874 52.1606 87.715 52.0965V43.9794L87.7129 43.9773Z" fill="#ECF0F6"/>
<path d="M107.138 47.7041C107.138 46.5687 107.3 45.5781 107.628 44.7302C107.954 43.8823 108.386 43.1792 108.924 42.6208C109.461 42.0624 110.082 41.6426 110.783 41.3634C111.485 41.0842 112.202 40.9436 112.937 40.9436C114.649 40.9436 115.961 41.4834 116.876 42.5588C117.788 43.6362 118.245 45.2762 118.245 47.4808V47.8633C118.245 48.0205 118.237 48.1632 118.221 48.2956H109.512C109.611 49.6274 109.992 50.6387 110.663 51.3294C111.331 52.0202 112.375 52.3655 113.794 52.3655C114.593 52.3655 115.266 52.2952 115.811 52.1566C116.357 52.0181 116.769 51.8816 117.046 51.7492L117.364 53.6725C117.087 53.8214 116.601 53.9765 115.908 54.142C115.215 54.3054 114.427 54.3881 113.548 54.3881C112.438 54.3881 111.481 54.2185 110.673 53.8814C109.865 53.5443 109.201 53.079 108.68 52.4875C108.157 51.8961 107.771 51.1929 107.517 50.3781C107.265 49.5633 107.138 48.672 107.138 47.702V47.7041ZM115.871 46.4467C115.887 45.4106 115.631 44.5586 115.1 43.8927C114.569 43.2267 113.841 42.8938 112.91 42.8938C112.387 42.8938 111.928 42.9972 111.528 43.2019C111.128 43.4087 110.79 43.6755 110.513 44.0043C110.236 44.3332 110.019 44.7116 109.865 45.1397C109.709 45.5678 109.609 46.0042 109.559 46.4467H115.871Z" fill="#ECF0F6"/>
<path d="M138.424 52.4419C139.353 52.4419 140.042 52.3178 140.491 52.0717C140.94 51.8256 141.164 51.4306 141.164 50.8867C141.164 50.3428 140.944 49.8837 140.503 49.5549C140.063 49.2261 139.337 48.8559 138.326 48.4444C137.836 48.2479 137.368 48.0452 136.919 47.8405C136.47 47.6357 136.083 47.3917 135.757 47.1125C135.431 46.8333 135.17 46.4962 134.973 46.1012C134.778 45.7062 134.68 45.2223 134.68 44.6453C134.68 43.51 135.096 42.6103 135.927 41.9444C136.759 41.2785 137.891 40.9456 139.326 40.9456C139.685 40.9456 140.044 40.9662 140.403 41.0076C140.762 41.049 141.096 41.0986 141.406 41.1565C141.715 41.2144 141.988 41.2764 142.226 41.3426C142.462 41.4088 142.646 41.4667 142.775 41.5143L142.359 43.4872C142.115 43.3549 141.732 43.2204 141.209 43.0798C140.686 42.9412 140.059 42.8709 139.324 42.8709C138.689 42.8709 138.133 42.9991 137.661 43.2535C137.188 43.5079 136.952 43.907 136.952 44.4509C136.952 44.7301 137.005 44.9783 137.112 45.1913C137.219 45.4043 137.381 45.5987 137.602 45.7704C137.821 45.942 138.094 46.1033 138.422 46.2522C138.748 46.4011 139.14 46.5562 139.597 46.7217C140.2 46.9512 140.739 47.1787 141.211 47.4C141.685 47.6213 142.086 47.8818 142.423 48.1776C142.757 48.4733 143.013 48.8311 143.194 49.2509C143.372 49.6707 143.462 50.1836 143.462 50.7937C143.462 51.9787 143.026 52.8741 142.154 53.4822C141.281 54.0902 140.038 54.3942 138.424 54.3942C137.299 54.3942 136.419 54.299 135.783 54.1109C135.148 53.9227 134.715 53.7779 134.487 53.6786L134.904 51.7057C135.164 51.805 135.58 51.9518 136.15 52.1503C136.72 52.3489 137.479 52.4461 138.424 52.4461V52.4419Z" fill="#ECF0F6"/>
<path d="M161.443 38.9457C161.035 38.9457 160.688 38.8092 160.403 38.5383C160.118 38.2673 159.975 37.9013 159.975 37.4401C159.975 36.9789 160.118 36.6129 160.403 36.342C160.688 36.0711 161.035 35.9346 161.443 35.9346C161.851 35.9346 162.197 36.0711 162.482 36.342C162.767 36.6129 162.911 36.9789 162.911 37.4401C162.911 37.9013 162.767 38.2673 162.482 38.5383C162.197 38.8092 161.851 38.9457 161.443 38.9457ZM162.593 54.0942H160.319V41.264H162.593V54.0942Z" fill="#ECF0F6"/>
<path d="M188.425 52.8122C188.23 52.9445 187.851 53.112 187.287 53.3188C186.725 53.5256 186.067 53.627 185.319 53.627C184.57 53.627 183.83 53.5029 183.153 53.2568C182.477 53.0107 181.886 52.6281 181.38 52.109C180.873 51.592 180.475 50.9447 180.18 50.1712C179.887 49.3978 179.739 48.4775 179.739 47.4083C179.739 46.4715 179.877 45.6112 180.156 44.8294C180.432 44.0477 180.836 43.3735 181.367 42.8069C181.896 42.2402 182.544 41.7956 183.311 41.475C184.078 41.1545 184.941 40.9932 185.905 40.9932C186.965 40.9932 187.89 41.0718 188.681 41.2269C189.473 41.384 190.137 41.5267 190.675 41.6591V53.1058C190.675 55.0788 190.168 56.5098 189.157 57.3991C188.146 58.2863 186.613 58.731 184.558 58.731C183.758 58.731 183.004 58.6648 182.294 58.5345C181.585 58.4021 180.97 58.247 180.447 58.065L180.863 56.0673C181.32 56.2472 181.878 56.4085 182.538 56.5491C183.198 56.6877 183.887 56.758 184.605 56.758C185.958 56.758 186.932 56.4871 187.529 55.9432C188.124 55.4014 188.421 54.5369 188.421 53.3519V52.8101L188.425 52.8122ZM188.401 43.2887C188.173 43.2225 187.865 43.1605 187.484 43.1047C187.101 43.0468 186.582 43.0178 185.93 43.0178C184.708 43.0178 183.764 43.4211 183.104 44.2255C182.444 45.0321 182.114 46.1013 182.114 47.4331C182.114 48.1735 182.208 48.8063 182.395 49.3337C182.581 49.861 182.836 50.2953 183.153 50.6407C183.471 50.9861 183.838 51.2404 184.254 51.4059C184.671 51.5713 185.099 51.652 185.538 51.652C186.141 51.652 186.697 51.5651 187.201 51.3935C187.705 51.2218 188.105 51.0191 188.401 50.7896V43.2887Z" fill="#ECF0F6"/>
<path d="M208.532 41.6343C209.053 41.504 209.746 41.3633 210.611 41.2144C211.475 41.0655 212.471 40.9932 213.595 40.9932C214.606 40.9932 215.447 41.1379 216.115 41.4254C216.783 41.7128 217.317 42.1161 217.716 42.6352C218.116 43.1522 218.397 43.7747 218.561 44.4985C218.723 45.2224 218.805 46.0206 218.805 46.8913V54.0944H216.531V47.3835C216.531 46.5935 216.478 45.9193 216.371 45.3609C216.265 44.8025 216.09 44.3496 215.846 44.0043C215.602 43.6589 215.276 43.4087 214.868 43.2515C214.46 43.0964 213.954 43.0178 213.351 43.0178C213.107 43.0178 212.853 43.0261 212.592 43.0426C212.332 43.0592 212.082 43.0798 211.846 43.1047C211.61 43.1295 211.397 43.1584 211.21 43.1915C211.022 43.2246 210.888 43.2494 210.806 43.266V54.0964H208.532V41.6363V41.6343Z" fill="#ECF0F6"/>
</g>
<defs>
<clipPath id="clip0_352_82">
<rect width="220" height="58.733" fill="white"/>
</clipPath>
</defs>
</svg>
