<?xml version="1.0" encoding="UTF-8"?>
<svg id="Layer_1" data-name="Layer 1" xmlns="http://www.w3.org/2000/svg" viewBox="0 0 264.3 264.3">
  <defs>
    <style>
      .cls-1 {
        fill: #203969;
        stroke-width: 0px;
      }
    </style>
  </defs>
  <path class="cls-1" d="m264.3,264.3h-56.97c-28.45,0-61.5-24.27-84.42-61.99L0,0h56.97C85.42,0,118.47,24.27,141.39,62l122.91,202.3Z"/>
  <path class="cls-1" d="m37.13,248.89v15.41h-16.35c-3.24,0-6.45-.83-9.26-2.46-1.91-1.11-3.56-2.39-4.93-3.75-2.55-2.55-4.28-5.64-5.2-9.27-.93-3.64-1.39-7.73-1.39-12.29v-84.59h14.95v74.09c0,7.64,1.84,13.36,5.53,17.16s9.24,5.7,16.65,5.7Z"/>
  <path class="cls-1" d="m227.17,15.41V0h16.35c3.24,0,6.45.83,9.26,2.46,1.91,1.11,3.56,2.39,4.93,3.75,2.55,2.55,4.28,5.64,5.2,9.27.93,3.64,1.39,7.73,1.39,12.29v84.59h-14.95V38.27c0-7.64-1.84-13.36-5.53-17.16s-9.24-5.7-16.65-5.7Z"/>
</svg>