<?xml version="1.0" encoding="UTF-8"?>
<svg xmlns="http://www.w3.org/2000/svg" xmlns:xlink="http://www.w3.org/1999/xlink" viewBox="0 0 461.23 461.23">
  <defs>
    <linearGradient id="linear-gradient" x1="404.77" y1="403.9" x2="345.63" y2="350.65" gradientUnits="userSpaceOnUse">
      <stop offset="0" stop-color="#1f3051"/>
      <stop offset=".04" stop-color="#1b2a48" stop-opacity=".9"/>
      <stop offset=".17" stop-color="#111b2e" stop-opacity=".57"/>
      <stop offset=".32" stop-color="#090f19" stop-opacity=".32"/>
      <stop offset=".48" stop-color="#04060b" stop-opacity=".14"/>
      <stop offset=".68" stop-color="#000102" stop-opacity=".03"/>
      <stop offset="1" stop-color="#000" stop-opacity="0"/>
    </linearGradient>
  </defs>
  <g id="Dark_BG" data-name="Dark BG">
    <rect id="Dark_BG-2" data-name="Dark BG" x="-1219.6" y="-100.55" width="3532.6" height="1526.69" fill="#1f3051" stroke-width="0"/>
  </g>
  <g id="Icons">
    <g id="Sticker">
      <g>
        <polygon points="460.37 0 460.37 332.08 332.08 460.37 0 460.37 0 0 460.37 0" fill="#ecf0f6" fill-rule="evenodd" stroke-width="0"/>
        <path d="M331.9,460.37s5.21.71,22.17-12.01c19.91-14.92,87-79.48,97.92-100.27,9.95-18.95,8.04-16.25,8.04-16.25,0,0-10.19,7.13-16.93,10.15-6.49,2.91-22.49,6.2-58.02,6.03-10.1-.05-36.15-1.04-36.15-1.04,0,0,1.9,25.72,2.45,37.37,2.44,51.73-11.44,66.91-14.72,70.43-3.28,3.52-4.76,5.59-4.76,5.59Z" fill="url(#linear-gradient)" fill-rule="evenodd" opacity=".27" stroke-width="0"/>
        <path d="M331.9,460.37s3.99,1.2,22.74-12.02c20.34-14.33,86.92-79.52,97.92-100.27,11.54-21.78,6.89-15.58,6.89-15.58,0,0-.95,1.1-5.1,5.64s-17.95,18.11-54.14,21.63c-10.05.98-33.34.71-41.29.9.52,5.73,3.72,55.49-2.18,69.52-5.55,13.19-15.01,20.39-18.29,23.91-3.28,3.52-6.56,6.26-6.56,6.26Z" fill="#abb7c9" fill-rule="evenodd" stroke-width="0"/>
      </g>
    </g>
  </g>
</svg>