<?xml version="1.0" encoding="UTF-8"?>
<svg id="Layer_1" xmlns="http://www.w3.org/2000/svg" version="1.1" xmlns:xlink="http://www.w3.org/1999/xlink" viewBox="0 0 461.2 461.2">
  <!-- Generator: Adobe Illustrator 29.8.0, SVG Export Plug-In . SVG Version: 2.1.1 Build 160)  -->
  <defs>
    <style>
      .st0 {
        fill: #1f3051;
      }

      .st1 {
        fill: url(#linear-gradient);
        isolation: isolate;
        opacity: .3;
      }

      .st1, .st2, .st3 {
        fill-rule: evenodd;
      }

      .st2 {
        fill: #ecf0f6;
      }

      .st3 {
        fill: #abb7c9;
      }

      .st4 {
        display: none;
      }
    </style>
    <linearGradient id="linear-gradient" x1="404.8" y1="60.1" x2="345.6" y2="113.3" gradientTransform="translate(0 464) scale(1 -1)" gradientUnits="userSpaceOnUse">
      <stop offset="0" stop-color="#1f3051"/>
      <stop offset="0" stop-color="#1b2a48" stop-opacity=".9"/>
      <stop offset=".2" stop-color="#111b2e" stop-opacity=".6"/>
      <stop offset=".3" stop-color="#090f19" stop-opacity=".3"/>
      <stop offset=".5" stop-color="#04060b" stop-opacity=".1"/>
      <stop offset=".7" stop-color="#000102" stop-opacity="0"/>
      <stop offset="1" stop-color="#000" stop-opacity="0"/>
    </linearGradient>
  </defs>
  <g id="Dark_BG" class="st4">
    <rect id="Dark_BG-2" class="st0" x="-1219.6" y="-100.6" width="3532.6" height="1526.7"/>
  </g>
  <g id="Icons">
    <g id="Sticker">
      <g>
        <polygon class="st2" points="460.4 0 460.4 332.1 332.1 460.4 0 460.4 0 0 460.4 0"/>
        <path class="st1" d="M331.9,460.4s5.2.7,22.2-12c19.9-14.9,87-79.5,97.9-100.3,10-19,8-16.2,8-16.2,0,0-10.2,7.1-16.9,10.1-6.5,2.9-22.5,6.2-58,6-10.1,0-36.1-1-36.1-1,0,0,1.9,25.7,2.5,37.4,2.4,51.7-11.4,66.9-14.7,70.4s-4.8,5.6-4.8,5.6h0Z"/>
        <path class="st3" d="M331.9,460.4s4,1.2,22.7-12c20.3-14.3,86.9-79.5,97.9-100.3,11.5-21.8,6.9-15.6,6.9-15.6,0,0-1,1.1-5.1,5.6s-18,18.1-54.1,21.6c-10,1-33.3.7-41.3.9.5,5.7,3.7,55.5-2.2,69.5-5.5,13.2-15,20.4-18.3,23.9-3.3,3.5-6.6,6.3-6.6,6.3h0Z"/>
      </g>
    </g>
  </g>
</svg>