<svg width="236" height="236" viewBox="0 0 236 236" fill="none" xmlns="http://www.w3.org/2000/svg">
<g clip-path="url(#clip0_655_2235)">
<path d="M125.678 0.24806C109.246 -0.814597 92.7701 1.54484 77.3121 7.17458C61.8546 12.8043 47.7564 21.5797 35.9246 32.9362C24.0929 44.2928 14.7897 57.9791 8.61341 73.1146C2.43715 88.25 -0.475391 104.5 0.0631101 120.819C2.06262 182.192 52.5617 232.095 114.453 233.875C134.722 234.518 154.813 229.95 172.774 220.615C173.301 220.339 173.893 220.211 174.487 220.243C175.082 220.276 175.657 220.468 176.15 220.799C179.577 223.058 183.149 225.09 186.845 226.885C199.662 233.023 213.736 236.14 227.969 235.995C228.404 235.998 228.834 235.915 229.236 235.752C229.638 235.589 230.004 235.35 230.312 235.046C230.621 234.743 230.866 234.383 231.034 233.985C231.201 233.588 231.288 233.161 231.29 232.731V193.027C231.293 192.258 231.022 191.513 230.523 190.925C230.023 190.337 229.329 189.945 228.565 189.818C224.766 189.237 221.058 188.183 217.526 186.683C217.089 186.492 216.7 186.208 216.385 185.852C216.071 185.497 215.838 185.077 215.705 184.623C215.571 184.168 215.539 183.691 215.611 183.224C215.683 182.755 215.857 182.309 216.121 181.915C230.321 160.898 237.235 135.87 235.819 110.611C232.638 51.7737 184.994 3.98246 125.678 0.24806ZM46.5446 116.983C46.5446 102.973 50.7347 89.2781 58.5849 77.63C66.4351 65.9811 77.5931 56.9022 90.6476 51.5409C103.702 46.1797 118.066 44.7769 131.925 47.51C145.784 50.2431 158.514 56.9894 168.505 66.8957C178.496 76.8018 185.301 89.4234 188.057 103.164C190.814 116.904 189.399 131.147 183.991 144.09C178.584 157.033 169.427 168.095 157.679 175.879C145.93 183.663 132.117 187.817 117.987 187.817C99.0396 187.817 80.8676 180.354 67.4697 167.07C54.0715 153.786 46.5446 135.769 46.5446 116.983Z" fill="white"/>
</g>
<defs>
<clipPath id="clip0_655_2235">
<rect width="236" height="236" fill="white"/>
</clipPath>
</defs>
</svg>
