<?xml version="1.0" encoding="UTF-8"?>
<svg id="image-2" xmlns="http://www.w3.org/2000/svg" version="1.1" xmlns:xlink="http://www.w3.org/1999/xlink" viewBox="0 0 72 72">
  <defs>
    <style>
      .cls-1 {
        fill: url(#linear-gradient);
      }

      .cls-1, .cls-2, .cls-3, .cls-4, .cls-5, .cls-6, .cls-7, .cls-8 {
        stroke-width: 0px;
      }

      .cls-2 {
        fill: url(#linear-gradient-2);
      }

      .cls-3 {
        fill: url(#radial-gradient-2);
      }

      .cls-4 {
        fill: url(#linear-gradient-3);
      }

      .cls-5 {
        fill: url(#radial-gradient);
      }

      .cls-6 {
        fill: url(#radial-gradient-3);
      }

      .cls-7 {
        fill: url(#linear-gradient-4);
      }

      .cls-8 {
        fill: url(#radial-gradient-4);
      }
    </style>
    <radialGradient id="radial-gradient" cx="-1884.5" cy="756.8" fx="-1884.5" fy="756.8" r="1.6" gradientTransform="translate(-63270.2 43456.8) rotate(110.5) scale(33.4 -58.2)" gradientUnits="userSpaceOnUse">
      <stop offset="0" stop-color="#ae7fe2"/>
      <stop offset="1" stop-color="#0078d4"/>
    </radialGradient>
    <linearGradient id="linear-gradient" x1="35.7" y1="21.1" x2="28.1" y2="34.2" gradientTransform="translate(0 73.4) scale(1 -1)" gradientUnits="userSpaceOnUse">
      <stop offset="0" stop-color="#114a8b"/>
      <stop offset="1" stop-color="#0078d4" stop-opacity="0"/>
    </linearGradient>
    <radialGradient id="radial-gradient-2" cx="-1826" cy="676.8" fx="-1826" fy="676.8" r="1.6" gradientTransform="translate(58129 5539.2) rotate(-8.4) scale(31.1 -20.5)" gradientUnits="userSpaceOnUse">
      <stop offset=".1" stop-color="#d59dff"/>
      <stop offset="1" stop-color="#5e438f"/>
    </radialGradient>
    <linearGradient id="linear-gradient-2" x1="54.3" y1="40.6" x2="46.2" y2="29" gradientTransform="translate(0 73.4) scale(1 -1)" gradientUnits="userSpaceOnUse">
      <stop offset="0" stop-color="#493474"/>
      <stop offset="1" stop-color="#8c66ba" stop-opacity="0"/>
    </linearGradient>
    <radialGradient id="radial-gradient-3" cx="-1963.6" cy="726.6" fx="-1963.6" fy="726.6" r="1.6" gradientTransform="translate(-39882.5 -41536.8) rotate(-165.8) scale(24.9 -42)" gradientUnits="userSpaceOnUse">
      <stop offset="0" stop-color="#50e6ff"/>
      <stop offset="1" stop-color="#436dcd"/>
    </radialGradient>
    <linearGradient id="linear-gradient-3" x1="24.8" y1="49.4" x2="36.8" y2="49.4" gradientTransform="translate(0 73.4) scale(1 -1)" gradientUnits="userSpaceOnUse">
      <stop offset="0" stop-color="#2d3f80"/>
      <stop offset="1" stop-color="#436dcd" stop-opacity="0"/>
    </linearGradient>
    <radialGradient id="radial-gradient-4" cx="-1961.4" cy="727.1" fx="-1961.4" fy="727.1" r="0" gradientTransform="translate(-39882.5 -41536.8) rotate(-165.8) scale(24.9 -42)" gradientUnits="userSpaceOnUse">
      <stop offset="0" stop-color="#50e6ff"/>
      <stop offset="1" stop-color="#436dcd"/>
    </radialGradient>
    <linearGradient id="linear-gradient-4" x1="4.2" y1="26.3" x2="4.2" y2="26.3" gradientTransform="translate(0 73.4) scale(1 -1)" gradientUnits="userSpaceOnUse">
      <stop offset="0" stop-color="#2d3f80"/>
      <stop offset="1" stop-color="#436dcd" stop-opacity="0"/>
    </linearGradient>
  </defs>
  <path class="cls-5" d="M29.8,2.6l-.4.2c-.6.3-1.1.7-1.6,1.1l1-.7h8.8l1.6,12-8,8-8,5.5v6.4c0,4.5,2.3,8.6,6.1,10.9l8.4,5.1-17.7,10.3h-3.4l-6.4-3.8c-3.8-2.3-6.1-6.4-6.1-10.9v-21.4c0-4.5,2.3-8.6,6.1-10.9L29.4,2.8c.1,0,.2-.1.4-.2Z"/>
  <path class="cls-1" d="M29.8,2.6l-.4.2c-.6.3-1.1.7-1.6,1.1l1-.7h8.8l1.6,12-8,8-8,5.5v6.4c0,4.5,2.3,8.6,6.1,10.9l8.4,5.1-17.7,10.3h-3.4l-6.4-3.8c-3.8-2.3-6.1-6.4-6.1-10.9v-21.4c0-4.5,2.3-8.6,6.1-10.9L29.4,2.8c.1,0,.2-.1.4-.2Z"/>
  <path class="cls-3" d="M48.7,28v7.1c0,4.5-2.3,8.6-6.1,10.9l-19.1,11.6c-3.9,2.4-8.8,2.4-12.7.3l18.6,11.3c4.1,2.5,9.1,2.5,13.2,0l19.1-11.6c3.8-2.3,6.1-6.4,6.1-10.9v-5.1l-1.6-2.4-17.5-11.1Z"/>
  <path class="cls-2" d="M48.7,28v7.1c0,4.5-2.3,8.6-6.1,10.9l-19.1,11.6c-3.9,2.4-8.8,2.4-12.7.3l18.6,11.3c4.1,2.5,9.1,2.5,13.2,0l19.1-11.6c3.8-2.3,6.1-6.4,6.1-10.9v-5.1l-1.6-2.4-17.5-11.1Z"/>
  <path class="cls-6" d="M61.7,14.4L42.6,2.8c-3.9-2.4-8.8-2.4-12.8-.2l-.4.2c-3.8,2.3-6.1,6.4-6.1,10.9v15.1l6.1-3.7c4-2.4,9.1-2.4,13.2,0l19.1,11.5c3.7,2.2,6,6.2,6.1,10.5,0-.1,0-.3,0-.4v-21.4c0-4.5-2.3-8.6-6.1-10.9Z"/>
  <path class="cls-4" d="M61.7,14.4L42.6,2.8c-3.9-2.4-8.8-2.4-12.8-.2l-.4.2c-3.8,2.3-6.1,6.4-6.1,10.9v15.1l6.1-3.7c4-2.4,9.1-2.4,13.2,0l19.1,11.5c3.7,2.2,6,6.2,6.1,10.5,0-.1,0-.3,0-.4v-21.4c0-4.5-2.3-8.6-6.1-10.9Z"/>
  <path class="cls-8" d="M4.2,47.1h0Z"/>
  <path class="cls-7" d="M4.2,47.1h0Z"/>
</svg>