<?xml version="1.0" encoding="UTF-8"?>
<svg id="Layer_1" data-name="Layer 1" xmlns="http://www.w3.org/2000/svg" version="1.1" viewBox="0 0 72 72">
  <defs>
    <style>
      .cls-1 {
        fill: #f9ab00;
      }

      .cls-1, .cls-2 {
        stroke-width: 0px;
      }

      .cls-2 {
        fill: #e37400;
      }
    </style>
  </defs>
  <path class="cls-1" d="M67.6,62.2c0,4.8-3.9,8.8-8.6,8.8h-1c-4.5-.6-7.7-4.6-7.6-9.1V10.1c-.1-4.5,3.1-8.3,7.6-9.1,4.8-.6,9.1,2.8,9.7,7.6v53.6Z"/>
  <path class="cls-2" d="M13,53.7c4.8,0,8.6,3.9,8.6,8.6s-3.9,8.6-8.6,8.6-8.6-3.9-8.6-8.6h0c-.1-4.8,3.9-8.6,8.6-8.6ZM35.8,27.4c-4.8.3-8.5,4.3-8.5,9.1v23.4c0,6.2,2.8,10.1,6.8,11,4.8.9,9.2-2.1,10.3-6.8.1-.6.1-1.2.1-1.8v-26c0-4.8-3.9-8.8-8.6-8.8h-.1Z"/>
</svg>