<?xml version="1.0" encoding="UTF-8"?>
<svg id="Layer_1" data-name="Layer 1" xmlns="http://www.w3.org/2000/svg" version="1.1" viewBox="0 0 72 72">
  <defs>
    <style>
      .cls-1 {
        fill: #ff7a59;
        stroke-width: 0px;
      }
    </style>
  </defs>
  <path class="cls-1" d="M54,24.1v-8.2c2.4-.9,3.8-3.3,3.8-5.7h0c0-3.8-2.8-6.6-6.4-6.6h0c-3.5,0-6.4,2.8-6.4,6.4h0c0,2.6,1.4,4.9,3.8,5.9v8.2c-3.1.5-6.1,1.9-8.7,3.8L17,10.2c0-.5.2-1.2.2-1.9,0-4-3.3-7.3-7.3-7.3s-7.3,3.3-7.3,7.3,3.3,7.3,7.3,7.3h0c1.2,0,2.4-.2,3.5-.9l22.4,17.4c-4.2,6.1-4,14.4.2,20.5l-6.8,6.8c-.5,0-1.2-.2-1.6-.2-3.3,0-5.9,2.6-5.9,5.9s2.6,5.9,5.9,5.9,5.9-2.6,5.9-5.9,0-1.2-.2-1.6l6.8-6.8c8,6.1,19.3,4.7,25.5-3.3,6.1-8,4.7-19.3-3.3-25.5-2.4-1.9-5.4-3.1-8.5-3.5M51.2,51.4c-5.2,0-9.4-4-9.7-9.2,0-5.2,4-9.4,9.2-9.7h.5c5.2,0,9.2,4.5,9,9.7,0,4.9-4,8.7-9,9"/>
</svg>