<?xml version="1.0" encoding="UTF-8"?>
<svg id="Layer_1" data-name="Layer 1" xmlns="http://www.w3.org/2000/svg" viewBox="0 0 117.6 141.57">
  <defs>
    <style>
      .cls-1 {
        fill: rgba(255, 255, 255, .96);
      }

      .cls-1, .cls-2 {
        stroke-width: 0px;
      }

      .cls-2 {
        fill: #ff1a1a;
      }
    </style>
  </defs>
  <g id="layer1">
    <g id="g832">
      <path id="path815" class="cls-1" d="m.89,88.19c.12,1.16.38,2.3.85,3.36.31.7.66,1.38,1.06,2.04,1.12,1.73,2.58,3.21,4.3,4.36,2.48,1.62,5.38,2.53,8.35,2.6h1.37c2.32-.05,4.62-.38,6.86-.96h.37l9.7-2.15c-1.53,2.07-3.02,4.08-4.46,6.08l-.81,1.12c-1.17,1.58-2.18,2.98-3.07,4.32l-.25.38-.18.26-.08.12v.12c-1.39,1.99-2.48,4.16-3.23,6.46-.61,1.94-.8,3.99-.56,6.01.27,2.06.99,4.05,2.1,5.82v.09c.4.62.86,1.22,1.32,1.72l.11.11.09.12c.49.57,1.03,1.1,1.58,1.62.64.63,1.34,1.2,2.07,1.73,3.47,2.33,7.27,4.15,11.27,5.42,3.41,1.11,6.95,1.78,10.53,1.98h1.02c.59,0,1.17-.02,1.75-.09.73-.06,1.46-.16,2.17-.29h.32c.73-.17,1.47-.38,2.18-.62h.11c1.97-.72,3.76-1.83,5.27-3.27,1.44-1.44,2.57-3.16,3.32-5.04.85-2.26,1.36-4.63,1.51-7.03v-.31c.01-.1.01-.21,0-.31v-.4c.15-1.72.23-3.31.31-5.17v-2.65l.6,1.06.68,1.26c.95,1.72,1.75,3.17,2.6,4.55l.21.34.19.31v.11l.09.14c1.34,2.05,2.99,3.88,4.87,5.46,1.51,1.39,3.3,2.46,5.27,3.12h.11c1.52.5,3.12.76,4.72.76.5,0,1-.03,1.49-.09h.16c.75-.08,1.5-.21,2.25-.38h.31c.72-.18,1.43-.42,2.13-.68.83-.31,1.63-.67,2.4-1.09,3.14-1.72,6.03-3.85,8.6-6.32,3.03-2.86,5.63-6.13,7.72-9.72.81-1.43,1.42-2.95,1.83-4.53v-.29c.17-.71.3-1.44.39-2.17v-.23c.2-2.05-.04-4.11-.7-6.06-.69-1.93-1.79-3.69-3.23-5.17-1.7-1.73-3.64-3.22-5.77-4.41h-.13l-.14-.08-.28-.16-.35-.23c-1.4-.81-2.96-1.72-4.61-2.51l-1.37-.73c-2.18-1.19-4.39-2.34-6.62-3.45l9.62-2.19h.37c2.73-.51,5.37-1.43,7.81-2.74,2.64-1.35,4.84-3.4,6.34-5.93.99-1.76,1.59-3.7,1.75-5.7.77-6.22-1.89-11.72-3.49-15h0c-2-4.13-4.7-7.9-7.97-11.15-.66-.63-1.36-1.2-2.11-1.72-.56-.43-1.15-.82-1.75-1.19h-.13l-.16-.09c-.66-.35-1.33-.66-2.02-.95h-.18c-1.73-.67-3.58-1.02-5.44-1.02h-.77c-2.05.13-4.04.67-5.86,1.59-2.15,1.12-4.13,2.54-5.86,4.22h-.11l-.11.11c-.07.08-.14.15-.23.21l-.33.31c-1.19,1.1-2.39,2.29-3.77,3.68l-.98,1c-1.24,1.22-2.48,2.46-3.7,3.7.38-6.51.79-13.18,1.12-19.79,0-.84.09-1.72.16-2.55.25-2.89.31-5.8.18-8.7v-.71c-.18-3.31-.46-8.29-3.81-12.56-2.47-3.18-7.39-6.89-16.76-6.89-2.12.01-4.24.17-6.34.47-3.45.48-6.85,1.25-10.16,2.29-10.42,3.36-16.44,8.61-17.96,15.75-1.11,5.29.88,9.89,2.18,12.93l.28.66c1.18,2.67,2.53,5.26,4.06,7.75l1.27,2.22c3.23,5.76,6.5,11.51,9.81,17.23l-5.02-1.72-1.28-.45c-1.86-.67-3.51-1.24-5.04-1.73l-.42-.12-.3-.09h-.28c-2.31-.76-4.73-1.18-7.16-1.26h-.24c-1.3,0-2.61.13-3.86.46-2.72.73-5.16,2.19-7.05,4.2-.48.56-.94,1.13-1.37,1.73l-.1.14-.11.16c-.89,1.32-1.61,2.75-2.16,4.24v.11c-1.19,3.44-1.9,7.01-2.12,10.62-.09,1.53-.09,5.95.11,7.47.19,1.43.78,4.63.78,4.63Z"/>
      <path id="path817" class="cls-2" d="m41.45,85.76l5.79-1.31c.12-.03.33-.07.57-.15,3.32-.87,5.35-4.18,4.57-7.47l-.02-.1c-.19-.76-.53-1.48-.99-2.11-.65-.81-1.45-1.48-2.36-1.99-1.07-.6-2.2-1.11-3.36-1.52l-6.35-2.28c-3.56-1.3-7.13-2.57-10.73-3.8-2.33-.81-4.31-1.53-6.02-2.05-.33-.09-.65-.19-.97-.29-2.07-.62-3.54-.88-4.77-.89-.82-.03-1.64.12-2.4.43-.79.34-1.51.84-2.09,1.46-.29.32-.56.66-.82,1.01-.5.75-.9,1.55-1.22,2.38-1.18,3.42-1.77,7.01-1.74,10.62.02,3.26.11,7.45,1.94,10.29.44.73,1.03,1.36,1.74,1.85,1.3.88,2.61,1,3.99,1.1,2.05.14,4.02-.35,6-.8l19.24-4.36h.01Zm64.61-30.17c-1.58-3.26-3.71-6.23-6.29-8.8-.33-.33-.69-.63-1.07-.9-.35-.26-.71-.5-1.09-.72-.39-.21-.78-.4-1.19-.56-.8-.31-1.66-.45-2.53-.41-.82.05-1.63.27-2.36.65-1.1.54-2.3,1.41-3.89,2.85-.22.21-.49.46-.74.68-1.31,1.21-2.77,2.7-4.5,4.44-2.68,2.66-5.32,5.34-7.95,8.04l-4.7,4.78c-.86.87-1.64,1.82-2.34,2.82-.6.85-1.02,1.8-1.24,2.81-.13.77-.11,1.56.06,2.33l.02.1c.77,3.29,4.06,5.39,7.43,4.75.2-.03.39-.06.58-.11l25.04-5.68c1.98-.45,3.98-.86,5.75-1.87,1.19-.67,2.32-1.34,3.1-2.69.41-.74.66-1.57.73-2.41.39-3.35-1.4-7.15-2.83-10.09h0Zm-44.82,10.33c1.81-2.24,1.81-5.57,1.97-8.3.55-9.11,1.12-18.22,1.58-27.33.17-3.45.55-6.86.34-10.34-.17-2.87-.19-6.16-2.04-8.52-3.26-4.15-10.21-3.81-14.95-3.16-1.46.2-2.91.47-4.35.8-1.44.34-2.87.71-4.27,1.15-4.55,1.46-10.95,4.15-12.02,9.29-.61,2.91.84,5.88,1.95,8.54,1.36,3.21,3.22,6.11,4.91,9.14,4.48,7.99,9.04,15.94,13.58,23.9,1.36,2.37,2.84,5.38,5.47,6.61.18.07.35.14.53.2,1.18.44,2.47.52,3.69.24l.22-.05c1.14-.31,2.16-.91,2.96-1.75.15-.14.28-.27.42-.42h0Zm-2.17,24.38c-1.45-2.01-4.05-2.87-6.45-2.13-.27.09-.54.2-.8.32-.4.2-.78.43-1.14.7-1.02.79-1.94,1.71-2.72,2.73-.2.25-.39.58-.63.8l-4.03,5.43c-2.28,3.05-4.54,6.1-6.76,9.2-1.46,2-2.72,3.7-3.72,5.19-.19.28-.38.59-.56.85-1.2,1.81-1.87,3.13-2.22,4.31-.26.78-.34,1.61-.24,2.43.11.85.4,1.67.86,2.4.24.37.5.72.78,1.06.6.68,1.28,1.29,2.02,1.83,2.78,1.9,5.82,3.26,9.02,4.32,2.67.87,5.43,1.39,8.23,1.54.48.02.96.01,1.43-.03.44-.04.88-.1,1.31-.18.43-.1.86-.22,1.28-.37.82-.3,1.56-.77,2.19-1.37.59-.58,1.05-1.28,1.33-2.05.47-1.14.77-2.58.98-4.73.01-.31.06-.67.09-1,.16-1.78.23-3.88.34-6.34.2-3.78.35-7.55.47-11.33l.26-6.72c.06-1.54,0-3.26-.43-4.8-.19-.74-.5-1.44-.92-2.09h0Zm45.46,10.51c-.84-.91-2.03-1.81-3.91-2.92-.27-.15-.59-.35-.88-.52-1.56-.93-3.45-1.89-5.65-3.07-3.38-1.83-6.76-3.6-10.18-5.36l-6.03-3.14c-.31-.09-.63-.31-.93-.45-1.16-.58-2.39-1.01-3.67-1.28-.44-.08-.88-.13-1.33-.14-.29,0-.58.02-.87.05-2.48.38-4.43,2.27-4.84,4.7-.09.75-.06,1.52.09,2.26.29,1.58,1.01,3.14,1.75,4.5l3.22,5.93c1.8,3.34,3.61,6.67,5.47,9.98,1.2,2.16,2.2,4.01,3.14,5.54.18.29.38.6.53.87,1.14,1.84,2.05,3,2.98,3.84,1.25,1.18,2.97,1.75,4.69,1.55.44-.05.88-.13,1.32-.23.89-.23,1.75-.57,2.56-.99,2.45-1.35,4.71-3,6.71-4.93,2.41-2.33,4.54-4.87,6.2-7.77.23-.41.43-.84.6-1.28.16-.41.29-.82.4-1.24.1-.43.17-.86.22-1.29.08-.85-.02-1.71-.29-2.52-.27-.78-.72-1.49-1.3-2.08h0Z"/>
    </g>
  </g>
</svg>