<?xml version="1.0" encoding="UTF-8"?>
<svg id="Layer_1" data-name="Layer 1" xmlns="http://www.w3.org/2000/svg" version="1.1" viewBox="0 0 72 72">
  <defs>
    <style>
      .cls-1 {
        fill: #0056d2;
        stroke-width: 0px;
      }
    </style>
  </defs>
  <path class="cls-1" d="M34.2,70.9c-12.2-.6-23.4-7.7-29-18.5C-1,41.2-.3,26.6,7.3,16.1,14.8,4.9,28.7-1,42.7,1.7c13.4,2.5,24.4,13.1,27.3,26,3.3,12.7-1.2,26.8-11.4,35.1-6.7,5.7-15.4,8.6-24.3,8.2h0ZM56.6,47.5c-3.1-1.8-6.2-3.7-9.2-5.5-2.6,4.3-8.4,6.6-13.3,4.9-5.9-1.9-9.9-8.7-7.3-15,2.3-5.9,8.1-7.9,12.7-7.2,3.1.6,5.8,2.3,7.7,4.9,3.1-1.8,6.2-3.6,9.3-5.4-5.9-9.1-17.9-12.5-28.2-8-9.1,4.2-14.3,13.7-12.8,23.1,1.6,10.5,10.9,18.9,22.5,18.7,7.6,0,14.6-4,18.7-10.4h0Z"/>
</svg>