<?xml version="1.0" encoding="UTF-8"?>
<svg id="Layer_1" data-name="Layer 1" xmlns="http://www.w3.org/2000/svg" version="1.1" viewBox="0 0 72 72">
  <defs>
    <style>
      .cls-1 {
        fill: #0a66c2;
        stroke-width: 0px;
      }
    </style>
  </defs>
  <path class="cls-1" d="M65.8,1H6.2c-1.4,0-2.7.6-3.7,1.5-1,1-1.5,2.3-1.5,3.7v59.5c0,1.4.6,2.7,1.5,3.7,1,1,2.3,1.5,3.7,1.5h59.5c1.4,0,2.7-.6,3.7-1.5,1-1,1.5-2.3,1.5-3.7V6.2c0-1.4-.6-2.7-1.5-3.7-1-1-2.3-1.5-3.7-1.5ZM22,60.5h-10.5v-31.5h10.5v31.5ZM16.8,22.9c-1.2,0-2.4-.4-3.4-1.1-1-.7-1.7-1.7-2.2-2.8-.4-1.1-.5-2.3-.3-3.5s.9-2.3,1.7-3.1,2-1.4,3.1-1.6c1.2-.2,2.4,0,3.5.4,1.1.5,2.1,1.3,2.7,2.3.7,1,1,2.2,1,3.4,0,1.6-.7,3.2-1.9,4.4-1.2,1.1-2.8,1.8-4.4,1.8ZM60.5,60.5h-10.5v-16.6c0-5-2.1-6.8-4.8-6.8-.8,0-1.6.3-2.3.6s-1.4.9-1.9,1.5c-.5.6-.9,1.3-1.2,2.1-.3.8-.4,1.6-.3,2.4,0,.2,0,.3,0,.5v16.3h-10.5v-31.5h10.2v4.5c1-1.6,2.4-2.8,4.1-3.7,1.7-.9,3.5-1.3,5.4-1.2,5.4,0,11.8,3,11.8,12.8v19Z"/>
</svg>