<?xml version="1.0" encoding="utf-8"?>
<!-- Generator: Adobe Illustrator 28.0.0, SVG Export Plug-In . SVG Version: 6.00 Build 0)  -->
<svg version="1.1" id="Layer_1" xmlns="http://www.w3.org/2000/svg" xmlns:xlink="http://www.w3.org/1999/xlink" x="0px" y="0px"
	 viewBox="0 0 1164.3 1254.9" style="enable-background:new 0 0 1164.3 1254.9;" xml:space="preserve">
<style type="text/css">
	.st0{fill:#34A853;}
	.st1{fill:#FBBC04;}
	.st2{fill:#4285F4;}
	.st3{fill:#1A73E8;}
	.st4{fill:#EA4335;}
</style>
<path class="st0" d="M391.2,909.9c37.9,47.4,76.5,107,96.7,143c24.6,46.8,34.8,78.4,53.1,135c10.7,31,20.9,40.4,42.3,40.4
	c23.4,0,34.1-15.8,42.3-40.4c17.1-53.1,30.3-93.5,51.2-132c80.6-152,212-260,286-408c0,0,48.7-90.4,48.7-217c0-118-48-200-48-200
	l-572,680L391.2,909.9z"/>
<path class="st1" d="M197.2,631.9c46.1,105,134,197,194,278l318-377c0,0-44.9,58.8-126,58.8c-90.4,0-164-72-164-163
	c0-62.6,37.3-106,37.3-106c-234,34.8-221,91.5-260,309L197.2,631.9z"/>
<path class="st2" d="M713.2,19.6c106,34.1,196,106,250,211l-254,303c0,0,37.3-43.6,37.3-106c0-92.9-78.4-163-163-163
	c-80.3,0-126,58.1-126,58.1c19.5-44.4,221-288,256-303L713.2,19.6z"/>
<path class="st3" d="M255.2,152.9c63.2-75.2,174-153,327-153c73.9,0,130,19.6,130,19.6l-255,303c-17.2-9.3-185-140-202-170V152.9z"
	/>
<path class="st4" d="M197.2,631.9c0,0-41.7-82.8-41.7-202c0-113,44.2-212,100-276l202,170l-260,308H197.2z"/>
</svg>
