<svg width="77" height="83" viewBox="0 0 77 83" fill="none" xmlns="http://www.w3.org/2000/svg">
<circle cx="41" cy="41.5909" r="35.9091" fill="#7000FF" stroke="white" stroke-width="10"/>
<path d="M25.0101 52.5303C29.0689 52.5303 32.3734 49.2292 32.3734 45.1704V38.0134C32.3734 33.9546 29.0723 30.65 25.0101 30.65C20.9479 30.65 17.6502 33.9512 17.6502 38.0134V45.1704C17.6502 49.2292 20.9513 52.5303 25.0101 52.5303Z" fill="white"/>
<path fill-rule="evenodd" clip-rule="evenodd" d="M25.0099 54.239C30.0109 54.239 34.0812 50.1742 34.0812 45.1711V38.014C34.0812 33.0124 30.0159 28.9427 25.0099 28.9427C20.0033 28.9427 15.9419 33.0096 15.9419 38.014V45.1711C15.9419 50.1732 20.0077 54.239 25.0099 54.239ZM32.3732 45.1711C32.3732 49.2299 29.0687 52.531 25.0099 52.531C20.9511 52.531 17.6499 49.2299 17.6499 45.1711V38.014C17.6499 33.9519 20.9477 30.6507 25.0099 30.6507C29.072 30.6507 32.3732 33.9552 32.3732 38.014V45.1711Z" fill="#3C008A"/>
<path d="M25.0093 31.3269C21.3226 31.3269 18.3258 34.327 18.3258 38.0104V45.1674C18.3258 48.8541 21.326 51.8508 25.0127 51.8508C28.6994 51.8508 31.6996 48.8507 31.6996 45.1674V38.0104C31.6996 34.3236 28.6994 31.3269 25.0127 31.3269M25.0127 29.9739C29.4503 29.9739 33.0525 33.5727 33.0525 38.0104V45.1674C33.0525 49.6084 29.4537 53.2038 25.0127 53.2038C20.5751 53.2038 16.9763 49.605 16.9763 45.1674V38.0104C16.9763 33.5694 20.5751 29.9739 25.0127 29.9739Z" fill="#3C008A"/>
<path d="M23.272 36.9109C23.272 35.267 24.6046 33.9344 26.2484 33.9344C27.8923 33.9344 29.2249 35.267 29.2249 36.9109V41.7273C29.2249 43.3712 27.8923 44.7038 26.2484 44.7038C24.6046 44.7038 23.272 43.3712 23.272 41.7273V36.9109Z" fill="#1C1C1C"/>
<path d="M23.4339 35.0944C23.4339 34.2251 24.1408 33.5182 25.01 33.5182C25.8793 33.5182 26.5862 34.2251 26.5862 35.0944C26.5862 35.9636 25.8793 36.6705 25.01 36.6705C24.1408 36.6705 23.4339 35.9636 23.4339 35.0944Z" fill="white"/>
<path d="M50.0692 52.5303C54.128 52.5303 57.4326 49.2292 57.4326 45.1704V38.0134C57.4326 33.9546 54.1314 30.65 50.0692 30.65C46.007 30.65 42.7093 33.9512 42.7093 38.0134V45.1704C42.7093 49.2292 46.0104 52.5303 50.0692 52.5303Z" fill="white"/>
<path fill-rule="evenodd" clip-rule="evenodd" d="M50.068 54.239C55.0691 54.239 59.1393 50.1742 59.1393 45.1711V38.014C59.1393 33.0124 55.074 28.9427 50.068 28.9427C45.0615 28.9427 41 33.0096 41 38.014V45.1711C41 50.1732 45.0659 54.239 50.068 54.239ZM57.4313 45.1711C57.4313 49.2299 54.1268 52.531 50.068 52.531C46.0092 52.531 42.708 49.2299 42.708 45.1711V38.014C42.708 33.9519 46.0058 30.6507 50.068 30.6507C54.1302 30.6507 57.4313 33.9552 57.4313 38.014V45.1711Z" fill="#3C008A"/>
<path d="M50.069 31.3269C46.3823 31.3269 43.3855 34.327 43.3855 38.0104V45.1674C43.3855 48.8541 46.3856 51.8508 50.0724 51.8508C53.7591 51.8508 56.7593 48.8507 56.7593 45.1674V38.0104C56.7593 34.3236 53.7591 31.3269 50.0724 31.3269M50.0724 29.9739C54.51 29.9739 58.1122 33.5727 58.1122 38.0104V45.1674C58.1122 49.6084 54.5134 53.2038 50.0724 53.2038C45.6348 53.2038 42.036 49.605 42.036 45.1674V38.0104C42.036 33.5694 45.6348 29.9739 50.0724 29.9739Z" fill="#3C008A"/>
<path d="M48.3291 36.9107C48.3291 35.2669 49.6617 33.9343 51.3055 33.9343C52.9494 33.9343 54.282 35.2669 54.282 36.9107V41.7272C54.282 43.371 52.9494 44.7036 51.3055 44.7036C49.6617 44.7036 48.3291 43.371 48.3291 41.7272V36.9107Z" fill="#1C1C1C"/>
<path d="M48.4913 35.0942C48.4913 34.2249 49.1982 33.518 50.0675 33.518C50.9367 33.518 51.6436 34.2249 51.6436 35.0942C51.6436 35.9634 50.9367 36.6703 50.0675 36.6703C49.1982 36.6703 48.4913 35.9634 48.4913 35.0942Z" fill="white"/>
<circle cx="38.0093" cy="56.1945" r="2.99075" fill="#3A179D"/>
</svg>
