<?xml version="1.0" encoding="UTF-8"?>
<svg id="Icons" xmlns="http://www.w3.org/2000/svg" viewBox="0 0 192 192">
  <defs>
    <style>
      .cls-1 {
        fill: #abb7c9;
      }

      .cls-1, .cls-2 {
        stroke-width: 0px;
      }

      .cls-2 {
        fill: #1f3051;
      }

      .cls-3 {
        fill: none;
        stroke: #ecf0f6;
        stroke-linecap: round;
        stroke-miterlimit: 10;
        stroke-width: 6px;
      }
    </style>
  </defs>
  <g id="Icon-Research">
    <path class="cls-2" d="M23.68,157.06l55.79-49.22c1.54-1.36,3.9-1.28,5.43.18l1.86,1.78c1.63,1.57,1.72,4.13.18,5.71l-51.96,53.41c-3.15,3.24-8.43,3.13-11.63-.23h0c-3.2-3.36-3.05-8.64.33-11.63Z"/>
    <g>
      <path class="cls-1" d="M114.25,132.27c-1.69,0-3.41-.08-5.1-.24-14.3-1.34-27.22-8.18-36.38-19.24-9.16-11.06-13.46-25.03-12.12-39.33,2.61-27.79,25.6-48.74,53.47-48.74,1.69,0,3.41.08,5.1.24,29.52,2.78,51.28,29.05,48.5,58.57-2.61,27.79-25.6,48.74-53.47,48.74Z"/>
      <path class="cls-2" d="M114.12,21.72v6c1.59,0,3.22.08,4.82.23,27.87,2.62,48.42,27.43,45.79,55.3-1.19,12.67-7.04,24.34-16.46,32.87-9.37,8.48-21.45,13.15-34.02,13.15-1.6,0-3.22-.08-4.82-.23-13.5-1.27-25.7-7.72-34.35-18.17-8.65-10.44-12.71-23.63-11.44-37.13,1.19-12.67,7.04-24.34,16.46-32.87,9.37-8.48,21.45-13.15,34.02-13.15v-6M114.12,21.72c-28.96,0-53.69,22.05-56.45,51.46-2.94,31.22,19.99,58.9,51.21,61.84,1.81.17,3.6.25,5.38.25,28.96,0,53.69-22.05,56.45-51.46,2.94-31.22-19.99-58.9-51.21-61.84-1.81-.17-3.6-.25-5.38-.25h0Z"/>
    </g>
    <path class="cls-3" d="M85.4,57.02c10.07-16.48,31.58-21.68,48.06-11.61"/>
  </g>
</svg>