<?xml version="1.0" encoding="UTF-8"?>
<svg id="Icons" xmlns="http://www.w3.org/2000/svg" viewBox="0 0 192 192">
  <defs>
    <style>
      .cls-1 {
        fill: #ecf0f6;
      }

      .cls-1, .cls-2 {
        stroke: #203969;
        stroke-miterlimit: 10;
        stroke-width: 2px;
      }

      .cls-3 {
        fill: #203969;
        stroke-width: 0px;
      }

      .cls-2 {
        fill: #abb7c9;
      }
    </style>
  </defs>
  <path class="cls-1" d="m83.6,21.84c-5.72.98-8.12,5.65-7.21,9.74.18.8-.04,1.63-.62,2.21l-.03.03c-.92.92-2.42.92-3.35,0l-13.3-13.3c-.92-.92-2.42-.92-3.35,0l-13.3,13.3c-.92.92-.92,2.42,0,3.35h0c.58.58,1.41.8,2.21.62,4.08-.91,8.76,1.49,9.74,7.2.05.27.05.57,0,.84-1.31,7.68-9.29,9.38-13.56,5.11-1.96-1.96-2.66-4.7-2.1-7.22.18-.8-.04-1.64-.62-2.23h0c-.92-.92-2.42-.92-3.35,0l-13.3,13.3c-.92.92-.92,2.42,0,3.35l13.3,13.3c.92.92.92,2.42,0,3.35h0c-.58.58-1.41.8-2.21.62-4.09-.91-8.76,1.49-9.74,7.21-.05.27-.05.57,0,.84,1.31,7.68,9.29,9.38,13.56,5.11,1.96-1.96,2.66-4.7,2.1-7.22-.18-.8.04-1.64.62-2.23h0c.92-.93,2.42-.93,3.35,0l13.3,13.3c.92.92,2.42.92,3.35,0l14.94-14.94-.06-.06-.86-.86-.85-.85c-.58-.58-1.41-.8-2.21-.62-4.09.91-8.76-1.49-9.74-7.21-.05-.27-.05-.57,0-.84,1.31-7.68,9.29-9.38,13.56-5.11,1.96,1.96,2.66,4.7,2.1,7.22-.18.8.04,1.64.62,2.23l.85.85.86.86.06.06,15-15c.92-.92.92-2.42,0-3.35l-13.3-13.3c-.92-.92-.92-2.42,0-3.35l.03-.03c.58-.58,1.42-.8,2.23-.62,2.52.56,5.26-.15,7.22-2.1,4.27-4.27,2.57-12.25-5.11-13.56-.27-.05-.57-.05-.84,0Z"/>
  <path class="cls-2" d="m168.86,59.16c-4.78-3.4-9.84-1.74-12.06,1.86-.4.64-1.09,1.04-1.85,1.04h-.33c-1.2,0-2.18-.98-2.18-2.18v-19.18c0-1.2-.98-2.18-2.18-2.18h-19.18c-1.2,0-2.18.98-2.18,2.18v.29c0,.75.4,1.45,1.04,1.85,3.6,2.22,5.26,7.28,1.86,12.06-.15.21-.34.4-.55.55-6.36,4.53-13.23.09-13.23-5.96,0-2.81,1.48-5.27,3.7-6.65.65-.4,1.05-1.09,1.05-1.85v-.29c0-1.2-.98-2.18-2.18-2.18h-19.18c-1.2,0-2.18.98-2.18,2.18v19.18c0,1.2-.98,2.18-2.18,2.18h0c-.75,0-1.45-.4-1.85-1.04-2.22-3.6-7.28-5.26-12.06-1.86-.21.15-.4.34-.55.55-4.53,6.36-.09,13.23,5.96,13.23,2.81,0,5.27-1.48,6.65-3.7.4-.65,1.09-1.05,1.85-1.05h0c1.2,0,2.18.98,2.18,2.18v19.18c0,1.2.98,2.18,2.18,2.18h21.31s0-.09,0-.09v-2.51c0-.75-.4-1.45-1.04-1.85-3.6-2.22-5.26-7.28-1.86-12.06.15-.21.34-.4.55-.55,6.36-4.54,13.23-.09,13.23,5.96,0,2.81-1.48,5.27-3.7,6.65-.65.4-1.05,1.09-1.05,1.85v2.6h21.4c1.2,0,2.18-.98,2.18-2.18v-19.18c0-1.2.98-2.18,2.18-2.18h.33c.76,0,1.45.4,1.85,1.05,1.38,2.22,3.84,3.7,6.65,3.7,6.05,0,10.49-6.87,5.96-13.23-.15-.21-.34-.4-.55-.55Z"/>
  <path class="cls-3" d="m168.83,116.9c-4.73-3.34-9.72-1.74-11.97,1.78-.45.7-1.2,1.14-2.03,1.14h0c-1.32,0-2.39-1.07-2.39-2.39v-18.75c0-1.32-1.07-2.39-2.39-2.39h-18.75c-1.32,0-2.39-1.07-2.39-2.39h0c0-.83.44-1.58,1.14-2.03,3.52-2.25,5.12-7.25,1.78-11.97-.16-.23-.37-.44-.6-.6-6.35-4.49-13.19-.05-13.19,5.98,0,2.76,1.44,5.19,3.6,6.58.7.45,1.15,1.2,1.15,2.04h0c0,1.32-1.07,2.39-2.39,2.39h-18.75c-1.32,0-2.39,1.07-2.39,2.39v21.1h2.48c.83,0,1.58-.44,2.03-1.14,2.25-3.52,7.24-5.12,11.97-1.78.23.16.44.37.6.6,4.5,6.35.06,13.2-5.98,13.2-2.76,0-5.19-1.44-6.58-3.6-.45-.7-1.2-1.15-2.04-1.15h-2.48v21.19c0,1.32,1.07,2.39,2.39,2.39h48.42c1.32,0,2.39-1.07,2.39-2.39v-18.75c0-1.32,1.07-2.39,2.39-2.39h0c.83,0,1.59.45,2.04,1.15,1.39,2.17,3.82,3.6,6.58,3.6,6.04,0,10.48-6.85,5.98-13.2-.16-.23-.37-.44-.6-.6Z"/>
  <path class="cls-2" d="m59.37,133.75c-3.36-4.74-1.74-9.75,1.8-11.99.68-.43,1.11-1.17,1.11-1.98v-.04c0-1.29-1.05-2.34-2.34-2.34h-18.86c-1.29,0-2.34,1.05-2.34,2.34v18.86c0,1.29-1.05,2.34-2.34,2.34h0c-.81,0-1.55-.43-1.98-1.11-2.24-3.54-7.25-5.16-11.99-1.8-.22.16-.43.36-.59.59-4.51,6.36-.07,13.21,5.97,13.21,2.78,0,5.21-1.45,6.6-3.63.44-.69,1.18-1.12,1.99-1.12h0c1.29,0,2.34,1.05,2.34,2.34v18.86c0,1.29,1.05,2.34,2.34,2.34h21.15v-.09s0-1.21,0-1.21v-1.22c0-.81-.43-1.55-1.11-1.98-3.54-2.24-5.16-7.25-1.8-11.99.16-.22.36-.43.59-.59,6.35-4.51,13.21-.07,13.21,5.97,0,2.78-1.45,5.21-3.63,6.6-.69.44-1.12,1.18-1.12,1.99v1.21s0,1.21,0,1.21v.09h21.24c1.29,0,2.34-1.05,2.34-2.34v-18.86c0-1.29,1.05-2.34,2.34-2.34h.09c.81,0,1.55.43,1.98,1.11,2.24,3.54,7.25,5.16,11.99,1.8.22-.16.43-.36.59-.59,4.51-6.35.07-13.21-5.97-13.21-2.78,0-5.21,1.45-6.6,3.63-.44.69-1.18,1.12-1.99,1.12h-.08c-1.29,0-2.34-1.05-2.34-2.34v-18.86c0-1.29-1.05-2.34-2.34-2.34h-18.86c-1.29,0-2.34,1.05-2.34,2.34v.04c0,.82.44,1.55,1.12,1.99,2.18,1.39,3.63,3.82,3.63,6.6,0,6.04-6.85,10.48-13.21,5.97-.22-.16-.43-.36-.59-.59Z"/>
</svg>