<?xml version="1.0" encoding="UTF-8"?>
<svg id="Icons" xmlns="http://www.w3.org/2000/svg" viewBox="0 0 192 192">
  <defs>
    <style>
      .cls-1 {
        fill: none;
      }

      .cls-1, .cls-2, .cls-3 {
        stroke: #203969;
        stroke-miterlimit: 10;
        stroke-width: 2px;
      }

      .cls-2 {
        fill: #ecf0f6;
      }

      .cls-4 {
        fill: #203969;
        stroke-width: 0px;
      }

      .cls-3 {
        fill: #abb7c9;
      }
    </style>
  </defs>
  <rect class="cls-3" x="30.82" y="54.14" width="128.03" height="81.37" rx="2" ry="2"/>
  <rect class="cls-4" x="34.54" y="57.65" width="120.59" height="74.35" rx="2" ry="2"/>
  <path class="cls-3" d="m30.33,138.93h128.03l25.58,12.57v4.36c0,2.24-1.82,4.06-4.06,4.06H12.11c-2.24,0-4.06-1.82-4.06-4.06v-4.36l22.28-12.57Z"/>
  <line class="cls-1" x1="8.05" y1="151.5" x2="183.95" y2="151.5"/>
  <path class="cls-2" d="m157.02,44.01l-43.15,46.03c-1.19,1.27-3.16,1.42-4.53.34l-1.67-1.32c-1.46-1.16-1.7-3.29-.53-4.74l39.69-49.18c2.4-2.98,6.8-3.37,9.69-.86h0c2.89,2.51,3.12,6.92.5,9.72Z"/>
  <path class="cls-2" d="m107.66,97.63c-.24,4.07-3.76,6.41-7.8,6.95-1.48.2-14.66.6-15.79-.96-.87-1.21,7.08-4.97,8.65-7.08,2.44-3.27,3.92-6.95,7.99-6.71s7.18,3.73,6.95,7.8Z"/>
</svg>