<?xml version="1.0" encoding="UTF-8"?>
<svg id="Icons" xmlns="http://www.w3.org/2000/svg" viewBox="0 0 192 192">
  <g id="Icon-Tools">
    <g>
      <rect x="31.82" y="55.14" width="126.03" height="79.37" rx="1" ry="1" fill="#abb7c9" stroke-width="0"/>
      <path d="M156.85,56.14v77.37H32.82V56.14h124.03M156.85,54.14H32.82c-1.1,0-2,.9-2,2v77.37c0,1.1.9,2,2,2h124.03c1.1,0,2-.9,2-2V56.14c0-1.1-.9-2-2-2h0Z" fill="#1f3051" stroke-width="0"/>
    </g>
    <rect x="37.78" y="59.65" width="114.1" height="70.35" rx="2" ry="2" fill="#1f3051" stroke-width="0"/>
    <g>
      <path d="M12.11,158.93c-1.69,0-3.06-1.37-3.06-3.06v-3.78l21.54-12.16h127.54l24.82,12.2v3.74c0,1.69-1.37,3.06-3.06,3.06H12.11Z" fill="#abb7c9" stroke-width="0"/>
      <path d="M157.9,140.93l24.05,11.82v3.12c0,1.14-.92,2.06-2.06,2.06H12.11c-1.14,0-2.06-.92-2.06-2.06v-3.2l20.8-11.74h127.04M158.36,138.93H30.33l-22.28,12.57v4.36c0,2.24,1.82,4.06,4.06,4.06h167.77c2.24,0,4.06-1.82,4.06-4.06v-4.36l-25.58-12.57h0Z" fill="#1f3051" stroke-width="0"/>
    </g>
    <line x1="8.05" y1="151.5" x2="183.95" y2="151.5" fill="#abb7c9" stroke="#1f3051" stroke-miterlimit="10" stroke-width="2"/>
    <g>
      <path d="M111.43,90.1c-.53,0-1.04-.18-1.46-.51l-1.67-1.32c-.5-.39-.81-.96-.88-1.58-.07-.63.11-1.25.51-1.74l39.69-49.18c1.1-1.36,2.73-2.14,4.48-2.14,1.39,0,2.73.5,3.77,1.41,1.19,1.04,1.89,2.47,1.97,4.05.08,1.58-.47,3.08-1.55,4.23l-43.15,46.03c-.45.48-1.06.74-1.72.74Z" fill="#abb7c9" stroke-width="0"/>
      <path d="M152.1,34.63c1.14,0,2.25.41,3.12,1.17.98.86,1.56,2.04,1.63,3.35.07,1.3-.39,2.54-1.28,3.5l-43.15,46.03c-.26.28-.61.43-.99.43-.21,0-.53-.05-.84-.29l-1.67-1.32c-.29-.23-.47-.55-.51-.91-.04-.36.06-.72.29-1l39.69-49.18c.91-1.12,2.26-1.77,3.71-1.77M152.1,32.63c-1.97,0-3.92.86-5.26,2.51l-39.69,49.18c-1.17,1.45-.93,3.58.53,4.74l1.67,1.32c.61.48,1.35.72,2.08.72.9,0,1.79-.36,2.45-1.06l43.15-46.03c2.62-2.79,2.39-7.21-.5-9.72h0c-1.28-1.11-2.86-1.66-4.43-1.66h0Z" fill="#1f3051" stroke-width="0"/>
    </g>
    <g>
      <path d="M93.74,103.77c-4.91,0-7.39-.32-8.4-.6.73-.66,2.32-1.68,3.45-2.41,2.03-1.31,3.94-2.55,4.74-3.62.47-.64.91-1.29,1.34-1.92,1.84-2.73,3.08-4.4,5.48-4.4.1,0,.2,0,.31,0,3.52.21,6.21,3.23,6,6.75-.22,3.79-3.73,5.59-6.93,6.01-.49.07-2.99.19-5.98.19Z" fill="#abb7c9" stroke-width="0"/>
      <path d="M100.34,91.82h0c.08,0,.17,0,.25,0,2.96.17,5.24,2.72,5.06,5.69-.19,3.18-3.26,4.71-6.07,5.08-.46.06-2.94.18-5.85.18-2.73,0-4.6-.1-5.87-.21.5-.34,1.02-.67,1.46-.96,2.1-1.36,4.09-2.65,5-3.87.49-.66.94-1.32,1.37-1.96,1.7-2.53,2.76-3.96,4.65-3.96M100.34,89.82c-3.8,0-5.26,3.55-7.62,6.72-1.57,2.11-9.52,5.87-8.65,7.08.66.92,5.5,1.15,9.67,1.15,2.92,0,5.51-.12,6.12-.2,4.04-.53,7.57-2.87,7.8-6.95.24-4.07-2.87-7.57-6.95-7.8-.13,0-.25-.01-.37-.01h0Z" fill="#1f3051" stroke-width="0"/>
    </g>
  </g>
</svg>