<?xml version="1.0" encoding="UTF-8"?>
<svg id="Icons" xmlns="http://www.w3.org/2000/svg" viewBox="0 0 192 192">
  <g id="Icon-Timeline">
    <g>
      <path d="M146.2,169.41c-1.2,0-1.95-.46-2.16-.61l-12.9-17.72c.17-.22.34-.46.52-.72.61-.89,1.37-2,3.36-3.27,2.12-1.35,3.31-1.61,4.36-1.83.31-.07.61-.13.89-.21l12.95,17.8c.14.4.8,2.8-3.32,5.36-1.31.81-2.55,1.22-3.69,1.22Z" fill="#abb7c9" stroke-width="0"/>
      <path d="M139.85,146.17l12.45,17.11c.19.78-.23,2.37-2.94,4.06-1.14.71-2.21,1.07-3.16,1.07-.74,0-1.24-.22-1.46-.35l-12.36-16.98c.04-.05.07-.11.11-.16.59-.86,1.26-1.84,3.07-2.99,1.97-1.26,3.06-1.49,4.03-1.69.09-.02.18-.04.27-.06M140.37,143.99c-.08,0-.15.01-.23.03-1.28.41-2.65.28-5.66,2.2-2.86,1.83-3.4,3.38-4.27,4.4-.2.24-.21.58-.03.83l13.13,18.04s1.02.91,2.89.91c1.12,0,2.54-.33,4.22-1.37,5.34-3.31,3.67-6.7,3.67-6.7l-13.13-18.04c-.14-.19-.36-.3-.59-.3h0Z" fill="#1f3051" stroke-width="0"/>
    </g>
    <path d="M170.29,90.85c0,38.88-33.32,70.4-74.43,70.4-9.18,0-20.45-.21-28.57-3.09-28.24-10-45.86-37.11-45.86-67.31s17.75-57.66,45.59-64.92c9.34-2.44,19.41-4.16,37.55-5.3,3.95-.25,65.72,31.34,65.72,70.22Z" fill="#1f3051" stroke-width="0"/>
    <g>
      <ellipse cx="109.14" cy="90.85" rx="60.14" ry="69.4" fill="#abb7c9" stroke-width="0"/>
      <path d="M109.14,22.45c32.61,0,59.14,30.68,59.14,68.4s-26.53,68.4-59.14,68.4-59.14-30.68-59.14-68.4S76.53,22.45,109.14,22.45M109.14,20.45c-33.77,0-61.14,31.52-61.14,70.4s27.38,70.4,61.14,70.4,61.14-31.52,61.14-70.4-27.38-70.4-61.14-70.4h0Z" fill="#1f3051" stroke-width="0"/>
    </g>
    <g>
      <ellipse cx="110.49" cy="90.85" rx="54.4" ry="62.78" fill="#ecf0f6" stroke-width="0"/>
      <path d="M110.49,29.06c29.44,0,53.4,27.72,53.4,61.78s-23.95,61.78-53.4,61.78-53.4-27.72-53.4-61.78,23.95-61.78,53.4-61.78M110.49,27.06c-30.6,0-55.4,28.56-55.4,63.78s24.8,63.78,55.4,63.78,55.4-28.56,55.4-63.78-24.8-63.78-55.4-63.78h0Z" fill="#1f3051" stroke-width="0"/>
    </g>
    <g>
      <path d="M55.48,170.26c-1.3,0-2.76-.53-4.34-1.57-3.28-2.17-2.91-4.36-2.79-4.83l12.28-18.19c.27.08.6.14.96.2,1.1.2,2.47.45,4.46,1.73,2.12,1.36,2.81,2.31,3.42,3.14.17.23.33.45.5.65l-12.26,18.17c-.18.15-.92.7-2.23.7h0Z" fill="#abb7c9" stroke-width="0"/>
      <path d="M61.07,146.79c.11.02.23.04.34.06,1.07.19,2.28.42,4.1,1.59,1.96,1.26,2.59,2.13,3.15,2.89.02.03.05.07.07.1l-11.76,17.43c-.2.14-.7.4-1.49.4-1.08,0-2.39-.49-3.79-1.41-2.45-1.62-2.48-3.09-2.4-3.6l11.79-17.46M60.51,144.63c-.24,0-.47.12-.61.32l-12.46,18.47s-1.26,3.19,3.15,6.11c2.01,1.33,3.65,1.74,4.89,1.74,1.99,0,2.99-1.05,2.99-1.05l12.47-18.47c.17-.26.15-.59-.06-.82-.88-.98-1.28-2.23-4.29-4.16-2.86-1.84-4.56-1.72-5.88-2.1-.07-.02-.14-.03-.21-.03h0Z" fill="#1f3051" stroke-width="0"/>
    </g>
    <line x1="76.52" y1="71.39" x2="108.55" y2="94.55" fill="#abb7c9" stroke="#1f3051" stroke-miterlimit="10" stroke-width="6"/>
    <line x1="145.62" y1="53.86" x2="109.15" y2="92.74" fill="#abb7c9" stroke="#1f3051" stroke-miterlimit="10" stroke-width="6"/>
    <ellipse cx="107.97" cy="94.13" rx="4.67" ry="5.53" fill="#2a2a2a" stroke-width="0"/>
  </g>
</svg>