<?xml version="1.0" encoding="UTF-8"?>
<svg id="Icons" xmlns="http://www.w3.org/2000/svg" viewBox="0 0 192 192">
  <defs>
    <style>
      .cls-1 {
        fill: none;
        stroke-linecap: round;
        stroke-width: 4px;
      }

      .cls-1, .cls-2, .cls-3 {
        stroke: #203969;
        stroke-miterlimit: 10;
      }

      .cls-2 {
        fill: #fff;
      }

      .cls-2, .cls-3 {
        stroke-width: 2px;
      }

      .cls-4 {
        fill: #203969;
        stroke-width: 0px;
      }

      .cls-3 {
        fill: #abb7c9;
      }
    </style>
  </defs>
  <path class="cls-3" d="m140.08,139.81c-.18-.26-.51-.37-.81-.27-1.26.42-2.61.29-5.58,2.28s-3.35,3.48-4.21,4.54c-.2.25-.21.59-.03.85l12.95,18.62s2.58,2.4,7.01-.47c5.27-3.42,3.62-6.92,3.62-6.92l-12.95-18.62Z"/>
  <path class="cls-4" d="m170.82,84.66c0,40.13-35.29,72.66-78.82,72.66-9.72,0-21.66-.22-30.25-3.19-29.9-10.32-48.57-38.3-48.57-69.47S31.98,25.15,61.46,17.65c9.89-2.51,15.84-5.11,35.05-6.29,4.18-.26,74.3,33.17,74.3,73.29Z"/>
  <ellipse class="cls-3" cx="103.56" cy="84.66" rx="67.26" ry="72.66"/>
  <ellipse class="cls-2" cx="105.04" cy="84.66" rx="60.94" ry="65.83"/>
  <path class="cls-3" d="m62.01,147.51c.17-.27.15-.61-.06-.85-.87-1.01-1.26-2.3-4.23-4.3s-4.5-1.77-5.8-2.16c-.3-.09-.63.03-.8.3l-12.29,19.06s-1.24,3.3,3.1,6.3c5.16,3.57,7.78.72,7.78.72l12.29-19.06Z"/>
  <line class="cls-1" x1="67.67" y1="64.58" x2="102.9" y2="88.48"/>
  <line class="cls-1" x1="143.69" y1="46.48" x2="103.56" y2="86.61"/>
  <ellipse class="cls-4" cx="102.27" cy="88.05" rx="5.13" ry="5.7"/>
</svg>