<?xml version="1.0" encoding="UTF-8"?>
<svg id="Icons" xmlns="http://www.w3.org/2000/svg" viewBox="0 0 192 192">
  <g id="Icon-HatsWorn">
    <g>
      <path d="M104.32,182.66c-4.8,0-9.41-1.19-13.69-3.53-14.95-8.18-23.11-33.52-24.72-38.98,3.42-.66,10.47-2.31,11.62-4.83,1.2-2.64,1.46-26.23,1.5-30.93l-.25-14.01-.82-.14s-3.9-.7-6.43-3.87c-3.32-4.15-6.04-9.37-4.53-10.88,1.21-1.21,3.05-1.96,4.82-1.96,1.11,0,2.07.3,2.77.86,2.43,1.94,4.15,2.69,4.22,2.72l1.43.61-.04-1.56c0-.08-.16-8.55,4.58-17.34,5.06-9.4,11.74-19.44,27.07-19.67h.58c14.85,0,22.48,8.46,24.5,15.7,1.38,4.94,2.33,11.95,3.02,17.07l.17,1.24c.65,4.8.86,9.72.62,14.61-.24,4.81-2.29,19.38-4.98,24.55-2.44,4.68-14.67,9.82-23.36,9.82,0,0-.36,0-.54,0l-1.11-.03.14,1.82c.69,8.8,1.41,17.91,4.21,23.38.48.95,1.06,2.01,1.69,3.17,3.33,6.15,8.37,15.44,7.21,21.98-.73,4.15-8.77,10.17-19.69,10.17h0Z" fill="#fff" stroke-width="0"/>
      <path d="M112.43,40.16c14.29,0,21.61,8.07,23.54,14.98,1.36,4.87,2.3,11.84,2.99,16.93l.17,1.25c.65,4.74.85,9.59.61,14.42-.25,5-2.35,19.31-4.87,24.14-2.26,4.34-14.24,9.28-22.47,9.28-.17,0-.34,0-.51,0l-2.22-.06.18,2.22.06.71c.7,8.9,1.43,18.11,4.32,23.76.49.96,1.08,2.04,1.7,3.19,3.27,6.03,8.21,15.13,7.11,21.33-.66,3.72-8.46,9.35-18.71,9.35-4.63,0-9.08-1.15-13.22-3.41-13.81-7.55-21.76-30.34-23.92-37.34,4.39-.91,10.07-2.57,11.26-5.19,1.22-2.68,1.52-22.8,1.59-31.33v-.05s-.24-13.15-.24-13.15l-.03-1.66-1.64-.27s-3.53-.66-5.81-3.5c-4.13-5.16-5.2-8.96-4.61-9.55,1.01-1.01,2.62-1.66,4.11-1.66.87,0,1.63.23,2.15.64,2.49,1.99,4.26,2.78,4.45,2.86l2.86,1.22-.07-3.11c0-.08-.14-8.31,4.46-16.85,4.93-9.15,11.42-18.92,26.21-19.14.19,0,.38,0,.56,0h0M112.43,38.16c-.2,0-.4,0-.59,0-15.97.23-23.01,11.04-27.94,20.19s-4.7,17.84-4.7,17.84c0,0-1.64-.7-3.99-2.58-.92-.74-2.13-1.07-3.4-1.07-1.97,0-4.1.82-5.53,2.25-2.35,2.35,1.64,8.69,4.46,12.21,2.82,3.52,7.04,4.23,7.04,4.23l.23,13.15s-.23,27.94-1.41,30.52-11.97,4.46-11.97,4.46c0,0,8.23,31.19,25.5,40.64,4.77,2.61,9.64,3.66,14.18,3.66,10.87,0,19.8-6.03,20.68-11,1.44-8.12-5.83-19.6-9-25.79-2.79-5.44-3.46-14.79-4.16-23.71.19,0,.37,0,.56,0,8.48,0,21.49-5.08,24.25-10.36,2.82-5.4,4.86-20.27,5.1-24.97.23-4.7.08-9.63-.63-14.79-.7-5.17-1.7-13.02-3.22-18.45-2.05-7.33-9.9-16.44-25.47-16.44h0Z" fill="#1f3051" stroke-width="0"/>
    </g>
    <g>
      <path d="M117.63,122.09c-1.93,0-3.94-.23-5.96-.67-3.58-.79-8.92-3.43-13.21-5.55-1.06-.52-2.06-1.02-2.97-1.45-6.03-2.89-9.9-6.77-15.55-12.82-1.2-1.29-1.4-7.28-1.15-11.13l.06-.9-.89-.15s-3.9-.7-6.43-3.87c-3.32-4.15-6.04-9.37-4.53-10.88,1.21-1.21,3.05-1.96,4.82-1.96,1.11,0,2.07.3,2.77.86,2.43,1.94,4.15,2.69,4.22,2.72l1.43.61-.04-1.56c0-.08-.16-8.55,4.58-17.34,5.06-9.4,11.74-19.44,27.07-19.67h.58c14.85,0,22.48,8.46,24.51,15.7,1.38,4.94,2.33,11.96,3.02,17.08l.17,1.24c.65,4.8.86,9.72.62,14.61-.24,4.82-2.29,19.38-4.98,24.55-1.6,3.07-6.41,8.13-12.1,9.77-1.88.54-3.91.82-6.03.82Z" fill="#fff" stroke-width="0"/>
      <path d="M112.43,39.32c14.29,0,21.61,8.07,23.54,14.98,1.36,4.87,2.3,11.84,2.99,16.93l.17,1.25c.65,4.74.85,9.59.61,14.42-.25,5-2.35,19.31-4.87,24.14-1.52,2.91-6.09,7.71-11.49,9.27-1.79.52-3.73.78-5.76.78-1.86,0-3.79-.22-5.74-.65-3.46-.77-8.74-3.38-12.98-5.47-1.06-.53-2.07-1.02-2.98-1.46-5.99-2.87-9.7-6.66-15.25-12.6-.76-.85-1.18-5.8-.88-10.38l.1-1.79-1.76-.31s-3.54-.66-5.82-3.5c-4.13-5.16-5.2-8.96-4.61-9.55,1.01-1.01,2.62-1.66,4.11-1.66.87,0,1.63.23,2.15.64,2.49,1.99,4.26,2.78,4.45,2.86l2.87,1.23-.08-3.12c0-.08-.17-8.25,4.46-16.84,4.93-9.15,11.42-18.92,26.21-19.14.19,0,.38,0,.56,0h0M112.43,37.32c-.2,0-.39,0-.59,0-15.97.23-23.01,11.04-27.94,20.19s-4.7,17.84-4.7,17.84c0,0-1.64-.7-3.99-2.58-.92-.74-2.13-1.07-3.4-1.07-1.97,0-4.1.82-5.53,2.25-2.35,2.35,1.64,8.69,4.46,12.21,2.82,3.52,7.04,4.23,7.04,4.23,0,0-.62,9.69,1.42,11.88,5.44,5.82,9.46,9.98,15.85,13.04,4.66,2.23,11.8,6.07,16.39,7.08,2.06.46,4.13.7,6.18.7,2.16,0,4.29-.27,6.31-.85,6.01-1.73,11-7,12.71-10.26,2.82-5.4,4.86-20.27,5.1-24.97s.08-9.63-.63-14.79c-.7-5.17-1.7-13.02-3.22-18.45-2.05-7.33-9.9-16.44-25.47-16.44h0Z" fill="#1f3051" stroke-width="0"/>
    </g>
    <path d="M103.15,42.78c-3.29-.16-9.96,17.83-12.98,26.2-3.76,10.41-10.1,19.8-8.34,32.48.88,6.3-.59,13.38,5.05,18.08,6.05,5.04,6.06,9.79,5.52,14.44-.83,7.18-25.55,8.65-31.34,5.99-5.79-2.66-12.91-13.74-11.44-16.42,11.46-20.78,5.4-25.68,1.88-33.22-5.03-10.77-7.04-31.89.94-47.55,7.98-15.65,17.06-24.42,29.74-22.23,8.92-5.95,18.31-10.17,32.4-6.73,14.09,3.44,28.18,19.95,31.14,24.99,3.85,6.53,6.67,21.81,7.29,32.14.63,10.33-1.27,18.08-1.52,26.45-.28,9.33-1.92,14.03,5.75,23.77,7.12,9.05-.87,20.06-8.85,16.69-7.98-3.37-5.86,7.37-11.58,4.62-5.63-2.72-21.29-3.13-23.48-6.57-2.19-3.44-1.87-13.52-1.87-13.52,0,0,10.21,2.91,17.5-4.28,5.71-5.63,12.37-18.44,11.93-32.7-.13-4.16-1.21-8.21-1.72-11.58-1.2-8.06,4.6-19.09-10.82-21.66-14.09-2.34-25.2-9.39-25.2-9.39Z" fill="#1f3051" stroke-width="0"/>
    <g>
      <path d="M61.55,79.97c-14.8,0-25.01-4.33-28.02-11.87-4.63-11.62,8.63-29.05,32.26-42.39l.68-.39-.21-.76c-.2-.7-.3-1.42-.3-2.12,0-4.29,3.49-7.77,7.77-7.77,2.48,0,4.84,1.21,6.3,3.23l.46.64s1.6-.65,2.04-.83c14.55-5.8,29.54-8.99,42.19-8.99,14.8,0,25.01,4.33,28.02,11.87,2.78,6.98-.69,16.03-9.76,25.49-9.26,9.66-23.2,18.5-39.23,24.89-14.55,5.8-29.54,8.99-42.19,8.99h0Z" fill="#abb7c9" stroke-width="0"/>
      <path d="M124.72,9.73c14.37,0,24.25,4.1,27.09,11.24,2.63,6.59-.77,15.27-9.55,24.43-9.17,9.56-22.97,18.31-38.88,24.65-14.44,5.75-29.29,8.92-41.82,8.92-14.37,0-24.25-4.1-27.09-11.24-4.44-11.14,8.64-28.06,31.82-41.15l1.37-.77-.43-1.51c-.17-.62-.26-1.24-.26-1.84,0-3.73,3.04-6.77,6.77-6.77,2.16,0,4.21,1.05,5.49,2.82l.92,1.28,1.46-.6c.43-.18.86-.35,1.3-.53,14.44-5.75,29.29-8.92,41.82-8.92M124.72,7.73c-12.34,0-27.3,2.98-42.56,9.06-.44.18-.88.35-1.31.53-1.59-2.21-4.18-3.65-7.11-3.65-4.84,0-8.77,3.93-8.77,8.77,0,.83.12,1.63.34,2.39-23.64,13.35-37.67,31.15-32.69,43.63,3.3,8.27,14.26,12.5,28.95,12.5,12.34,0,27.3-2.98,42.56-9.06,33.43-13.32,55.62-36.46,49.55-51.68-3.3-8.27-14.26-12.5-28.95-12.5h0Z" fill="#1f3051" stroke-width="0"/>
    </g>
  </g>
</svg>