<svg width="192" height="192" viewBox="0 0 192 192" fill="none" xmlns="http://www.w3.org/2000/svg">
<path d="M23.4237 168.609C21.9114 167.112 21.8946 164.683 23.348 163.155L23.5132 163L56.8931 131.791C57.4308 131.288 58.2743 131.277 58.8321 131.774C58.8327 131.775 58.8333 131.775 58.8339 131.776L59.9672 132.8C59.9675 132.8 59.9679 132.8 59.9683 132.801C60.5592 133.339 60.5968 134.254 60.064 134.833L29.0351 168.482L29.0349 168.482C27.5393 170.105 24.992 170.162 23.4237 168.609Z" fill="#FF8084" stroke="#FF8084" stroke-width="2"/>
<path d="M123.73 41.33C116.75 43.44 112 49.68 112 56.74C112 49.68 107.25 43.44 100.27 41.33L52.5703 26.91L54.1403 111.42C54.1403 111.42 106.32 121.43 112 125.45C116.89 121.17 169.86 111.42 169.86 111.42L171.43 26.91L123.73 41.33Z" fill="#FF8084"/>
<path d="M122.701 36.09C116.331 38.08 112.001 38.24 112.001 44.91C112.001 38.24 107.671 38.08 101.301 36.09L57.7607 22.46L59.0207 102.35C59.0207 102.35 106.801 111.82 112.001 115.62C116.461 111.58 164.981 102.35 164.981 102.35L166.241 22.46L122.701 36.09Z" fill="#ECF0F6" stroke="#FF8084" stroke-width="2" stroke-miterlimit="10"/>
<path d="M112 43.8999V115.62" stroke="#FF8084" stroke-width="2" stroke-miterlimit="10" stroke-linecap="round"/>
<path d="M78.6701 146.81C98.602 146.81 114.76 130.652 114.76 110.72C114.76 90.7881 98.602 74.63 78.6701 74.63C58.7381 74.63 42.5801 90.7881 42.5801 110.72C42.5801 130.652 58.7381 146.81 78.6701 146.81Z" fill="#ABB7C9" stroke="#FF8084" stroke-width="2" stroke-miterlimit="10"/>
<path d="M60 97.59C66.1 86.94 79.68 83.26 90.33 89.36" stroke="#ECF0F6" stroke-width="2" stroke-miterlimit="10" stroke-linecap="round"/>
</svg>
