<?xml version="1.0" encoding="UTF-8"?>
<svg id="Icons" xmlns="http://www.w3.org/2000/svg" viewBox="0 0 192 192">
  <g id="Icon-Platform">
    <g>
      <g>
        <rect x="67.92" y="94.1" width="31.93" height="56.4" fill="#abb7c9" stroke-width="0"/>
        <path d="M98.85,95.1v54.4h-29.93v-54.4h29.93M100.85,93.1h-33.93v58.4h33.93v-58.4h0Z" fill="#1f3051" stroke-width="0"/>
      </g>
      <g>
        <polygon points="49.78 158.43 51.15 150.5 114.85 150.5 116.22 158.43 49.78 158.43" fill="#abb7c9" stroke-width="0"/>
        <path d="M114.01,151.5l1.02,5.93H50.97l1.02-5.93h62.02M115.7,149.5H50.3l-1.71,9.93h68.81l-1.71-9.93h0Z" fill="#1f3051" stroke-width="0"/>
      </g>
      <g>
        <rect x="10.42" y="32.24" width="151.58" height="101.76" rx="1" ry="1" fill="#abb7c9" stroke-width="0"/>
        <path d="M161,33.24v99.76H11.42V33.24h149.58M161,31.24H11.42c-1.1,0-2,.9-2,2v99.76c0,1.1.9,2,2,2h149.58c1.1,0,2-.9,2-2V33.24c0-1.1-.9-2-2-2h0Z" fill="#1f3051" stroke-width="0"/>
      </g>
      <rect x="16.94" y="37.71" width="138.55" height="90.81" rx="2" ry="2" fill="#1f3051" stroke-width="0"/>
    </g>
    <g>
      <g>
        <rect x="142" y="69" width="40.11" height="89.15" rx="1" ry="1" fill="#ecf0f6" stroke-width="0"/>
        <path d="M181.11,70v87.15h-38.11v-87.15h38.11M181.11,68h-38.11c-1.1,0-2,.9-2,2v87.15c0,1.1.9,2,2,2h38.11c1.1,0,2-.9,2-2v-87.15c0-1.1-.9-2-2-2h0Z" fill="#1f3051" stroke-width="0"/>
      </g>
      <rect x="144.59" y="75.92" width="34.93" height="68.09" rx="2" ry="2" fill="#1f3051" stroke-width="0"/>
      <g>
        <path d="M162.05,153.74c-1.78,0-3.24-1.45-3.24-3.24s1.45-3.24,3.24-3.24,3.24,1.45,3.24,3.24-1.45,3.24-3.24,3.24Z" fill="#abb7c9" stroke-width="0"/>
        <path d="M162.05,148.26c1.23,0,2.24,1,2.24,2.24s-1,2.24-2.24,2.24-2.24-1-2.24-2.24,1-2.24,2.24-2.24M162.05,146.26c-2.34,0-4.24,1.9-4.24,4.24s1.9,4.24,4.24,4.24,4.24-1.9,4.24-4.24-1.9-4.24-4.24-4.24h0Z" fill="#1f3051" stroke-width="0"/>
      </g>
      <line x1="154.48" y1="72.28" x2="169.63" y2="72.28" fill="none" stroke="#2a2a2a" stroke-linecap="round" stroke-miterlimit="10" stroke-width="2"/>
    </g>
  </g>
</svg>