<?xml version="1.0" encoding="UTF-8"?>
<svg id="Icons" xmlns="http://www.w3.org/2000/svg" viewBox="0 0 192 192">
  <g id="Icon-Mission">
    <ellipse cx="88" cy="96.5" rx="67.03" ry="75.5" fill="#fff" stroke="#2a2a2a" stroke-linecap="round" stroke-miterlimit="10" stroke-width="2"/>
    <g>
      <path d="M95.49,150.11c-26.84,0-48.67-24.65-48.67-54.95s21.84-54.95,48.67-54.95,48.67,24.65,48.67,54.95-21.83,54.95-48.67,54.95Z" fill="#ecf0f6" stroke-width="0"/>
      <path d="M95.49,41.22c26.29,0,47.67,24.2,47.67,53.95s-21.39,53.95-47.67,53.95-47.67-24.2-47.67-53.95,21.39-53.95,47.67-53.95M95.49,39.22c-27.43,0-49.67,25.05-49.67,55.95s22.24,55.95,49.67,55.95,49.67-25.05,49.67-55.95-22.24-55.95-49.67-55.95h0Z" fill="#1f3051" stroke-width="0"/>
    </g>
    <g>
      <ellipse cx="101.54" cy="93.9" rx="29.57" ry="33.43" fill="#abb7c9" stroke-width="0"/>
      <path d="M101.54,61.47c15.75,0,28.57,14.55,28.57,32.43s-12.82,32.43-28.57,32.43-28.57-14.55-28.57-32.43,12.82-32.43,28.57-32.43M101.54,59.47c-16.88,0-30.57,15.41-30.57,34.43s13.69,34.43,30.57,34.43,30.57-15.41,30.57-34.43-13.69-34.43-30.57-34.43h0Z" fill="#1f3051" stroke-width="0"/>
    </g>
    <ellipse cx="104.76" cy="92.88" rx="8.76" ry="9.87" fill="#1f3051" stroke-width="0"/>
    <path d="M175.92,34.18l-13.52,12.86c-.06.05-.13.08-.21.07l-7.38-1.02-47.25,45.84c-.1.1-.26.09-.35,0l-3.15-3.14c-.1-.1-.1-.25,0-.35l47.27-45.87-.74-7.31c0-.08.02-.15.08-.2l13.56-12.83c.15-.14.4-.05.42.15l1.02,10.01,10.09,1.38c.21.03.29.28.14.42Z" fill="#1f3051" stroke-width="0"/>
  </g>
</svg>