<?xml version="1.0" encoding="UTF-8"?>
<svg id="Icons" xmlns="http://www.w3.org/2000/svg" viewBox="0 0 192 192">
  <g id="Icon-Overview">
    <g>
      <g>
        <path d="M95.51,124.91c-10.44-4.35-51.28-11.85-64.58-14.22l-1.5-84.47,66.3,14.8,66-14.79-1.5,84.45c-15.75,2.7-54.69,9.67-64.72,14.24Z" fill="#ecf0f6" stroke-width="0"/>
        <path d="M32.51,29.98l61.92,13.82,1.31.29,1.31-.29,61.62-13.81-1.39,78.16c-5.89,1.03-16.29,2.9-26.92,4.99-21.78,4.3-30.81,6.85-34.92,8.48-4.04-1.49-13.01-3.96-34.96-8.37-10.52-2.11-20.78-4.01-26.59-5.07l-1.39-78.2M164.8,22.46l-69.07,15.48L26.37,22.46l1.61,90.75s60.98,10.75,67.61,15.07c5.69-4.59,67.61-15.07,67.61-15.07l1.61-90.75h0Z" fill="#1f3051" stroke-width="0"/>
      </g>
      <line x1="95.59" y1="39.82" x2="95.59" y2="121.28" fill="#ecf0f6" stroke="#1f3051" stroke-miterlimit="10" stroke-width="6"/>
    </g>
    <g>
      <path d="M21.65,162.22l36.23-33.81c1-.93,2.57-.93,3.62.02l1.27,1.15c1.12,1.01,1.22,2.72.23,3.8l-33.6,36.52c-2.04,2.21-5.55,2.24-7.75.06h0c-2.2-2.18-2.19-5.7,0-7.75Z" fill="#1f3051" stroke="#2a2a2a" stroke-miterlimit="10"/>
      <g>
        <path d="M80.48,143.04c-.77,0-1.55-.03-2.33-.08-9.28-.61-17.76-4.8-23.89-11.79-6.13-6.99-9.17-15.95-8.55-25.23,1.2-18.24,16.44-32.52,34.7-32.52.77,0,1.55.03,2.33.08,19.15,1.26,33.71,17.87,32.45,37.03-1.2,18.24-16.44,32.52-34.7,32.52Z" fill="#abb7c9" stroke-width="0"/>
        <path d="M80.41,70.42v6c.71,0,1.42.02,2.13.07,8.48.56,16.23,4.39,21.83,10.78,5.6,6.39,8.38,14.58,7.82,23.06-1.1,16.67-15.02,29.72-31.7,29.72-.71,0-1.42-.02-2.13-.07-17.5-1.15-30.8-16.33-29.65-33.83,1.1-16.66,15.03-29.72,31.7-29.72v-6M80.41,70.42c-19.75,0-36.37,15.33-37.69,35.32-1.37,20.84,14.4,38.84,35.24,40.22.85.06,1.69.08,2.52.08,19.75,0,36.37-15.33,37.69-35.32,1.37-20.84-14.4-38.84-35.24-40.22-.85-.06-1.69-.08-2.52-.08h0Z" fill="#1f3051" stroke-width="0"/>
      </g>
      <path d="M68,99.51c3.73-6.52,12.04-8.77,18.56-5.04" fill="none" stroke="#f2f2f2" stroke-linecap="round" stroke-miterlimit="10" stroke-width="6"/>
    </g>
  </g>
</svg>