<?xml version="1.0" encoding="UTF-8"?>
<svg id="Icons" xmlns="http://www.w3.org/2000/svg" viewBox="0 0 192 192">
  <defs>
    <style>
      .cls-1 {
        fill: #fff;
      }

      .cls-1, .cls-2, .cls-3 {
        stroke: #1f3051;
        stroke-miterlimit: 10;
      }

      .cls-1, .cls-3 {
        stroke-width: 2px;
      }

      .cls-4 {
        fill: #1f3051;
        stroke-width: 0px;
      }

      .cls-2 {
        fill: none;
        stroke-linecap: round;
        stroke-width: 4px;
      }

      .cls-3 {
        fill: #abb7c9;
      }
    </style>
  </defs>
  <g id="Icon-Timeline">
    <path class="cls-3" d="M140.96,144.29c-.18-.25-.51-.36-.82-.26-1.28.41-2.65.28-5.66,2.2-2.86,1.83-3.4,3.38-4.27,4.39-.2.24-.21.58-.03.83l13.13,18.04s2.61,2.33,7.11-.46c5.34-3.31,3.67-6.7,3.67-6.7l-13.13-18.04Z"/>
    <path class="cls-4" d="M170.29,90.85c0,38.88-33.32,70.4-74.43,70.4-9.18,0-20.45-.21-28.57-3.09-28.24-10-45.86-37.11-45.86-67.31s17.75-57.66,45.59-64.92c9.34-2.44,14.96-4.95,33.1-6.1,3.95-.25,70.17,32.14,70.17,71.02Z"/>
    <ellipse class="cls-3" cx="109.14" cy="90.85" rx="61.14" ry="70.4"/>
    <ellipse class="cls-1" cx="110.49" cy="90.85" rx="55.4" ry="63.78"/>
    <path class="cls-3" d="M70.94,151.74c.17-.26.15-.59-.06-.82-.88-.98-1.28-2.23-4.29-4.16-2.86-1.84-4.56-1.72-5.88-2.1-.31-.09-.64.03-.81.29l-12.46,18.47s-1.26,3.19,3.15,6.11c5.24,3.46,7.88.69,7.88.69l12.47-18.47Z"/>
    <line class="cls-2" x1="76.52" y1="71.39" x2="108.55" y2="94.55"/>
    <line class="cls-2" x1="145.62" y1="53.86" x2="109.15" y2="92.74"/>
    <ellipse class="cls-4" cx="107.97" cy="94.13" rx="4.67" ry="5.53"/>
  </g>
</svg>