<?xml version="1.0" encoding="UTF-8"?>
<svg id="Icons" xmlns="http://www.w3.org/2000/svg" viewBox="0 0 192 192">
  <defs>
    <style>
      .cls-1 {
        fill: #fff;
      }

      .cls-1, .cls-2, .cls-3 {
        stroke: #1f3051;
        stroke-miterlimit: 10;
        stroke-width: 2px;
      }

      .cls-2 {
        fill: #ecf0f6;
      }

      .cls-4 {
        fill: #1f3051;
        stroke-width: 0px;
      }

      .cls-3 {
        fill: #abb7c9;
      }
    </style>
  </defs>
  <g id="Icon-Mission">
    <ellipse class="cls-1" cx="88" cy="96.5" rx="67.03" ry="75.5"/>
    <ellipse class="cls-2" cx="95.49" cy="95.16" rx="49.67" ry="55.95"/>
    <ellipse class="cls-3" cx="101.54" cy="93.9" rx="30.57" ry="34.43"/>
    <ellipse class="cls-4" cx="104.76" cy="92.88" rx="8.76" ry="9.87"/>
    <path class="cls-4" d="M175.92,34.18l-13.52,12.86c-.06.05-.13.08-.21.07l-7.38-1.02-47.25,45.84c-.1.1-.26.09-.35,0l-3.15-3.14c-.1-.1-.1-.25,0-.35l47.27-45.87-.74-7.31c0-.08.02-.15.08-.2l13.56-12.83c.15-.14.4-.05.42.15l1.02,10.01,10.09,1.38c.21.03.29.28.14.42Z"/>
  </g>
</svg>