<?xml version="1.0" encoding="UTF-8"?>
<svg id="Icons" xmlns="http://www.w3.org/2000/svg" viewBox="0 0 192 192">
  <defs>
    <style>
      .cls-1 {
        fill: #fff;
        stroke: #1f3051;
        stroke-miterlimit: 10;
        stroke-width: 2px;
      }

      .cls-2 {
        fill: #abb7c9;
      }

      .cls-2, .cls-3 {
        stroke-width: 0px;
      }

      .cls-3 {
        fill: #1f3051;
      }
    </style>
  </defs>
  <g id="Icon-HatsWorn">
    <path class="cls-1" d="M137.9,54.6c1.52,5.43,2.51,13.28,3.22,18.45.7,5.17.86,10.1.63,14.79-.23,4.7-2.28,19.57-5.1,24.97-2.82,5.4-16.36,10.59-24.81,10.35.7,8.92,1.38,18.27,4.16,23.71,3.17,6.19,10.44,17.67,9,25.79-1.25,7.04-18.64,16.21-34.85,7.34-17.27-9.45-25.5-40.64-25.5-40.64,0,0,10.8-1.88,11.97-4.46s1.41-30.52,1.41-30.52l-.23-13.15s-4.23-.7-7.04-4.23c-2.82-3.52-6.81-9.86-4.46-12.21,2.35-2.35,6.57-3.05,8.92-1.17,2.35,1.88,3.99,2.58,3.99,2.58,0,0-.23-8.69,4.7-17.84,4.93-9.16,11.97-19.96,27.94-20.19,15.97-.23,23.99,9.02,26.06,16.44Z"/>
    <path class="cls-1" d="M137.9,53.76c1.52,5.43,2.51,13.28,3.22,18.45.7,5.17.86,10.1.63,14.79-.23,4.7-2.28,19.57-5.1,24.97-1.7,3.27-6.7,8.53-12.71,10.26-3.93,1.13-8.25,1.09-12.49.16-4.59-1.02-11.74-4.85-16.39-7.08-6.38-3.06-10.41-7.22-15.85-13.04-2.04-2.19-1.42-11.88-1.42-11.88,0,0-4.23-.7-7.04-4.23-2.82-3.52-6.81-9.86-4.46-12.21,2.35-2.35,6.57-3.05,8.92-1.17s3.99,2.58,3.99,2.58c0,0-.23-8.69,4.7-17.84,4.93-9.16,11.97-19.96,27.94-20.19,15.97-.23,23.99,9.02,26.06,16.44Z"/>
    <path class="cls-3" d="M103.15,42.78c-3.29-.16-9.96,17.83-12.98,26.2-3.76,10.41-10.1,19.8-8.34,32.48.88,6.3-.59,13.38,5.05,18.08,6.05,5.04,6.06,9.79,5.52,14.44-.83,7.18-25.55,8.65-31.34,5.99-5.79-2.66-12.91-13.74-11.44-16.42,11.46-20.78,5.4-25.68,1.88-33.22-5.03-10.77-7.04-31.89.94-47.55,7.98-15.65,17.06-24.42,29.74-22.23,8.92-5.95,18.31-10.17,32.4-6.73,14.09,3.44,28.18,19.95,31.14,24.99,3.85,6.53,6.67,21.81,7.29,32.14.63,10.33-1.27,18.08-1.52,26.45-.28,9.33-1.92,14.03,5.75,23.77,7.12,9.05-.87,20.06-8.85,16.69-7.98-3.37-5.86,7.37-11.58,4.62-5.63-2.72-21.29-3.13-23.48-6.57-2.19-3.44-1.87-13.52-1.87-13.52,0,0,10.21,2.91,17.5-4.28,5.71-5.63,12.37-18.44,11.93-32.7-.13-4.16-1.21-8.21-1.72-11.58-1.2-8.06,4.6-19.09-10.82-21.66-14.09-2.34-25.2-9.39-25.2-9.39Z"/>
    <g>
      <path class="cls-2" d="M61.55,79.97c-14.8,0-25.01-4.33-28.02-11.87-4.63-11.62,8.63-29.05,32.25-42.39l.68-.39-.21-.76c-.2-.71-.3-1.42-.3-2.12,0-4.29,3.49-7.77,7.77-7.77,2.48,0,4.84,1.21,6.3,3.23l.46.64s1.6-.65,2.04-.83c14.55-5.8,29.54-8.99,42.19-8.99,14.8,0,25.02,4.33,28.02,11.88,2.78,6.98-.69,16.03-9.76,25.49-9.26,9.66-23.2,18.5-39.23,24.89-14.55,5.8-29.54,8.99-42.19,8.99h0Z"/>
      <path class="cls-3" d="M124.72,9.73c14.37,0,24.25,4.1,27.09,11.24,2.63,6.59-.77,15.26-9.55,24.43-9.17,9.56-22.97,18.31-38.88,24.65-14.44,5.75-29.29,8.92-41.82,8.92-14.37,0-24.25-4.1-27.09-11.24-4.44-11.14,8.64-28.06,31.82-41.15l1.37-.77-.43-1.51c-.17-.62-.26-1.24-.26-1.84,0-3.73,3.04-6.77,6.77-6.77,2.16,0,4.21,1.05,5.49,2.82l.92,1.28,1.46-.6c.43-.18.86-.35,1.3-.53,14.44-5.75,29.29-8.92,41.82-8.92M124.72,7.73c-12.34,0-27.3,2.98-42.56,9.06-.44.18-.88.35-1.32.53-1.59-2.21-4.18-3.65-7.11-3.65-4.84,0-8.77,3.93-8.77,8.77,0,.83.12,1.63.34,2.39-23.64,13.35-37.67,31.15-32.69,43.63,3.3,8.27,14.26,12.5,28.95,12.5,12.34,0,27.3-2.98,42.56-9.06,33.43-13.32,55.62-36.46,49.55-51.68-3.3-8.27-14.26-12.5-28.95-12.5h0Z"/>
    </g>
  </g>
</svg>