<?xml version="1.0" encoding="UTF-8"?>
<svg id="Icons" xmlns="http://www.w3.org/2000/svg" viewBox="0 0 192 192">
  <defs>
    <style>
      .cls-1 {
        fill: #abb7c9;
      }

      .cls-1, .cls-2 {
        stroke-width: 0px;
      }

      .cls-3 {
        fill: #ecf0f6;
      }

      .cls-3, .cls-4, .cls-5 {
        stroke-miterlimit: 10;
        stroke-width: 6px;
      }

      .cls-3, .cls-5 {
        stroke: #1f3051;
      }

      .cls-2 {
        fill: #1f3051;
      }

      .cls-4 {
        stroke: #ecf0f6;
      }

      .cls-4, .cls-5 {
        fill: none;
        stroke-linecap: round;
      }
    </style>
  </defs>
  <g id="Icon-Overview">
    <g>
      <path class="cls-3" d="M95.74,37.95L26.37,22.46l1.61,90.75s60.98,10.75,67.61,15.07c5.69-4.59,67.61-15.07,67.61-15.07l1.61-90.75-69.07,15.48Z"/>
      <line class="cls-5" x1="95.59" y1="39.82" x2="95.59" y2="121.28"/>
    </g>
    <g>
      <path class="cls-2" d="M21.65,162.22l36.23-33.81c1-.93,2.57-.93,3.62.02l1.27,1.15c1.12,1.01,1.22,2.72.23,3.8l-33.6,36.52c-2.04,2.21-5.55,2.24-7.75.06h0c-2.2-2.18-2.19-5.7,0-7.75Z"/>
      <g>
        <path class="cls-1" d="M80.48,143.04c-.77,0-1.55-.03-2.33-.08-19.15-1.26-33.71-17.87-32.45-37.03,1.2-18.24,16.44-32.52,34.7-32.52.77,0,1.55.03,2.33.08,9.28.61,17.76,4.8,23.89,11.79,6.13,6.99,9.17,15.95,8.55,25.23-1.2,18.24-16.44,32.52-34.7,32.52Z"/>
        <path class="cls-2" d="M80.41,70.42v6c.7,0,1.42.02,2.13.07,8.48.56,16.23,4.39,21.83,10.78,5.6,6.39,8.38,14.58,7.82,23.06-1.1,16.67-15.02,29.72-31.7,29.72-.71,0-1.42-.02-2.13-.07-8.48-.56-16.23-4.39-21.83-10.78-5.6-6.39-8.38-14.58-7.82-23.06,1.1-16.66,15.02-29.72,31.7-29.72v-6M80.41,70.42c-19.75,0-36.37,15.33-37.69,35.32-1.37,20.84,14.4,38.84,35.24,40.22.85.06,1.69.08,2.52.08,19.75,0,36.37-15.33,37.69-35.32,1.37-20.84-14.4-38.84-35.24-40.22-.85-.06-1.69-.08-2.52-.08h0Z"/>
      </g>
      <path class="cls-4" d="M68,99.51c3.73-6.52,12.04-8.77,18.56-5.04"/>
    </g>
  </g>
</svg>