<?xml version="1.0" encoding="UTF-8"?>
<svg id="Icons" xmlns="http://www.w3.org/2000/svg" viewBox="0 0 192 192">
  <defs>
    <style>
      .cls-1 {
        fill: #abb7c9;
      }

      .cls-1, .cls-2, .cls-3 {
        stroke-width: 0px;
      }

      .cls-2 {
        fill: #1f3051;
      }

      .cls-3 {
        fill: #ecf0f6;
      }
    </style>
  </defs>
  <g id="Icon-UI">
    <g>
      <rect class="cls-1" x="12.14" y="35.69" width="167.38" height="120.05"/>
      <path class="cls-2" d="M176.52,38.69v114.05H15.14V38.69h161.38M180.52,32.69H11.14c-1.1,0-2,.9-2,2v122.05c0,1.1.9,2,2,2h169.38c1.1,0,2-.9,2-2V34.69c0-1.1-.9-2-2-2h0Z"/>
    </g>
    <rect class="cls-2" x="28.04" y="49.54" width="135.92" height="92.35" rx="2" ry="2"/>
    <g>
      <path class="cls-3" d="M86.41,117.81c-3,0-5.59-.42-7.77-1.27-2.18-.84-3.98-2.01-5.4-3.52-1.42-1.5-2.47-3.29-3.15-5.37-.68-2.08-1.02-4.37-1.02-6.88v-26.59h9.62v25.79c0,1.73.19,3.2.59,4.41.39,1.21.93,2.2,1.6,2.96.68.76,1.5,1.31,2.47,1.64.97.33,2.03.49,3.18.49,2.34,0,4.25-.72,5.71-2.16,1.46-1.44,2.19-3.89,2.19-7.34v-25.79h9.62v26.59c0,2.51-.35,4.81-1.05,6.91-.7,2.1-1.77,3.9-3.21,5.4-1.44,1.5-3.27,2.66-5.49,3.49s-4.85,1.23-7.9,1.23Z"/>
      <path class="cls-3" d="M113.31,74.19h9.62v42.76h-9.62v-42.76Z"/>
    </g>
  </g>
</svg>