<?xml version="1.0" encoding="UTF-8"?>
<svg id="Icons" xmlns="http://www.w3.org/2000/svg" viewBox="0 0 192 192">
  <defs>
    <style>
      .cls-1 {
        fill: #fff;
        stroke: #1f3051;
      }

      .cls-1, .cls-2 {
        stroke-miterlimit: 10;
        stroke-width: 2px;
      }

      .cls-3 {
        fill: #1f3051;
        stroke-width: 0px;
      }

      .cls-2 {
        fill: #abb7c9;
        stroke: #ecf0f6;
      }
    </style>
  </defs>
  <g id="Icon-Reflection">
    <path class="cls-1" d="M140.15,67.75c1.36,4.87,2.26,11.93,2.89,16.57.63,4.64.77,9.07.56,13.28-.21,4.22-2.05,17.57-4.58,22.42-2.53,4.85-14.69,9.51-22.28,9.3.63,8.01,1.24,16.41,3.74,21.3,2.85,5.56,9.37,15.87,8.08,23.16-1.12,6.32-16.74,14.56-31.3,6.59-15.51-8.49-22.9-36.5-22.9-36.5,0,0,9.7-1.69,10.75-4.01s1.27-27.41,1.27-27.41l-.21-11.81s-3.8-.63-6.33-3.8c-2.53-3.16-6.11-8.86-4.01-10.96,2.11-2.11,5.9-2.74,8.01-1.05,2.11,1.69,3.58,2.32,3.58,2.32,0,0-.21-7.8,4.22-16.03,4.43-8.22,10.75-17.92,25.09-18.13,14.34-.21,21.55,8.1,23.41,14.76Z"/>
    <path class="cls-1" d="M140.15,67c1.36,4.87,2.26,11.93,2.89,16.57.63,4.64.77,9.07.56,13.28-.21,4.22-2.05,17.57-4.58,22.42-1.53,2.93-6.01,7.66-11.41,9.22-3.53,1.02-7.41.98-11.21.14-4.12-.91-10.54-4.36-14.72-6.36-5.73-2.75-9.35-6.49-14.23-11.71-1.83-1.96-1.27-10.67-1.27-10.67,0,0-3.8-.63-6.33-3.8-2.53-3.16-6.11-8.86-4.01-10.96,2.11-2.11,5.9-2.74,8.01-1.05s3.58,2.32,3.58,2.32c0,0-.21-7.8,4.22-16.03,4.43-8.22,10.75-17.92,25.09-18.13,14.34-.21,21.55,8.1,23.41,14.76Z"/>
    <path class="cls-3" d="M108.94,57.14c-2.95-.14-8.95,16.01-11.66,23.53-3.37,9.35-9.07,17.78-7.49,29.17.79,5.66-.53,12.02,4.53,16.24,5.43,4.53,5.44,8.79,4.96,12.97-.75,6.45-22.95,7.77-28.15,5.38-5.2-2.39-11.6-12.34-10.27-14.74,10.29-18.66,4.85-23.07,1.69-29.84-4.52-9.67-6.33-28.64.84-42.7,7.17-14.06,15.32-21.93,26.71-19.96,8.01-5.34,16.45-9.14,29.1-6.04,12.65,3.09,25.31,17.92,27.97,22.44,3.46,5.87,5.99,19.59,6.55,28.87.56,9.28-1.14,16.24-1.37,23.76-.25,8.38-1.73,12.6,5.16,21.35,6.4,8.12-.78,18.01-7.95,14.99-7.17-3.02-5.26,6.62-10.4,4.15-5.06-2.44-19.12-2.81-21.09-5.9-1.97-3.09-1.68-12.14-1.68-12.14,0,0,9.17,2.61,15.71-3.84,5.13-5.06,11.11-16.56,10.72-29.37-.11-3.74-1.09-7.37-1.54-10.4-1.07-7.24,4.13-17.15-9.71-19.45-12.65-2.1-22.63-8.43-22.63-8.43Z"/>
    <path class="cls-2" d="M32,44.56c0,20.19,16.21,36.56,36.22,36.56,7.77,0,14.98-2.47,20.88-6.68,10.6,1.64,16.32-.63,18.83-3.31,1.57-1.8-6.85-6.61-8.37-8.24,3.1-5.39,4.87-11.65,4.87-18.32,0-20.19-16.21-36.56-36.22-36.56-20,0-36.22,16.37-36.22,36.56Z"/>
  </g>
</svg>