<?xml version="1.0" encoding="UTF-8"?>
<svg id="Icons" xmlns="http://www.w3.org/2000/svg" viewBox="0 0 192 192">
  <defs>
    <style>
      .cls-1 {
        fill: #abb7c9;
      }

      .cls-1, .cls-2 {
        stroke-width: 0px;
      }

      .cls-2 {
        fill: #1f3051;
      }
    </style>
  </defs>
  <g id="Icon-Reflection">
    <g>
      <path class="cls-1" d="M95.39,168.51c-40.1,0-72.73-32.64-72.73-72.75S55.29,23,95.39,23s72.73,32.64,72.73,72.75c0,12.83-3.38,25.43-9.78,36.46l-1.12,1.92,1.52,1.63c1.16,1.24,3.42,2.85,6.28,4.9,3.05,2.18,9.14,6.53,10.57,8.72-2.88,2.66-9.32,6.42-22.61,6.42-4.13,0-8.67-.38-13.48-1.11l-1.2-.18-.99.7c-12.3,8.7-26.8,13.3-41.92,13.3Z"/>
      <path class="cls-2" d="M95.39,26c38.45,0,69.73,31.29,69.73,69.75,0,12.3-3.24,24.39-9.37,34.96l-2.23,3.85,3.04,3.25c1.3,1.39,3.3,2.85,6.73,5.29,1.99,1.42,5.48,3.91,7.77,5.89-3.16,1.84-8.72,3.81-18.06,3.81-3.98,0-8.36-.36-13.03-1.08l-2.4-.37-1.98,1.4c-11.8,8.34-25.69,12.75-40.19,12.75-38.45,0-69.73-31.29-69.73-69.75S56.95,26,95.39,26M95.39,20c-41.82,0-75.73,33.92-75.73,75.75s33.9,75.75,75.73,75.75c16.26,0,31.32-5.12,43.66-13.85,5.19.8,9.82,1.15,13.94,1.15,13.47,0,21.43-3.76,25.45-8.01,3.28-3.73-14.33-13.69-17.5-17.08,6.48-11.16,10.18-24.13,10.18-37.97,0-41.84-33.9-75.75-75.73-75.75h0Z"/>
    </g>
  </g>
  <circle class="cls-2" cx="95.75" cy="96.02" r="7.48"/>
  <circle class="cls-2" cx="127.96" cy="96.02" r="7.48"/>
  <circle class="cls-2" cx="63.54" cy="96.02" r="7.48"/>
</svg>