<?xml version="1.0" encoding="UTF-8"?>
<svg id="Icons" xmlns="http://www.w3.org/2000/svg" viewBox="0 0 192 192">
  <g id="Icon-Team">
    <g>
      <path d="M57.42,92.12c-.36,0-.71-.14-.97-.4l-13.3-13.3c-.64-.64-1.48-.99-2.38-.99s-1.74.35-2.38.99c-.81.81-1.15,1.99-.89,3.15.51,2.29-.18,4.64-1.83,6.29-1.29,1.29-3,2-4.82,2-2.73,0-6.22-1.72-7.05-6.57-.03-.16-.03-.34,0-.5.83-4.84,4.31-6.56,7.05-6.56.5,0,1,.05,1.49.16.25.06.51.08.76.08.88,0,1.71-.33,2.33-.93l.05-.05c1.31-1.31,1.31-3.45,0-4.76l-13.3-13.3c-.53-.53-.53-1.4,0-1.93l13.3-13.3c.26-.26.6-.4.97-.4s.71.14.97.4c.33.33.46.81.35,1.3-.65,2.96.23,6,2.37,8.14,1.67,1.67,3.88,2.58,6.23,2.58,3.79,0,8.05-2.55,9.02-8.23.07-.39.07-.79,0-1.18-.98-5.68-5.23-8.22-9.02-8.22-.65,0-1.29.07-1.92.21-.11.02-.22.04-.33.04-.37,0-.71-.14-.96-.39-.26-.26-.4-.6-.4-.97s.14-.71.4-.97l13.3-13.3c.26-.26.6-.4.97-.4s.71.14.97.4l13.3,13.3c.64.64,1.48.99,2.38.99s1.74-.35,2.38-.99c.85-.85,1.18-2.02.92-3.17-.4-1.82-.04-3.74.99-5.28,1.16-1.72,3.03-2.85,5.41-3.25.08-.01.17-.02.25-.02s.17,0,.25.02c3.13.54,5.41,2.35,6.24,4.97.78,2.44.14,5.08-1.68,6.89-1.29,1.29-3,2-4.82,2h0c-.5,0-.99-.05-1.48-.16-.25-.06-.51-.08-.77-.08-.91,0-1.75.34-2.38.97-.67.67-1.02,1.51-1.02,2.41s.35,1.74.99,2.38l13.3,13.3c.53.53.53,1.4,0,1.93l-14.3,14.3-1.06-1.06c-.33-.33-.46-.81-.35-1.3.65-2.96-.23-6-2.37-8.14-1.67-1.67-3.88-2.58-6.23-2.58-3.79,0-8.05,2.55-9.02,8.23-.07.38-.07.79,0,1.18.97,5.68,5.23,8.23,9.02,8.23.65,0,1.29-.07,1.92-.21.11-.02.22-.04.33-.04.37,0,.71.14.96.39l1.06,1.06-14.23,14.23c-.26.26-.6.4-.97.4Z" fill="#ecf0f6" stroke-width="0"/>
      <path d="M57.42,21.83c.07,0,.17.02.26.11l13.3,13.3c.82.82,1.92,1.28,3.09,1.28s2.26-.45,3.12-1.31c1.06-1.06,1.49-2.57,1.16-4.06-.35-1.55-.04-3.2.84-4.51,1-1.49,2.64-2.47,4.75-2.83.02,0,.05,0,.08,0s.06,0,.08,0c2.75.47,4.74,2.03,5.46,4.29.66,2.08.12,4.34-1.43,5.88-1.1,1.1-2.56,1.7-4.11,1.7-.42,0-.85-.05-1.26-.14-.32-.07-.65-.11-.98-.11-1.18,0-2.27.45-3.12,1.3-.82.82-1.28,1.92-1.28,3.09s.45,2.26,1.28,3.09l13.3,13.3c.09.09.11.19.11.26s-.02.17-.11.26l-13.59,13.59-.35-.35c-.12-.12-.09-.32-.08-.38.73-3.29-.26-6.68-2.64-9.06-1.85-1.85-4.32-2.88-6.94-2.88-4.21,0-8.94,2.8-10.01,9.06-.08.49-.08,1.02,0,1.52,1.07,6.26,5.8,9.06,10,9.06.72,0,1.44-.08,2.14-.24.04,0,.07-.01.11-.01.07,0,.17.02.25.1l.35.35-13.53,13.53c-.09.09-.19.11-.26.11s-.17-.02-.26-.11l-13.3-13.3c-.82-.82-1.92-1.28-3.09-1.28s-2.26.45-3.09,1.28c-1.05,1.06-1.49,2.58-1.16,4.07.43,1.95-.15,3.96-1.57,5.37-1.1,1.1-2.56,1.7-4.11,1.7-2.35,0-5.34-1.5-6.06-5.73,0-.05,0-.12,0-.17.72-4.23,3.72-5.73,6.06-5.73.43,0,.86.05,1.27.14.32.07.65.11.98.11,1.16,0,2.24-.44,3.06-1.24h0s.02-.03.02-.03c.82-.82,1.28-1.92,1.28-3.09s-.45-2.26-1.28-3.09l-13.3-13.3c-.09-.09-.11-.19-.11-.26s.02-.17.11-.26l13.3-13.3c.09-.09.19-.11.26-.11s.17.02.26.11c.13.12.09.32.08.38-.73,3.29.26,6.68,2.64,9.06,1.85,1.85,4.32,2.88,6.94,2.88,4.21,0,8.94-2.8,10.01-9.07.08-.5.08-1.02,0-1.51-1.08-6.25-5.8-9.05-10-9.05-.72,0-1.44.08-2.14.24-.04,0-.07.01-.11.01-.07,0-.17-.02-.25-.1-.14-.14-.14-.37,0-.52l13.3-13.3c.09-.09.19-.11.26-.11M57.42,19.83c-.61,0-1.21.23-1.67.69l-13.3,13.3c-.92.92-.92,2.42,0,3.35h0c.45.45,1.05.68,1.67.68.18,0,.36-.02.54-.06.56-.12,1.13-.19,1.71-.19,3.59,0,7.19,2.46,8.03,7.39.05.27.05.57,0,.84-.84,4.93-4.44,7.4-8.04,7.4-2,0-4-.76-5.53-2.29-1.96-1.96-2.66-4.7-2.1-7.22.18-.8-.04-1.64-.62-2.23-.46-.46-1.07-.69-1.67-.69s-1.21.23-1.67.69l-13.3,13.3c-.92.92-.92,2.42,0,3.35l13.3,13.3c.92.92.92,2.42,0,3.35h0c-.45.45-1.05.68-1.67.68-.18,0-.36-.02-.54-.06-.56-.12-1.13-.19-1.71-.19-3.59,0-7.19,2.46-8.03,7.39-.05.27-.05.57,0,.84.84,4.93,4.44,7.4,8.03,7.4,2,0,4-.76,5.53-2.29,1.96-1.96,2.66-4.7,2.1-7.22-.18-.8.04-1.64.62-2.23h0c.46-.46,1.07-.7,1.67-.7s1.21.23,1.67.69l13.3,13.3c.46.46,1.07.69,1.67.69s1.21-.23,1.67-.69l14.94-14.94-.06-.06-.86-.86-.85-.85c-.45-.45-1.05-.68-1.67-.68-.18,0-.36.02-.54.06-.56.12-1.13.19-1.71.19-3.59,0-7.19-2.46-8.03-7.39-.05-.27-.05-.57,0-.84.84-4.93,4.44-7.4,8.03-7.4,2,0,4,.76,5.53,2.29,1.96,1.96,2.66,4.7,2.1,7.22-.18.8.04,1.64.62,2.23l.85.85.86.86.06.06,15-15c.92-.92.92-2.42,0-3.35l-13.3-13.3c-.92-.92-.92-2.42,0-3.35l.03-.03c.45-.45,1.05-.68,1.67-.68.18,0,.37.02.55.06.56.12,1.12.18,1.69.18,2,0,4-.76,5.53-2.29,4.27-4.27,2.57-12.25-5.11-13.56-.14-.02-.28-.03-.42-.03s-.28.01-.42.03c-5.72.98-8.12,5.65-7.21,9.74.18.8-.04,1.63-.62,2.21l-.03.03c-.46.46-1.07.69-1.67.69s-1.21-.23-1.67-.69l-13.3-13.3c-.46-.46-1.07-.69-1.67-.69h0Z" fill="#1f3051" stroke-width="0"/>
    </g>
    <g>
      <path d="M129.85,90.72v-1.6c0-.41.22-.78.58-1,2.62-1.62,4.18-4.42,4.18-7.5,0-4.86-3.96-8.82-8.82-8.82-2.04,0-4.12.71-5.99,2.05-.3.21-.57.49-.78.78-1.72,2.42-2.39,5.17-1.87,7.74.48,2.38,1.94,4.47,4.01,5.75.35.22.56.59.56.99v1.6h-20.31c-.65,0-1.18-.53-1.18-1.18v-19.18c0-1.75-1.43-3.18-3.18-3.18-1.1,0-2.11.57-2.7,1.52-1.25,2.02-3.42,3.23-5.8,3.23-2.56,0-4.89-1.42-6.06-3.7-1.27-2.46-.93-5.35.92-7.95.08-.12.2-.23.31-.31,1.54-1.09,3.21-1.67,4.83-1.67,2.38,0,4.55,1.21,5.8,3.24.58.95,1.59,1.51,2.7,1.51,1.75,0,3.18-1.43,3.18-3.18v-19.18c0-.65.53-1.18,1.18-1.18h19.18c.65,0,1.18.53,1.18,1.18v.29c0,.41-.22.78-.58,1-2.62,1.62-4.18,4.42-4.18,7.5,0,2.36.92,4.57,2.58,6.23,1.66,1.67,3.88,2.58,6.23,2.58h0c2.04,0,4.12-.71,5.99-2.04.3-.21.57-.48.78-.78,1.72-2.42,2.39-5.17,1.87-7.75-.48-2.38-1.94-4.47-4.01-5.75-.35-.22-.56-.59-.56-1v-.29c0-.65.53-1.18,1.18-1.18h19.18c.65,0,1.18.53,1.18,1.18v19.18c0,1.75,1.43,3.18,3.18,3.18h.33c1.1,0,2.11-.57,2.7-1.51,1.25-2.03,3.42-3.24,5.8-3.24,1.62,0,3.29.58,4.83,1.67.12.08.23.2.31.31,1.85,2.6,2.18,5.49.92,7.95-1.18,2.28-3.5,3.7-6.06,3.7-2.38,0-4.54-1.21-5.8-3.23-.59-.95-1.6-1.52-2.7-1.52h-.33c-1.75,0-3.18,1.43-3.18,3.18v19.18c0,.65-.53,1.18-1.18,1.18h-20.4Z" fill="#abb7c9" stroke-width="0"/>
      <path d="M150.26,40.52c.1,0,.18.08.18.18v19.18c0,2.31,1.88,4.18,4.18,4.18h.33c1.45,0,2.78-.74,3.55-1.99,1.07-1.73,2.92-2.77,4.95-2.77,1.43,0,2.87.5,4.25,1.49.03.02.06.05.08.08,1.62,2.28,1.93,4.8.84,6.91-1,1.95-2.99,3.16-5.17,3.16-2.03,0-3.88-1.03-4.95-2.76-.77-1.25-2.1-1.99-3.55-1.99h-.33c-2.31,0-4.18,1.88-4.18,4.18v19.18c0,.1-.08.18-.18.18h-19.4v-.6c0-.08.08-.14.1-.15,2.91-1.81,4.65-4.93,4.65-8.35,0-5.41-4.4-9.82-9.82-9.82-2.25,0-4.53.77-6.57,2.23-.39.28-.74.63-1.02,1.02-1.89,2.65-2.61,5.68-2.03,8.52.53,2.65,2.16,4.98,4.47,6.4.06.03.09.09.09.14v.6h-19.31c-.1,0-.18-.08-.18-.18v-19.18c0-2.31-1.88-4.18-4.18-4.18-1.45,0-2.78.75-3.55,2-1.07,1.73-2.92,2.76-4.95,2.76-2.19,0-4.17-1.21-5.17-3.16-1.09-2.11-.78-4.63.84-6.91.02-.03.05-.06.08-.08,1.39-.99,2.82-1.49,4.25-1.49,2.03,0,3.88,1.03,4.95,2.77.77,1.24,2.09,1.99,3.55,1.99,2.31,0,4.18-1.88,4.18-4.18v-19.18c0-.1.08-.18.18-.18h19.18c.1,0,.18.08.18.18v.29c0,.08-.08.14-.1.15-2.91,1.8-4.65,4.93-4.65,8.35,0,5.41,4.4,9.82,9.82,9.82,2.25,0,4.52-.77,6.57-2.23.39-.28.74-.63,1.02-1.02,1.89-2.65,2.61-5.68,2.03-8.52-.53-2.65-2.16-4.98-4.47-6.4-.06-.03-.09-.09-.09-.14v-.29c0-.1.08-.18.18-.18h19.18M150.26,38.52h-19.18c-1.2,0-2.18.98-2.18,2.18v.29c0,.75.4,1.45,1.04,1.85,3.6,2.22,5.26,7.28,1.86,12.06-.15.21-.34.4-.55.55-1.82,1.3-3.68,1.86-5.41,1.86-4.32,0-7.82-3.5-7.82-7.82,0-2.81,1.48-5.27,3.7-6.65.65-.4,1.05-1.09,1.05-1.85v-.29c0-1.2-.98-2.18-2.18-2.18h-19.18c-1.2,0-2.18.98-2.18,2.18v19.18c0,1.2-.98,2.18-2.18,2.18h0c-.75,0-1.45-.4-1.85-1.04-1.38-2.23-3.84-3.71-6.65-3.71-1.73,0-3.59.56-5.41,1.86-.21.15-.4.34-.55.55-4.53,6.36-.09,13.23,5.96,13.23,2.81,0,5.27-1.48,6.65-3.7.4-.65,1.09-1.05,1.85-1.05,1.2,0,2.18.98,2.18,2.18v19.18c0,1.2.98,2.18,2.18,2.18h21.31v-2.6c0-.75-.4-1.45-1.04-1.85-3.6-2.22-5.26-7.28-1.86-12.06.15-.21.34-.4.55-.55,1.82-1.3,3.68-1.86,5.41-1.86,4.32,0,7.82,3.5,7.82,7.82,0,2.81-1.48,5.27-3.7,6.65-.65.4-1.05,1.09-1.05,1.85v2.6h21.4c1.2,0,2.18-.98,2.18-2.18v-19.18c0-1.2.98-2.18,2.18-2.18h.33c.76,0,1.45.4,1.85,1.05,1.38,2.22,3.84,3.7,6.65,3.7,6.05,0,10.49-6.87,5.96-13.23-.15-.21-.34-.4-.55-.55-1.82-1.3-3.68-1.86-5.41-1.86-2.81,0-5.28,1.49-6.65,3.71-.4.64-1.09,1.04-1.85,1.04h-.33c-1.2,0-2.18-.98-2.18-2.18v-19.18c0-1.2-.98-2.18-2.18-2.18h0Z" fill="#1f3051" stroke-width="0"/>
    </g>
    <path d="M168.83,116.9c-4.73-3.34-9.72-1.74-11.97,1.78-.45.7-1.2,1.14-2.03,1.14h0c-1.32,0-2.39-1.07-2.39-2.39v-18.75c0-1.32-1.07-2.39-2.39-2.39h-18.75c-1.32,0-2.39-1.07-2.39-2.39h0c0-.83.44-1.58,1.14-2.03,3.52-2.25,5.12-7.25,1.78-11.97-.16-.23-.37-.44-.6-.6-6.35-4.49-13.19-.05-13.19,5.98,0,2.76,1.44,5.19,3.6,6.58.7.45,1.15,1.2,1.15,2.04h0c0,1.32-1.07,2.39-2.39,2.39h-18.75c-1.32,0-2.39,1.07-2.39,2.39v21.1h2.48c.83,0,1.58-.44,2.03-1.14,2.25-3.52,7.24-5.12,11.97-1.78.23.16.44.37.6.6,4.5,6.35.06,13.2-5.98,13.2-2.76,0-5.19-1.44-6.58-3.6-.45-.7-1.2-1.15-2.04-1.15h-2.48v21.19c0,1.32,1.07,2.39,2.39,2.39h48.42c1.32,0,2.39-1.07,2.39-2.39v-18.75c0-1.32,1.07-2.39,2.39-2.39h0c.83,0,1.59.45,2.04,1.15,1.39,2.17,3.82,3.6,6.58,3.6,6.04,0,10.48-6.85,5.98-13.2-.16-.23-.37-.44-.6-.6Z" fill="#1f3051" stroke-width="0"/>
    <g>
      <path d="M69.37,169.6v-1.51c0-.46.25-.88.66-1.15,2.56-1.63,4.09-4.41,4.09-7.44,0-4.86-3.96-8.82-8.82-8.82-2.03,0-4.1.7-5.97,2.03-.32.23-.6.51-.83.83-2.18,3.08-2.21,5.88-1.86,7.68.46,2.36,1.9,4.45,3.94,5.74.41.26.65.68.65,1.14v1.51s-20.15,0-20.15,0c-.74,0-1.34-.6-1.34-1.34v-18.86c0-1.84-1.5-3.34-3.34-3.34-1.14,0-2.2.59-2.83,1.59-1.26,1.98-3.41,3.16-5.76,3.16-2.56,0-4.88-1.42-6.06-3.69-1.27-2.45-.94-5.34.9-7.94.09-.13.22-.26.35-.35,1.53-1.08,3.19-1.66,4.81-1.66,2.35,0,4.5,1.19,5.76,3.17.63.99,1.68,1.58,2.83,1.58,1.84,0,3.34-1.5,3.34-3.34v-18.86c0-.74.6-1.34,1.34-1.34h18.86c.36,0,.69.14.95.39.25.25.39.59.39.95,0,.5-.24.92-.65,1.18-2.04,1.29-3.47,3.38-3.94,5.74-.36,1.8-.32,4.6,1.86,7.68.22.32.51.6.83.83,1.87,1.33,3.93,2.03,5.97,2.03,4.86,0,8.82-3.96,8.82-8.82,0-3.03-1.53-5.81-4.09-7.44-.41-.26-.66-.69-.66-1.15,0-.78.6-1.38,1.34-1.38h18.86c.74,0,1.34.6,1.34,1.34v18.86c0,1.84,1.5,3.34,3.34,3.34,1.23,0,2.29-.59,2.92-1.59,1.26-1.98,3.41-3.16,5.76-3.16,2.56,0,4.88,1.42,6.06,3.69,1.27,2.45.94,5.34-.9,7.94-.09.13-.22.26-.35.35-1.53,1.08-3.19,1.65-4.8,1.65-2.35,0-4.5-1.19-5.76-3.17-.63-.99-1.68-1.58-2.83-1.58-1.93,0-3.43,1.5-3.43,3.34v18.86c0,.74-.6,1.34-1.34,1.34h-20.24Z" fill="#abb7c9" stroke-width="0"/>
      <path d="M89.61,119.4c.19,0,.34.15.34.34v18.86c0,2.39,1.95,4.34,4.34,4.34h.08c1.49,0,2.86-.77,3.68-2.05,1.08-1.69,2.91-2.7,4.91-2.7,2.19,0,4.17,1.21,5.17,3.15,1.09,2.11.79,4.62-.83,6.9-.03.04-.07.08-.11.11-1.38.98-2.8,1.47-4.23,1.47-2,0-3.84-1.01-4.92-2.71-.81-1.28-2.18-2.04-3.67-2.04h-.08c-2.39,0-4.34,1.95-4.34,4.34v18.86c0,.19-.15.34-.34.34h-19.24v-.51c0-.16.15-.27.2-.3,2.85-1.81,4.55-4.91,4.55-8.29,0-5.41-4.4-9.82-9.82-9.82-2.24,0-4.51.76-6.55,2.21-.41.29-.77.66-1.06,1.06-1.86,2.63-2.58,5.63-2.02,8.45.52,2.62,2.12,4.95,4.38,6.39.11.07.18.18.18.29v.51h-19.15c-.19,0-.34-.15-.34-.34v-18.86c0-2.39-1.95-4.34-4.34-4.34-1.49,0-2.86.77-3.68,2.05-1.08,1.69-2.91,2.7-4.91,2.7-2.19,0-4.17-1.21-5.17-3.15-1.09-2.11-.79-4.62.83-6.9.03-.04.07-.09.11-.11,1.38-.98,2.8-1.47,4.23-1.47,2,0,3.84,1.01,4.92,2.71.81,1.28,2.18,2.04,3.67,2.04,2.39,0,4.34-1.95,4.34-4.34v-18.86c0-.19.15-.34.34-.34h18.86c.19,0,.34.15.34.38,0,.11-.07.22-.18.29-2.27,1.44-3.87,3.76-4.38,6.39-.56,2.82.16,5.82,2.02,8.45.29.41.66.77,1.06,1.06,2.04,1.45,4.3,2.21,6.55,2.21,5.41,0,9.82-4.4,9.82-9.82,0-3.38-1.7-6.47-4.55-8.29-.05-.03-.2-.14-.2-.34,0-.19.15-.34.34-.34h18.86M89.61,117.4h-18.86c-1.29,0-2.34,1.05-2.34,2.34v.04c0,.82.44,1.55,1.12,1.99,2.18,1.39,3.63,3.82,3.63,6.6,0,4.32-3.5,7.82-7.82,7.82-1.72,0-3.58-.56-5.39-1.84-.22-.16-.43-.36-.59-.59-3.36-4.74-1.74-9.75,1.8-11.99.68-.43,1.11-1.17,1.11-1.98v-.04c0-1.29-1.05-2.34-2.34-2.34h-18.86c-1.29,0-2.34,1.05-2.34,2.34v18.86c0,1.29-1.05,2.34-2.34,2.34h0c-.81,0-1.55-.43-1.98-1.11-1.39-2.19-3.83-3.64-6.61-3.64-1.72,0-3.57.56-5.39,1.84-.22.16-.43.36-.59.59-4.51,6.36-.07,13.21,5.97,13.21,2.78,0,5.21-1.45,6.6-3.63.44-.69,1.18-1.12,1.99-1.12,1.29,0,2.34,1.05,2.34,2.34v18.86c0,1.29,1.05,2.34,2.34,2.34h21.15v-2.51c0-.81-.43-1.55-1.11-1.98-3.54-2.24-5.16-7.25-1.8-11.99.16-.22.36-.43.59-.59,1.81-1.29,3.67-1.84,5.39-1.84,4.32,0,7.82,3.5,7.82,7.82,0,2.78-1.45,5.21-3.63,6.6-.69.44-1.12,1.18-1.12,1.99v2.51h21.24c1.29,0,2.34-1.05,2.34-2.34v-18.86c0-1.29,1.05-2.34,2.34-2.34h.08c.81,0,1.55.43,1.98,1.11,1.39,2.19,3.83,3.64,6.61,3.64,1.72,0,3.57-.56,5.38-1.84.22-.16.43-.36.59-.59,4.51-6.35.07-13.21-5.97-13.21-2.78,0-5.21,1.45-6.6,3.63-.44.69-1.18,1.12-1.99,1.12h-.08c-1.29,0-2.34-1.05-2.34-2.34v-18.86c0-1.29-1.05-2.34-2.34-2.34h0Z" fill="#1f3051" stroke-width="0"/>
    </g>
  </g>
</svg>