<?xml version="1.0" encoding="UTF-8"?>
<svg id="Icons" xmlns="http://www.w3.org/2000/svg" viewBox="0 0 192 192">
  <defs>
    <style>
      .cls-1 {
        fill: #abb7c9;
      }

      .cls-1, .cls-2, .cls-3 {
        stroke-width: 0px;
      }

      .cls-2 {
        fill: #1f3051;
      }

      .cls-3 {
        fill: #ecf0f6;
      }
    </style>
  </defs>
  <g id="Icon-UXI">
    <g>
      <rect class="cls-1" x="12.14" y="35.69" width="167.38" height="120.05"/>
      <path class="cls-2" d="M176.52,38.69v114.05H15.14V38.69h161.38M180.52,32.69H11.14c-1.1,0-2,.9-2,2v122.05c0,1.1.9,2,2,2h169.38c1.1,0,2-.9,2-2V34.69c0-1.1-.9-2-2-2h0Z"/>
    </g>
    <rect class="cls-2" x="28.04" y="49.54" width="135.92" height="92.35" rx="2" ry="2"/>
    <g>
      <path class="cls-3" d="M137.5,74.19h9.62v42.76h-9.62v-42.76Z"/>
      <path class="cls-3" d="M116.59,116.95c-1.2-2.38-2.52-4.79-3.95-7.24-1.43-2.44-3.08-4.51-4.93-6.2-.58.64-1.3,1.52-2.19,2.65-.88,1.13-1.77,2.33-2.65,3.61-.88,1.27-1.71,2.59-2.48,3.96-.77,1.37-1.34,2.44-1.72,3.21h-10.98c1.8-3.34,3.92-6.79,6.37-10.34,2.45-3.56,5.18-7.33,8.2-11.32l-13.95-21.09h11.66l8.15,12.38,8.33-12.38h10.98l-13.88,20.64c3.64,4.56,6.63,8.74,8.99,12.54,2.35,3.8,4.21,6.99,5.57,9.58h-11.51Z"/>
      <path class="cls-3" d="M62.22,117.81c-3,0-5.59-.42-7.77-1.27-2.18-.84-3.98-2.01-5.4-3.52-1.42-1.5-2.47-3.29-3.15-5.37-.68-2.08-1.02-4.37-1.02-6.88v-26.59h9.62v25.79c0,1.73.19,3.2.59,4.41.39,1.21.93,2.2,1.6,2.96.68.76,1.5,1.31,2.47,1.64.97.33,2.03.49,3.18.49,2.34,0,4.25-.72,5.71-2.16,1.46-1.44,2.19-3.89,2.19-7.34v-25.79h9.62v26.59c0,2.51-.35,4.81-1.05,6.91-.7,2.1-1.77,3.9-3.21,5.4-1.44,1.5-3.27,2.66-5.49,3.49s-4.85,1.23-7.9,1.23Z"/>
    </g>
  </g>
</svg>